SplineFontDB: 3.0
FontName: Neuton-Extrabold
FullName: Neuton Extrabold
FamilyName: Neuton
Weight: Extrabold
Copyright: Copyright (c) 2010, 2011 Brian M Zick (http://21326.info/), \nwith Reserved Font Name 'Neuton'.\n\nThis Font Software is licensed under the SIL Open Font License, Version 1.1.This license is available with a FAQ at: http://scripts.sil.org/OFL\n   WITHOUT WARRANTIES OR CONDITIONS OF ANY KIND, either express or implied.\n   See the License for the specific language governing permissions and\n   limitations under the License.
UComments: "2011-6-6: Created." 
Version: 1.43
ItalicAngle: 0
UnderlinePosition: -361
UnderlineWidth: 0
Ascent: 1638
Descent: 410
LayerCount: 2
Layer: 0 1 "Back"  1
Layer: 1 1 "Fore"  0
NeedsXUIDChange: 1
XUID: [1021 467 2011608612 15596835]
FSType: 1
OS2Version: 1
OS2_WeightWidthSlopeOnly: 0
OS2_UseTypoMetrics: 0
CreationTime: 1307367768
ModificationTime: 1320286514
PfmFamily: 17
TTFWeight: 800
TTFWidth: 5
LineGap: 0
VLineGap: 0
Panose: 2 0 9 3 0 0 0 0 0 0
OS2TypoAscent: 2106
OS2TypoAOffset: 0
OS2TypoDescent: -485
OS2TypoDOffset: 0
OS2TypoLinegap: 0
OS2WinAscent: 2106
OS2WinAOffset: 0
OS2WinDescent: 485
OS2WinDOffset: 0
HheadAscent: 2106
HheadAOffset: 0
HheadDescent: -485
HheadDOffset: 0
OS2SubXSize: 1095
OS2SubYSize: 1179
OS2SubXOff: 0
OS2SubYOff: 235
OS2SupXSize: 1095
OS2SupYSize: 1179
OS2SupXOff: 0
OS2SupYOff: 809
OS2StrikeYSize: 84
OS2StrikeYPos: 4436
OS2Vendor: 'PfEd'
Lookup: 1 0 0 "'onum' Oldstyle Figures lookup 1"  {"'onum' Oldstyle Figures lookup 1-1" ("osf" ) } ['onum' ('DFLT' <'dflt' > 'hebr' <'dflt' > 'latn' <'dflt' > ) ]
MarkAttachClasses: 1
DEI: 91125
ShortTable: maxp 16
  0
  0
  0
  0
  0
  0
  0
  2
  1
  2
  22
  0
  256
  0
  0
  0
EndShort
TtTable: prep
PUSHW_1
 511
SCANCTRL
PUSHB_1
 4
SCANTYPE
EndTTInstrs
TtTable: fpgm
PUSHB_1
 0
FDEF
PUSHB_1
 0
SZP0
MPPEM
PUSHB_1
 42
LT
IF
PUSHB_1
 74
SROUND
EIF
PUSHB_1
 0
SWAP
MIAP[rnd]
RTG
PUSHB_1
 6
CALL
IF
RTDG
EIF
MPPEM
PUSHB_1
 42
LT
IF
RDTG
EIF
DUP
MDRP[rp0,rnd,grey]

StartChar: A
Encoding: 65 65 0
Width: 1550
VWidth: 0
Flags: HMW
LayerCount: 2
Back
SplineSet
0 0 m 5,0,-1
 19 138 l 1,1,-1
 180 241 l 1,2,-1
 618 1205 l 1,3,-1
 965 1270 l 1,4,-1
 1305 238 l 1,5,-1
 1453 145 l 1,6,-1
 1441 -2 l 1,7,-1
 716 -2 l 1,8,-1
 732 136 l 1,9,-1
 898 240 l 1,10,-1
 869 341 l 1,11,-1
 471 341 l 1,12,-1
 431 240 l 1,13,-1
 620 148 l 1,14,-1
 605 0 l 1,15,-1
 0 0 l 5,0,-1
546 534 m 5,16,-1
 815 534 l 1,17,-1
 703 933 l 1,18,-1
 546 534 l 5,16,-1
EndSplineSet
Fore
SplineSet
581 561 m 1,0,-1
 832 561 l 1,1,-1
 705 933 l 1,2,-1
 581 561 l 1,0,-1
43 0 m 1,3,-1
 62 138 l 1,4,-1
 223 241 l 1,5,-1
 611 1205 l 1,6,-1
 958 1270 l 1,7,-1
 1348 238 l 1,8,-1
 1496 145 l 1,9,-1
 1484 -2 l 1,10,-1
 759 -2 l 1,11,-1
 775 136 l 1,12,-1
 941 240 l 1,13,-1
 903 352 l 1,14,-1
 511 352 l 1,15,-1
 474 240 l 1,16,-1
 663 148 l 1,17,-1
 648 0 l 1,18,-1
 43 0 l 1,3,-1
EndSplineSet
Colour: ffff
EndChar

StartChar: AE
Encoding: 198 198 1
Width: 1983
VWidth: 0
Flags: HMW
LayerCount: 2
Back
SplineSet
691 1100 m 1,0,-1
 710 1244 l 1,1,-1
 1883 1244 l 1,2,-1
 1853 826 l 1,3,-1
 1682 852 l 1,4,-1
 1599 1072 l 1,5,-1
 1254 1072 l 1,6,-1
 1254 712 l 1,7,-1
 1504 732.286 l 1,8,-1
 1549 735.938 l 1,9,-1
 1673 746 l 1,10,-1
 1640 470 l 1,11,-1
 1507 494.119 l 1,12,-1
 1462 502.28 l 1,13,-1
 1254 540 l 1,14,-1
 1254 210 l 1,15,-1
 1617 170 l 1,16,-1
 1763 428 l 1,17,-1
 1928 411 l 1,18,-1
 1898 0 l 1,19,-1
 707 0 l 1,20,-1
 717 138 l 1,21,-1
 881 217 l 1,22,-1
 881 1030 l 1,23,-1
 691 1100 l 1,0,-1
EndSplineSet
Fore
SplineSet
701 615 m 1,0,-1
 987 615 l 1,1,-1
 975 1008 l 1,2,-1
 701 615 l 1,0,-1
45 -2 m 1,3,-1
 65 162 l 1,4,-1
 199 237 l 1,5,-1
 760 1020 l 1,6,-1
 580 1094 l 1,7,-1
 601 1244 l 1,8,-1
 1852 1244 l 1,9,-1
 1822 826 l 1,10,-1
 1651 852 l 1,11,-1
 1568 1072 l 1,12,-1
 1320 1072 l 1,13,-1
 1337 708 l 1,14,-1
 1469 724 l 1,15,-1
 1497 727 l 1,16,-1
 1675 749 l 1,17,-1
 1643 507 l 1,18,-1
 1477 523 l 1,19,-1
 1453 526 l 1,20,-1
 1344 536 l 1,21,-1
 1360 198 l 1,22,-1
 1626 180 l 1,23,-1
 1772 428 l 1,24,-1
 1937 411 l 1,25,-1
 1907 0 l 1,26,-1
 836 0 l 1,27,-1
 849 138 l 1,28,-1
 1012 217 l 1,29,-1
 999 443 l 1,30,-1
 597 443 l 1,31,-1
 465 243 l 1,32,-1
 646 150 l 1,33,-1
 629 -2 l 1,34,-1
 45 -2 l 1,3,-1
EndSplineSet
Colour: ffff
EndChar

StartChar: Aacute
Encoding: 193 193 2
Width: 1550
VWidth: 0
Flags: HMW
LayerCount: 2
Fore
SplineSet
733 1403 m 1,0,-1
 888 1728 l 1,1,-1
 1108 1714 l 1,2,-1
 877 1382 l 1,3,-1
 733 1403 l 1,0,-1
581 561 m 1,4,-1
 832 561 l 1,5,-1
 705 933 l 1,6,-1
 581 561 l 1,4,-1
43 0 m 1,7,-1
 62 138 l 1,8,-1
 223 241 l 1,9,-1
 611 1205 l 1,10,-1
 958 1270 l 1,11,-1
 1348 238 l 1,12,-1
 1496 145 l 1,13,-1
 1484 -2 l 1,14,-1
 759 -2 l 1,15,-1
 775 136 l 1,16,-1
 941 240 l 1,17,-1
 903 352 l 1,18,-1
 511 352 l 1,19,-1
 474 240 l 1,20,-1
 663 148 l 1,21,-1
 648 0 l 1,22,-1
 43 0 l 1,7,-1
EndSplineSet
Colour: ffff
EndChar

StartChar: Acircumflex
Encoding: 194 194 3
Width: 1550
VWidth: 0
Flags: HMW
LayerCount: 2
Fore
SplineSet
604 1402 m 1,0,-1
 775 1597 l 1,1,-1
 952 1617 l 1,2,-1
 1156 1412 l 1,3,-1
 1005 1353 l 1,4,-1
 866 1454 l 1,5,-1
 852 1454 l 1,6,-1
 749 1352 l 1,7,-1
 604 1402 l 1,0,-1
581 561 m 1,8,-1
 832 561 l 1,9,-1
 705 933 l 1,10,-1
 581 561 l 1,8,-1
43 0 m 1,11,-1
 62 138 l 1,12,-1
 223 241 l 1,13,-1
 611 1205 l 1,14,-1
 958 1270 l 1,15,-1
 1348 238 l 1,16,-1
 1496 145 l 1,17,-1
 1484 -2 l 1,18,-1
 759 -2 l 1,19,-1
 775 136 l 1,20,-1
 941 240 l 1,21,-1
 903 352 l 1,22,-1
 511 352 l 1,23,-1
 474 240 l 1,24,-1
 663 148 l 1,25,-1
 648 0 l 1,26,-1
 43 0 l 1,11,-1
EndSplineSet
Colour: ffff
EndChar

StartChar: Adieresis
Encoding: 196 196 4
Width: 1550
VWidth: 0
Flags: HMW
LayerCount: 2
Fore
SplineSet
877 1509 m 0,0,1
 877 1528 877 1528 884 1545.5 c 128,-1,2
 891 1563 891 1563 905.5 1579.5 c 128,-1,3
 920 1596 920 1596 948.5 1606 c 128,-1,4
 977 1616 977 1616 1015 1616 c 0,5,6
 1056 1616 1056 1616 1085.5 1606.5 c 128,-1,7
 1115 1597 1115 1597 1130 1580.5 c 128,-1,8
 1145 1564 1145 1564 1152 1547 c 128,-1,9
 1159 1530 1159 1530 1159 1511 c 0,10,11
 1159 1402 1159 1402 1014 1402 c 0,12,13
 877 1402 877 1402 877 1509 c 0,0,1
568 1509 m 0,14,15
 568 1528 568 1528 575 1545.5 c 128,-1,16
 582 1563 582 1563 596.5 1579.5 c 128,-1,17
 611 1596 611 1596 639.5 1606 c 128,-1,18
 668 1616 668 1616 706 1616 c 0,19,20
 747 1616 747 1616 776.5 1606.5 c 128,-1,21
 806 1597 806 1597 821 1580.5 c 128,-1,22
 836 1564 836 1564 843 1547 c 128,-1,23
 850 1530 850 1530 850 1511 c 0,24,25
 850 1402 850 1402 705 1402 c 0,26,27
 568 1402 568 1402 568 1509 c 0,14,15
581 561 m 1,28,-1
 832 561 l 1,29,-1
 705 933 l 1,30,-1
 581 561 l 1,28,-1
43 0 m 1,31,-1
 62 138 l 1,32,-1
 223 241 l 1,33,-1
 611 1205 l 1,34,-1
 958 1270 l 1,35,-1
 1348 238 l 1,36,-1
 1496 145 l 1,37,-1
 1484 -2 l 1,38,-1
 759 -2 l 1,39,-1
 775 136 l 1,40,-1
 941 240 l 1,41,-1
 903 352 l 1,42,-1
 511 352 l 1,43,-1
 474 240 l 1,44,-1
 663 148 l 1,45,-1
 648 0 l 1,46,-1
 43 0 l 1,31,-1
EndSplineSet
Colour: ffff
EndChar

StartChar: Agrave
Encoding: 192 192 5
Width: 1550
VWidth: 0
Flags: HMW
LayerCount: 2
Fore
SplineSet
525 1731 m 1,0,-1
 743 1771 l 1,1,-1
 893 1423 l 1,2,-1
 734 1392 l 1,3,-1
 525 1731 l 1,0,-1
581 561 m 1,4,-1
 832 561 l 1,5,-1
 705 933 l 1,6,-1
 581 561 l 1,4,-1
43 0 m 1,7,-1
 62 138 l 1,8,-1
 223 241 l 1,9,-1
 611 1205 l 1,10,-1
 958 1270 l 1,11,-1
 1348 238 l 1,12,-1
 1496 145 l 1,13,-1
 1484 -2 l 1,14,-1
 759 -2 l 1,15,-1
 775 136 l 1,16,-1
 941 240 l 1,17,-1
 903 352 l 1,18,-1
 511 352 l 1,19,-1
 474 240 l 1,20,-1
 663 148 l 1,21,-1
 648 0 l 1,22,-1
 43 0 l 1,7,-1
EndSplineSet
Colour: ffff
EndChar

StartChar: Aring
Encoding: 197 197 6
Width: 1550
VWidth: 0
Flags: HMW
LayerCount: 2
Fore
SplineSet
736 1547 m 0,0,1
 736 1490 736 1490 814 1490 c 0,2,3
 844 1490 844 1490 868 1505 c 128,-1,4
 892 1520 892 1520 892 1546.5 c 128,-1,5
 892 1573 892 1573 867 1589.5 c 128,-1,6
 842 1606 842 1606 808 1606 c 0,7,8
 781 1606 781 1606 758.5 1589 c 128,-1,9
 736 1572 736 1572 736 1547 c 0,0,1
546 1546 m 0,10,11
 546 1622 546 1622 614 1670.5 c 128,-1,12
 682 1719 682 1719 820 1719 c 0,13,14
 1094 1719 1094 1719 1094 1555 c 0,15,16
 1094 1521 1094 1521 1078 1490.5 c 128,-1,17
 1062 1460 1062 1460 1029 1434.5 c 128,-1,18
 996 1409 996 1409 939 1394.5 c 128,-1,19
 882 1380 882 1380 806 1380 c 0,20,21
 667 1380 667 1380 606.5 1422.5 c 128,-1,22
 546 1465 546 1465 546 1546 c 0,10,11
581 561 m 1,23,-1
 832 561 l 1,24,-1
 705 933 l 1,25,-1
 581 561 l 1,23,-1
43 0 m 1,26,-1
 62 138 l 1,27,-1
 223 241 l 1,28,-1
 611 1205 l 1,29,-1
 958 1270 l 1,30,-1
 1348 238 l 1,31,-1
 1496 145 l 1,32,-1
 1484 -2 l 1,33,-1
 759 -2 l 1,34,-1
 775 136 l 1,35,-1
 941 240 l 1,36,-1
 903 352 l 1,37,-1
 511 352 l 1,38,-1
 474 240 l 1,39,-1
 663 148 l 1,40,-1
 648 0 l 1,41,-1
 43 0 l 1,26,-1
EndSplineSet
Colour: ffff
EndChar

StartChar: Atilde
Encoding: 195 195 7
Width: 1550
VWidth: 0
Flags: HMW
LayerCount: 2
Fore
SplineSet
514 1398 m 1,0,1
 509 1435 509 1435 513.5 1473 c 128,-1,2
 518 1511 518 1511 533 1547.5 c 128,-1,3
 548 1584 548 1584 575 1609 c 128,-1,4
 602 1634 602 1634 642 1645 c 128,-1,5
 682 1656 682 1656 737 1644 c 2,6,-1
 964 1595 l 2,7,8
 984 1591 984 1591 1001.5 1604 c 128,-1,9
 1019 1617 1019 1617 1027 1633 c 2,10,-1
 1034 1648 l 1,11,-1
 1149 1637 l 1,12,13
 1148 1509 1148 1509 1083.5 1443.5 c 128,-1,14
 1019 1378 1019 1378 901 1406 c 2,15,-1
 692 1455 l 2,16,17
 668 1461 668 1461 653 1445 c 128,-1,18
 638 1429 638 1429 635 1411 c 2,19,-1
 632 1392 l 1,20,-1
 514 1398 l 1,0,1
581 561 m 1,21,-1
 832 561 l 1,22,-1
 705 933 l 1,23,-1
 581 561 l 1,21,-1
43 0 m 1,24,-1
 62 138 l 1,25,-1
 223 241 l 1,26,-1
 611 1205 l 1,27,-1
 958 1270 l 1,28,-1
 1348 238 l 1,29,-1
 1496 145 l 1,30,-1
 1484 -2 l 1,31,-1
 759 -2 l 1,32,-1
 775 136 l 1,33,-1
 941 240 l 1,34,-1
 903 352 l 1,35,-1
 511 352 l 1,36,-1
 474 240 l 1,37,-1
 663 148 l 1,38,-1
 648 0 l 1,39,-1
 43 0 l 1,24,-1
EndSplineSet
Colour: ffff
EndChar

StartChar: B
Encoding: 66 66 8
Width: 1315
VWidth: 0
Flags: HMW
LayerCount: 2
Fore
SplineSet
597 728 m 1,0,-1
 771 728 l 1,1,2
 833 802 833 802 833 897 c 0,3,4
 833 983 833 983 787 1031.5 c 128,-1,5
 741 1080 741 1080 649 1080 c 0,6,7
 629 1080 629 1080 597 1075 c 1,8,-1
 597 728 l 1,0,-1
597 186 m 1,9,-1
 709 186 l 2,10,11
 790 186 790 186 844 228.5 c 128,-1,12
 898 271 898 271 898 348 c 0,13,14
 898 442 898 442 837 501.5 c 128,-1,15
 776 561 776 561 676 561 c 2,16,-1
 597 561 l 1,17,-1
 597 186 l 1,9,-1
45 0 m 1,18,-1
 59 138 l 1,19,-1
 225 217 l 1,20,-1
 225 1008 l 1,21,-1
 56 1052 l 1,22,-1
 66 1211 l 1,23,24
 412 1257 412 1257 653 1257 c 0,25,26
 799 1257 799 1257 907 1231 c 128,-1,27
 1015 1205 1015 1205 1075 1160 c 128,-1,28
 1135 1115 1135 1115 1163 1063 c 128,-1,29
 1191 1011 1191 1011 1191 951 c 0,30,31
 1191 869 1191 869 1130.5 790 c 128,-1,32
 1070 711 1070 711 988 684 c 1,33,-1
 988 674 l 1,34,35
 1061 670 1061 670 1117.5 642 c 128,-1,36
 1174 614 1174 614 1207 571 c 128,-1,37
 1240 528 1240 528 1256.5 479 c 128,-1,38
 1273 430 1273 430 1273 379 c 0,39,40
 1273 199 1273 199 1121 99.5 c 128,-1,41
 969 0 969 0 689 0 c 2,42,-1
 45 0 l 1,18,-1
EndSplineSet
Colour: ffff
EndChar

StartChar: C
Encoding: 67 67 9
Width: 1280
VWidth: 0
Flags: HMW
LayerCount: 2
Back
SplineSet
0 619 m 4,0,1
 0 911 0 911 203.5 1090 c 0
 407 1269 407 1269 755 1269 c 0,2,3
 914 1269 914 1269 1038.5 1231.5 c 0
 1163 1194 1163 1194 1256.5 1116 c 0
 1350 1038 1350 1038 1399.5 908.5 c 0
 1449 779 1449 779 1449 603 c 0,4,5
 1449 448 1449 448 1391 326.5 c 0
 1333 205 1333 205 1229.5 128.5 c 0
 1126 52 1126 52 988 12.5 c 0
 850 -27 850 -27 685 -27 c 0,6,7
 512 -27 512 -27 380 20 c 0
 248 67 248 67 165.5 153.5 c 0
 83 240 83 240 41.5 357 c 0
 0 474 0 474 0 619 c 4,0,1
448 671 m 4,8,9
 448 630 448 630 453 582.5 c 0
 458 535 458 535 469.5 475.5 c 0
 481 416 481 416 503 362.5 c 0
 525 309 525 309 555.5 263 c 0
 586 217 586 217 633 190 c 0
 680 163 680 163 738 163 c 0,10,11
 868 163 868 163 933 262.5 c 0
 998 362 998 362 998 573 c 0,12,13
 998 609 998 609 995.5 648.5 c 0
 993 688 993 688 985 740.5 c 0
 977 793 977 793 964 840 c 0
 951 887 951 887 928.5 934.5 c 0
 906 982 906 982 877 1016.5 c 0
 848 1051 848 1051 804.5 1072.5 c 0
 761 1094 761 1094 709 1094 c 0,14,15
 572 1094 572 1094 510 985.5 c 0
 448 877 448 877 448 671 c 4,8,9
EndSplineSet
Fore
SplineSet
47 583 m 0,0,1
 47 678 47 678 67.5 768 c 128,-1,2
 88 858 88 858 143 952 c 128,-1,3
 198 1046 198 1046 281.5 1115 c 128,-1,4
 365 1184 365 1184 502 1228 c 128,-1,5
 639 1272 639 1272 814 1272 c 0,6,7
 918 1272 918 1272 1036 1244 c 128,-1,8
 1154 1216 1154 1216 1209 1172 c 1,9,-1
 1178 748 l 1,10,-1
 1008 771 l 1,11,-1
 944 1003 l 1,12,13
 911 1044 911 1044 857.5 1067 c 128,-1,14
 804 1090 804 1090 750 1090 c 0,15,16
 587 1090 587 1090 513 996.5 c 128,-1,17
 439 903 439 903 439 706 c 0,18,19
 439 205 439 205 856 205 c 0,20,21
 1037 205 1037 205 1182 313 c 1,22,-1
 1241 178 l 1,23,24
 1167 86 1167 86 1036.5 28.5 c 128,-1,25
 906 -29 906 -29 727 -29 c 0,26,27
 385 -29 385 -29 216 131 c 128,-1,28
 47 291 47 291 47 583 c 0,0,1
EndSplineSet
Colour: ffff
EndChar

StartChar: Ccedilla
Encoding: 199 199 10
Width: 1280
VWidth: 0
Flags: HMW
LayerCount: 2
Fore
SplineSet
612 -319 m 1,0,1
 670 -318 670 -318 709.5 -298.5 c 128,-1,2
 749 -279 749 -279 749 -255 c 0,3,4
 749 -241 749 -241 733.5 -227 c 128,-1,5
 718 -213 718 -213 689 -200 c 128,-1,6
 660 -187 660 -187 641.5 -180 c 128,-1,7
 623 -173 623 -173 593 -163 c 1,8,-1
 765 -28 l 1,9,10
 746 -29 746 -29 727 -29 c 0,11,12
 385 -29 385 -29 216 131 c 128,-1,13
 47 291 47 291 47 583 c 0,14,15
 47 678 47 678 67.5 768 c 128,-1,16
 88 858 88 858 143 952 c 128,-1,17
 198 1046 198 1046 281.5 1115 c 128,-1,18
 365 1184 365 1184 502 1228 c 128,-1,19
 639 1272 639 1272 814 1272 c 0,20,21
 918 1272 918 1272 1036 1244 c 128,-1,22
 1154 1216 1154 1216 1209 1172 c 1,23,-1
 1178 748 l 1,24,-1
 1008 771 l 1,25,-1
 944 1003 l 1,26,27
 911 1044 911 1044 857.5 1067 c 128,-1,28
 804 1090 804 1090 750 1090 c 0,29,30
 587 1090 587 1090 513 996.5 c 128,-1,31
 439 903 439 903 439 706 c 0,32,33
 439 205 439 205 856 205 c 0,34,35
 1037 205 1037 205 1182 313 c 1,36,-1
 1241 178 l 1,37,38
 1185 108 1185 108 1094.5 56.5 c 128,-1,39
 1004 5 1004 5 883 -16 c 1,40,-1
 955 -16 l 1,41,-1
 837 -102 l 1,42,43
 920 -109 920 -109 966 -144.5 c 128,-1,44
 1012 -180 1012 -180 1012 -245 c 0,45,46
 1012 -301 1012 -301 978 -336 c 128,-1,47
 944 -371 944 -371 863 -389 c 128,-1,48
 782 -407 782 -407 648 -407 c 1,49,-1
 612 -319 l 1,0,1
EndSplineSet
Colour: ffff
EndChar

StartChar: D
Encoding: 68 68 11
Width: 1537
VWidth: 0
Flags: HMW
LayerCount: 2
Fore
SplineSet
613 202 m 1,0,-1
 688 202 l 2,1,2
 762 202 762 202 822.5 217 c 128,-1,3
 883 232 883 232 923.5 256 c 128,-1,4
 964 280 964 280 994.5 314.5 c 128,-1,5
 1025 349 1025 349 1042 383.5 c 128,-1,6
 1059 418 1059 418 1069.5 459 c 128,-1,7
 1080 500 1080 500 1083 532 c 128,-1,8
 1086 564 1086 564 1086 598 c 0,9,10
 1086 659 1086 659 1070.5 720.5 c 128,-1,11
 1055 782 1055 782 1020 843.5 c 128,-1,12
 985 905 985 905 934 952 c 128,-1,13
 883 999 883 999 804.5 1028 c 128,-1,14
 726 1057 726 1057 631 1057 c 1,15,-1
 618 1056 l 2,16,17
 619 1056 619 1056 622 1054 c 0,18,19
 632 1051 632 1051 619 1051 c 0,20,21
 616 1051 616 1051 613 1051 c 1,22,-1
 613 202 l 1,0,-1
40 0 m 1,23,-1
 63 138 l 1,24,-1
 243 241 l 1,25,-1
 243 1003 l 1,26,-1
 70 1049 l 1,27,-1
 77 1206 l 1,28,29
 221 1229 221 1229 390.5 1243.5 c 128,-1,30
 560 1258 560 1258 670 1258 c 0,31,32
 810 1258 810 1258 926 1240.5 c 128,-1,33
 1042 1223 1042 1223 1126 1192 c 128,-1,34
 1210 1161 1210 1161 1274.5 1116 c 128,-1,35
 1339 1071 1339 1071 1379.5 1020 c 128,-1,36
 1420 969 1420 969 1445.5 906.5 c 128,-1,37
 1471 844 1471 844 1481 782.5 c 128,-1,38
 1491 721 1491 721 1491 652 c 0,39,40
 1491 524 1491 524 1431.5 406 c 128,-1,41
 1372 288 1372 288 1266.5 198 c 128,-1,42
 1161 108 1161 108 1002.5 54 c 128,-1,43
 844 0 844 0 658 0 c 2,44,-1
 40 0 l 1,23,-1
EndSplineSet
Colour: ffff
EndChar

StartChar: E
Encoding: 69 69 12
Width: 1327
VWidth: 0
Flags: HMW
LayerCount: 2
Fore
SplineSet
43 1100 m 1,0,-1
 62 1244 l 1,1,-1
 1235 1244 l 1,2,-1
 1205 826 l 1,3,-1
 1034 852 l 1,4,-1
 951 1072 l 1,5,-1
 606 1072 l 1,6,-1
 606 712 l 1,7,-1
 739 723 l 1,8,-1
 771 725 l 1,9,-1
 1025 746 l 1,10,-1
 992 470 l 1,11,-1
 751 514 l 1,12,-1
 719 520 l 1,13,-1
 606 540 l 1,14,-1
 606 210 l 1,15,-1
 969 170 l 1,16,-1
 1115 428 l 1,17,-1
 1280 411 l 1,18,-1
 1250 0 l 1,19,-1
 59 0 l 1,20,-1
 69 138 l 1,21,-1
 233 217 l 1,22,-1
 233 1030 l 1,23,-1
 43 1100 l 1,0,-1
EndSplineSet
Colour: ffff
EndChar

StartChar: Eacute
Encoding: 201 201 13
Width: 1327
VWidth: 0
Flags: HMW
LayerCount: 2
Fore
SplineSet
614 1402 m 1,0,-1
 768 1727 l 1,1,-1
 988 1713 l 1,2,-1
 758 1381 l 1,3,-1
 614 1402 l 1,0,-1
43 1100 m 1,4,-1
 62 1244 l 1,5,-1
 1235 1244 l 1,6,-1
 1205 826 l 1,7,-1
 1034 852 l 1,8,-1
 951 1072 l 1,9,-1
 606 1072 l 1,10,-1
 606 712 l 1,11,-1
 739 723 l 1,12,-1
 771 725 l 1,13,-1
 1025 746 l 1,14,-1
 992 470 l 1,15,-1
 751 514 l 1,16,-1
 719 520 l 1,17,-1
 606 540 l 1,18,-1
 606 210 l 1,19,-1
 969 170 l 1,20,-1
 1115 428 l 1,21,-1
 1280 411 l 1,22,-1
 1250 0 l 1,23,-1
 59 0 l 1,24,-1
 69 138 l 1,25,-1
 233 217 l 1,26,-1
 233 1030 l 1,27,-1
 43 1100 l 1,4,-1
EndSplineSet
Colour: ffff
EndChar

StartChar: Ecircumflex
Encoding: 202 202 14
Width: 1327
VWidth: 0
Flags: HMW
LayerCount: 2
Fore
SplineSet
494 1401 m 1,0,-1
 666 1596 l 1,1,-1
 842 1616 l 1,2,-1
 1046 1411 l 1,3,-1
 896 1352 l 1,4,-1
 756 1453 l 1,5,-1
 742 1453 l 1,6,-1
 640 1351 l 1,7,-1
 494 1401 l 1,0,-1
43 1100 m 1,8,-1
 62 1244 l 1,9,-1
 1235 1244 l 1,10,-1
 1205 826 l 1,11,-1
 1034 852 l 1,12,-1
 951 1072 l 1,13,-1
 606 1072 l 1,14,-1
 606 712 l 1,15,-1
 739 723 l 1,16,-1
 771 725 l 1,17,-1
 1025 746 l 1,18,-1
 992 470 l 1,19,-1
 751 514 l 1,20,-1
 719 520 l 1,21,-1
 606 540 l 1,22,-1
 606 210 l 1,23,-1
 969 170 l 1,24,-1
 1115 428 l 1,25,-1
 1280 411 l 1,26,-1
 1250 0 l 1,27,-1
 59 0 l 1,28,-1
 69 138 l 1,29,-1
 233 217 l 1,30,-1
 233 1030 l 1,31,-1
 43 1100 l 1,8,-1
EndSplineSet
Colour: ffff
EndChar

StartChar: Edieresis
Encoding: 203 203 15
Width: 1327
VWidth: 0
Flags: HMW
LayerCount: 2
Fore
SplineSet
781 1498 m 0,0,1
 781 1517 781 1517 787.5 1534.5 c 128,-1,2
 794 1552 794 1552 809 1568.5 c 128,-1,3
 824 1585 824 1585 852 1595 c 128,-1,4
 880 1605 880 1605 919 1605 c 0,5,6
 960 1605 960 1605 989.5 1595.5 c 128,-1,7
 1019 1586 1019 1586 1034 1569.5 c 128,-1,8
 1049 1553 1049 1553 1056 1536 c 128,-1,9
 1063 1519 1063 1519 1063 1500 c 0,10,11
 1063 1391 1063 1391 918 1391 c 0,12,13
 781 1391 781 1391 781 1498 c 0,0,1
472 1498 m 0,14,15
 472 1517 472 1517 478.5 1534.5 c 128,-1,16
 485 1552 485 1552 500 1568.5 c 128,-1,17
 515 1585 515 1585 543 1595 c 128,-1,18
 571 1605 571 1605 610 1605 c 0,19,20
 651 1605 651 1605 680.5 1595.5 c 128,-1,21
 710 1586 710 1586 725 1569.5 c 128,-1,22
 740 1553 740 1553 747 1536 c 128,-1,23
 754 1519 754 1519 754 1500 c 0,24,25
 754 1391 754 1391 609 1391 c 0,26,27
 472 1391 472 1391 472 1498 c 0,14,15
43 1100 m 1,28,-1
 62 1244 l 1,29,-1
 1235 1244 l 1,30,-1
 1205 826 l 1,31,-1
 1034 852 l 1,32,-1
 951 1072 l 1,33,-1
 606 1072 l 1,34,-1
 606 712 l 1,35,-1
 739 723 l 1,36,-1
 771 725 l 1,37,-1
 1025 746 l 1,38,-1
 992 470 l 1,39,-1
 751 514 l 1,40,-1
 719 520 l 1,41,-1
 606 540 l 1,42,-1
 606 210 l 1,43,-1
 969 170 l 1,44,-1
 1115 428 l 1,45,-1
 1280 411 l 1,46,-1
 1250 0 l 1,47,-1
 59 0 l 1,48,-1
 69 138 l 1,49,-1
 233 217 l 1,50,-1
 233 1030 l 1,51,-1
 43 1100 l 1,28,-1
EndSplineSet
Colour: ffff
EndChar

StartChar: Egrave
Encoding: 200 200 16
Width: 1327
VWidth: 0
Flags: HMW
LayerCount: 2
Fore
SplineSet
386 1730 m 1,0,-1
 604 1770 l 1,1,-1
 754 1422 l 1,2,-1
 594 1391 l 1,3,-1
 386 1730 l 1,0,-1
43 1100 m 1,4,-1
 62 1244 l 1,5,-1
 1235 1244 l 1,6,-1
 1205 826 l 1,7,-1
 1034 852 l 1,8,-1
 951 1072 l 1,9,-1
 606 1072 l 1,10,-1
 606 712 l 1,11,-1
 739 723 l 1,12,-1
 771 725 l 1,13,-1
 1025 746 l 1,14,-1
 992 470 l 1,15,-1
 751 514 l 1,16,-1
 719 520 l 1,17,-1
 606 540 l 1,18,-1
 606 210 l 1,19,-1
 969 170 l 1,20,-1
 1115 428 l 1,21,-1
 1280 411 l 1,22,-1
 1250 0 l 1,23,-1
 59 0 l 1,24,-1
 69 138 l 1,25,-1
 233 217 l 1,26,-1
 233 1030 l 1,27,-1
 43 1100 l 1,4,-1
EndSplineSet
Colour: ffff
EndChar

StartChar: Eth
Encoding: 208 208 17
Width: 1540
VWidth: 0
Flags: HMW
LayerCount: 2
Fore
SplineSet
616 202 m 1,0,-1
 691 202 l 2,1,2
 765 202 765 202 825.5 217 c 128,-1,3
 886 232 886 232 926.5 256 c 128,-1,4
 967 280 967 280 997.5 314.5 c 128,-1,5
 1028 349 1028 349 1045 383.5 c 128,-1,6
 1062 418 1062 418 1072.5 459 c 128,-1,7
 1083 500 1083 500 1086 532 c 128,-1,8
 1089 564 1089 564 1089 598 c 0,9,10
 1089 659 1089 659 1073.5 720.5 c 128,-1,11
 1058 782 1058 782 1023 843.5 c 128,-1,12
 988 905 988 905 937 952 c 128,-1,13
 886 999 886 999 807.5 1028 c 128,-1,14
 729 1057 729 1057 634 1057 c 1,15,-1
 621 1056 l 2,16,17
 622 1056 622 1056 625 1054 c 0,18,19
 635 1051 635 1051 622 1051 c 0,20,21
 619 1051 619 1051 616 1051 c 1,22,-1
 616 712 l 1,23,-1
 814 737 l 1,24,-1
 795 548 l 1,25,-1
 616 536 l 1,26,-1
 616 202 l 1,0,-1
66 483 m 1,27,-1
 81 666 l 1,28,-1
 246 680 l 1,29,-1
 246 1003 l 1,30,-1
 73 1049 l 1,31,-1
 80 1206 l 1,32,33
 224 1229 224 1229 393.5 1243.5 c 128,-1,34
 563 1258 563 1258 673 1258 c 0,35,36
 813 1258 813 1258 929 1240.5 c 128,-1,37
 1045 1223 1045 1223 1129 1192 c 128,-1,38
 1213 1161 1213 1161 1277.5 1116 c 128,-1,39
 1342 1071 1342 1071 1382.5 1020 c 128,-1,40
 1423 969 1423 969 1448.5 906.5 c 128,-1,41
 1474 844 1474 844 1484 782.5 c 128,-1,42
 1494 721 1494 721 1494 652 c 0,43,44
 1494 524 1494 524 1434.5 406 c 128,-1,45
 1375 288 1375 288 1269.5 198 c 128,-1,46
 1164 108 1164 108 1005.5 54 c 128,-1,47
 847 0 847 0 661 0 c 2,48,-1
 43 0 l 1,49,-1
 66 138 l 1,50,-1
 246 241 l 1,51,-1
 246 499 l 1,52,-1
 66 483 l 1,27,-1
EndSplineSet
Colour: ffff
EndChar

StartChar: Euro
Encoding: 8364 8364 18
Width: 1330
VWidth: 0
Flags: HMW
LayerCount: 2
Fore
SplineSet
64 655 m 1,0,-1
 80 789 l 1,1,-1
 209 789 l 1,2,3
 242 888 242 888 302 973 c 128,-1,4
 362 1058 362 1058 445.5 1124 c 128,-1,5
 529 1190 529 1190 642.5 1228 c 128,-1,6
 756 1266 756 1266 885 1266 c 0,7,8
 992 1266 992 1266 1093 1241.5 c 128,-1,9
 1194 1217 1194 1217 1260 1166 c 1,10,-1
 1233 815 l 1,11,-1
 1058 837 l 1,12,-1
 992 1027 l 1,13,14
 898 1096 898 1096 759 1096 c 0,15,16
 664 1096 664 1096 605 1021.5 c 128,-1,17
 546 947 546 947 542 789 c 1,18,-1
 991 789 l 1,19,-1
 964 655 l 1,20,-1
 551 655 l 1,21,22
 556 622 556 622 562 589 c 1,23,-1
 945 589 l 1,24,-1
 918 456 l 1,25,-1
 598 456 l 1,26,27
 620 395 620 395 648 344.5 c 128,-1,28
 676 294 676 294 712.5 252.5 c 128,-1,29
 749 211 749 211 796.5 187.5 c 128,-1,30
 844 164 844 164 897 164 c 0,31,32
 986 164 986 164 1000 188 c 1,33,-1
 1074 408 l 1,34,-1
 1250 436 l 1,35,-1
 1279 127 l 1,36,37
 1180 37 1180 37 1083.5 7 c 128,-1,38
 987 -23 987 -23 851 -23 c 0,39,40
 731 -23 731 -23 629 2 c 128,-1,41
 527 27 527 27 452 71 c 128,-1,42
 377 115 377 115 320.5 176 c 128,-1,43
 264 237 264 237 230.5 307 c 128,-1,44
 197 377 197 377 183 456 c 1,45,-1
 48 456 l 1,46,-1
 64 589 l 1,47,-1
 173 589 l 1,48,49
 174 622 174 622 178 655 c 1,50,-1
 64 655 l 1,0,-1
EndSplineSet
Colour: ffff
EndChar

StartChar: F
Encoding: 70 70 19
Width: 1272
VWidth: 0
Flags: HMW
LayerCount: 2
Fore
SplineSet
43 1100 m 1,0,-1
 62 1244 l 1,1,-1
 1230 1244 l 1,2,-1
 1171 834 l 1,3,-1
 1004 861 l 1,4,-1
 944 1072 l 1,5,-1
 608 1072 l 1,6,-1
 608 686 l 1,7,-1
 835 709 l 1,8,-1
 868 712 l 1,9,-1
 1027 728 l 1,10,-1
 994 452 l 1,11,-1
 841 477 l 1,12,-1
 799 483 l 1,13,-1
 608 514 l 1,14,-1
 608 227 l 1,15,-1
 833 143 l 1,16,-1
 817 0 l 1,17,-1
 58 0 l 1,18,-1
 74 138 l 1,19,-1
 236 217 l 1,20,-1
 236 1030 l 1,21,-1
 43 1100 l 1,0,-1
EndSplineSet
Colour: ffff
EndChar

StartChar: G
Encoding: 71 71 20
Width: 1456
VWidth: 0
Flags: HMW
LayerCount: 2
Back
SplineSet
0 619 m 4,0,1
 0 911 0 911 203.5 1090 c 0
 407 1269 407 1269 755 1269 c 0,2,3
 914 1269 914 1269 1038.5 1231.5 c 0
 1163 1194 1163 1194 1256.5 1116 c 0
 1350 1038 1350 1038 1399.5 908.5 c 0
 1449 779 1449 779 1449 603 c 0,4,5
 1449 448 1449 448 1391 326.5 c 0
 1333 205 1333 205 1229.5 128.5 c 0
 1126 52 1126 52 988 12.5 c 0
 850 -27 850 -27 685 -27 c 0,6,7
 512 -27 512 -27 380 20 c 0
 248 67 248 67 165.5 153.5 c 0
 83 240 83 240 41.5 357 c 0
 0 474 0 474 0 619 c 4,0,1
448 671 m 4,8,9
 448 630 448 630 453 582.5 c 0
 458 535 458 535 469.5 475.5 c 0
 481 416 481 416 503 362.5 c 0
 525 309 525 309 555.5 263 c 0
 586 217 586 217 633 190 c 0
 680 163 680 163 738 163 c 0,10,11
 868 163 868 163 933 262.5 c 0
 998 362 998 362 998 573 c 0,12,13
 998 609 998 609 995.5 648.5 c 0
 993 688 993 688 985 740.5 c 0
 977 793 977 793 964 840 c 0
 951 887 951 887 928.5 934.5 c 0
 906 982 906 982 877 1016.5 c 0
 848 1051 848 1051 804.5 1072.5 c 0
 761 1094 761 1094 709 1094 c 0,14,15
 572 1094 572 1094 510 985.5 c 0
 448 877 448 877 448 671 c 4,8,9
EndSplineSet
Fore
SplineSet
45 580 m 0,0,1
 45 710 45 710 88 823 c 128,-1,2
 131 936 131 936 205 1017 c 128,-1,3
 279 1098 279 1098 376.5 1156 c 128,-1,4
 474 1214 474 1214 583.5 1242.5 c 128,-1,5
 693 1271 693 1271 806 1271 c 0,6,7
 899 1271 899 1271 984 1260 c 128,-1,8
 1069 1249 1069 1249 1102 1241.5 c 128,-1,9
 1135 1234 1135 1234 1211 1210 c 2,10,-1
 1287 1185 l 1,11,-1
 1246 746 l 1,12,-1
 1058 761 l 1,13,-1
 1017 979 l 1,14,15
 967 1030 967 1030 907.5 1058.5 c 128,-1,16
 848 1087 848 1087 759 1087 c 0,17,18
 609 1087 609 1087 531 994 c 128,-1,19
 453 901 453 901 453 696 c 0,20,21
 453 465 453 465 539 322 c 128,-1,22
 625 179 625 179 769 179 c 0,23,24
 878 179 878 179 954 235 c 1,25,-1
 954 355 l 1,26,-1
 733 419 l 1,27,-1
 756 591 l 1,28,-1
 1416 591 l 1,29,-1
 1395 435 l 1,30,-1
 1290 363 l 1,31,-1
 1290 93 l 1,32,33
 1225 51 1225 51 1063.5 13.5 c 128,-1,34
 902 -24 902 -24 785 -24 c 0,35,36
 417 -24 417 -24 231 129.5 c 128,-1,37
 45 283 45 283 45 580 c 0,0,1
EndSplineSet
Colour: ffff
EndChar

StartChar: H
Encoding: 72 72 21
Width: 1668
VWidth: 0
Flags: HMW
LayerCount: 2
Fore
SplineSet
46 1094 m 1,0,-1
 71 1244 l 1,1,-1
 791 1244 l 1,2,-1
 772 1094 l 1,3,-1
 605 1027 l 1,4,-1
 605 744 l 1,5,-1
 1052 744 l 1,6,-1
 1052 1020 l 1,7,-1
 871 1094 l 1,8,-1
 888 1244 l 1,9,-1
 1616 1244 l 1,10,-1
 1597 1094 l 1,11,-1
 1429 1027 l 1,12,-1
 1429 211 l 1,13,-1
 1608 148 l 1,14,-1
 1594 0 l 1,15,-1
 871 0 l 1,16,-1
 885 138 l 1,17,-1
 1052 217 l 1,18,-1
 1052 493 l 1,19,-1
 605 493 l 1,20,-1
 605 211 l 1,21,-1
 786 148 l 1,22,-1
 768 0 l 1,23,-1
 51 0 l 1,24,-1
 63 138 l 1,25,-1
 232 217 l 1,26,-1
 232 1020 l 1,27,-1
 46 1094 l 1,0,-1
EndSplineSet
Colour: ffff
EndChar

StartChar: I
Encoding: 73 73 22
Width: 847
VWidth: 0
Flags: HMW
LayerCount: 2
Fore
SplineSet
50 1094 m 1,0,-1
 70 1244 l 1,1,-1
 797 1244 l 1,2,-1
 781 1084 l 1,3,-1
 602 1017 l 1,4,-1
 602 223 l 1,5,-1
 782 160 l 1,6,-1
 769 0 l 1,7,-1
 52 0 l 1,8,-1
 62 142 l 1,9,-1
 238 221 l 1,10,-1
 238 1020 l 1,11,-1
 50 1094 l 1,0,-1
EndSplineSet
Colour: ffff
EndChar

StartChar: Iacute
Encoding: 205 205 23
Width: 847
VWidth: 0
Flags: HMW
LayerCount: 2
Fore
SplineSet
382 1402 m 1,0,-1
 536 1727 l 1,1,-1
 756 1713 l 1,2,-1
 526 1381 l 1,3,-1
 382 1402 l 1,0,-1
50 1094 m 1,4,-1
 70 1244 l 1,5,-1
 797 1244 l 1,6,-1
 781 1084 l 1,7,-1
 602 1017 l 1,8,-1
 602 223 l 1,9,-1
 782 160 l 1,10,-1
 769 0 l 1,11,-1
 52 0 l 1,12,-1
 62 142 l 1,13,-1
 238 221 l 1,14,-1
 238 1020 l 1,15,-1
 50 1094 l 1,4,-1
EndSplineSet
Colour: ffff
EndChar

StartChar: Icircumflex
Encoding: 206 206 24
Width: 847
VWidth: 0
Flags: HMW
LayerCount: 2
Fore
SplineSet
252 1401 m 1,0,-1
 424 1596 l 1,1,-1
 600 1616 l 1,2,-1
 804 1411 l 1,3,-1
 654 1352 l 1,4,-1
 514 1453 l 1,5,-1
 500 1453 l 1,6,-1
 398 1351 l 1,7,-1
 252 1401 l 1,0,-1
50 1094 m 1,8,-1
 70 1244 l 1,9,-1
 797 1244 l 1,10,-1
 781 1084 l 1,11,-1
 602 1017 l 1,12,-1
 602 223 l 1,13,-1
 782 160 l 1,14,-1
 769 0 l 1,15,-1
 52 0 l 1,16,-1
 62 142 l 1,17,-1
 238 221 l 1,18,-1
 238 1020 l 1,19,-1
 50 1094 l 1,8,-1
EndSplineSet
Colour: ffff
EndChar

StartChar: Idieresis
Encoding: 207 207 25
Width: 847
VWidth: 0
Flags: HMW
LayerCount: 2
Fore
SplineSet
509 1498 m 0,0,1
 509 1517 509 1517 515.5 1534.5 c 128,-1,2
 522 1552 522 1552 537 1568.5 c 128,-1,3
 552 1585 552 1585 580 1595 c 128,-1,4
 608 1605 608 1605 647 1605 c 0,5,6
 688 1605 688 1605 717.5 1595.5 c 128,-1,7
 747 1586 747 1586 762 1569.5 c 128,-1,8
 777 1553 777 1553 784 1536 c 128,-1,9
 791 1519 791 1519 791 1500 c 0,10,11
 791 1391 791 1391 646 1391 c 0,12,13
 509 1391 509 1391 509 1498 c 0,0,1
200 1498 m 0,14,15
 200 1517 200 1517 206.5 1534.5 c 128,-1,16
 213 1552 213 1552 228 1568.5 c 128,-1,17
 243 1585 243 1585 271 1595 c 128,-1,18
 299 1605 299 1605 338 1605 c 0,19,20
 379 1605 379 1605 408.5 1595.5 c 128,-1,21
 438 1586 438 1586 453 1569.5 c 128,-1,22
 468 1553 468 1553 475 1536 c 128,-1,23
 482 1519 482 1519 482 1500 c 0,24,25
 482 1391 482 1391 337 1391 c 0,26,27
 200 1391 200 1391 200 1498 c 0,14,15
50 1094 m 1,28,-1
 70 1244 l 1,29,-1
 797 1244 l 1,30,-1
 781 1084 l 1,31,-1
 602 1017 l 1,32,-1
 602 223 l 1,33,-1
 782 160 l 1,34,-1
 769 0 l 1,35,-1
 52 0 l 1,36,-1
 62 142 l 1,37,-1
 238 221 l 1,38,-1
 238 1020 l 1,39,-1
 50 1094 l 1,28,-1
EndSplineSet
Colour: ffff
EndChar

StartChar: Igrave
Encoding: 204 204 26
Width: 847
VWidth: 0
Flags: HMW
LayerCount: 2
Fore
SplineSet
164 1730 m 1,0,-1
 382 1770 l 1,1,-1
 532 1422 l 1,2,-1
 372 1391 l 1,3,-1
 164 1730 l 1,0,-1
50 1094 m 1,4,-1
 70 1244 l 1,5,-1
 797 1244 l 1,6,-1
 781 1084 l 1,7,-1
 602 1017 l 1,8,-1
 602 223 l 1,9,-1
 782 160 l 1,10,-1
 769 0 l 1,11,-1
 52 0 l 1,12,-1
 62 142 l 1,13,-1
 238 221 l 1,14,-1
 238 1020 l 1,15,-1
 50 1094 l 1,4,-1
EndSplineSet
Colour: ffff
EndChar

StartChar: J
Encoding: 74 74 27
Width: 834
VWidth: 0
Flags: HMW
LayerCount: 2
Fore
SplineSet
33 -151 m 1,0,1
 134 -70 134 -70 185.5 49.5 c 128,-1,2
 237 169 237 169 237 285 c 2,3,-1
 237 1020 l 1,4,-1
 58 1094 l 1,5,-1
 77 1244 l 1,6,-1
 794 1244 l 1,7,-1
 774 1094 l 1,8,-1
 604 1027 l 1,9,-1
 604 434 l 1,10,11
 605 277 605 277 586 173.5 c 128,-1,12
 567 70 567 70 511.5 -18.5 c 128,-1,13
 456 -107 456 -107 374 -174 c 128,-1,14
 292 -241 292 -241 150 -326 c 1,15,-1
 33 -151 l 1,0,1
EndSplineSet
Colour: ffff
EndChar

StartChar: K
Encoding: 75 75 28
Width: 1600
VWidth: 0
Flags: HMW
LayerCount: 2
Back
SplineSet
-48.458 0 m 5,0,-1
 -29.8828 138.105 l 1,1,-1
 159.912 217.254 l 1,2,-1
 159.912 995.814 l 1,3,-1
 -31.498 1043.46 l 1,4,-1
 -20.1904 1202.57 l 1,5,6
 305.63 1255.06 305.63 1255.06 497.503 1255.06 c 0,7,8
 578.969 1255.06 578.969 1255.06 641.819 1253.32 c 0
 704.67 1251.57 704.67 1251.57 769.608 1246.77 c 0
 834.547 1241.97 834.547 1241.97 882.95 1233.59 c 0
 931.353 1225.21 931.353 1225.21 978.626 1211.8 c 0
 1025.9 1198.39 1025.9 1198.39 1059.07 1179.57 c 0
 1092.24 1160.75 1092.24 1160.75 1121.07 1134.93 c 0
 1149.89 1109.1 1149.89 1109.1 1167.04 1076.04 c 0
 1184.2 1042.98 1184.2 1042.98 1193.79 1000.94 c 0
 1203.38 958.894 1203.38 958.894 1203.38 907.782 c 0,9,10
 1203.38 841.454 1203.38 841.454 1177.71 780.665 c 0
 1152.05 719.877 1152.05 719.877 1110.44 676.308 c 0
 1068.82 632.739 1068.82 632.739 1018.53 602.985 c 0
 968.238 573.231 968.238 573.231 916.666 562.114 c 1,11,-1
 916.666 561.307 l 1,12,-1
 1048.31 399.779 l 2,13,14
 1058.38 387.491 1058.38 387.491 1080.46 359.898 c 0
 1102.54 332.305 1102.54 332.305 1113.68 318.734 c 0
 1124.82 305.163 1124.82 305.163 1146.26 281.123 c 0
 1167.69 257.083 1167.69 257.083 1182.58 243.667 c 0
 1197.47 230.25 1197.47 230.25 1220.53 211.749 c 0
 1243.59 193.247 1243.59 193.247 1264.5 181.972 c 0
 1285.42 170.696 1285.42 170.696 1312.37 159.72 c 0
 1339.33 148.743 1339.33 148.743 1368.13 142.144 c 2,15,-1
 1406.9 133.26 l 1,16,-1
 1376.21 2.42285 l 1,17,18
 1277.23 -27.46 1277.23 -27.46 1158.96 -27.46 c 0,19,20
 1069.25 -27.46 1069.25 -27.46 996.739 -5.70801 c 0
 924.223 16.044 924.223 16.044 869.053 58.9849 c 0
 813.883 101.926 813.883 101.926 772.857 155.511 c 0
 731.832 209.096 731.832 209.096 694.566 282.672 c 2,21,-1
 600.073 469.236 l 1,22,-1
 530.616 469.236 l 1,23,-1
 530.616 228.561 l 1,24,-1
 672.76 155.066 l 1,25,-1
 661.453 0 l 1,26,-1
 -48.458 0 l 5,0,-1
530.616 627.532 m 5,27,-1
 653.377 627.532 l 1,28,29
 731.043 645.75 731.043 645.75 769.302 695.37 c 0
 807.56 744.989 807.56 744.989 807.56 811.124 c 0,30,31
 807.56 927.94 807.56 927.94 740.144 1003.99 c 0
 672.728 1080.03 672.728 1080.03 579.259 1080.03 c 0,32,33
 554.789 1080.03 554.789 1080.03 530.616 1074.15 c 1,34,-1
 530.616 627.532 l 5,27,-1
EndSplineSet
Fore
SplineSet
676 655 m 1,0,1
 727 717 727 717 741 740 c 2,2,-1
 913 1003 l 1,3,-1
 926 1082 l 1,4,-1
 953 1244 l 1,5,-1
 1474 1244 l 1,6,-1
 1444 1094 l 1,7,-1
 1220 1000 l 1,8,-1
 988 685 l 1,9,-1
 1146 470 l 2,10,11
 1218 372 1218 372 1253 328 c 128,-1,12
 1288 284 1288 284 1335 238.5 c 128,-1,13
 1382 193 1382 193 1424.5 173 c 128,-1,14
 1467 153 1467 153 1528 139 c 2,15,-1
 1553 133 l 1,16,-1
 1521 2 l 1,17,18
 1490 -10 1490 -10 1415 -18.5 c 128,-1,19
 1340 -27 1340 -27 1301 -27 c 0,20,21
 1216 -27 1216 -27 1144.5 -1 c 128,-1,22
 1073 25 1073 25 1014 77.5 c 128,-1,23
 955 130 955 130 908 193 c 128,-1,24
 861 256 861 256 809 346 c 2,25,-1
 673 584 l 1,26,-1
 676 655 l 1,0,1
46 1094 m 1,27,-1
 78 1244 l 1,28,-1
 788 1244 l 1,29,-1
 767 1094 l 1,30,-1
 631 1000 l 1,31,-1
 631 240 l 1,32,-1
 826 148 l 1,33,-1
 814 0 l 1,34,-1
 49 0 l 1,35,-1
 65 138 l 1,36,-1
 267 241 l 1,37,-1
 267 993 l 1,38,-1
 46 1094 l 1,27,-1
EndSplineSet
Colour: ffff
EndChar

StartChar: L
Encoding: 76 76 29
Width: 1248
VWidth: 0
Flags: HMW
LayerCount: 2
Fore
SplineSet
47 0 m 1,0,-1
 63 138 l 1,1,-1
 223 217 l 1,2,-1
 223 998 l 1,3,-1
 51 1098 l 1,4,-1
 70 1245 l 1,5,-1
 813 1245 l 1,6,-1
 792 1098 l 1,7,-1
 596 1000 l 1,8,-1
 596 200 l 1,9,-1
 866 178 l 1,10,-1
 1040 453 l 1,11,-1
 1206 430 l 1,12,-1
 1159 0 l 1,13,-1
 47 0 l 1,0,-1
EndSplineSet
Colour: ffff
EndChar

StartChar: M
Encoding: 77 77 30
Width: 1897
VWidth: 0
Flags: HMW
LayerCount: 2
Fore
SplineSet
41 0 m 1,0,-1
 62 154 l 1,1,-1
 230 233 l 1,2,-1
 288 1030 l 1,3,-1
 104 1087 l 1,4,-1
 120 1244 l 1,5,-1
 737 1244 l 1,6,-1
 808 1039 l 1,7,-1
 956 543 l 1,8,-1
 1112 1041 l 1,9,-1
 1179 1244 l 1,10,-1
 1779 1244 l 1,11,-1
 1761 1087 l 1,12,-1
 1599 1033 l 1,13,-1
 1669 229 l 1,14,-1
 1845 161 l 1,15,-1
 1831 0 l 1,16,-1
 1190 0 l 1,17,-1
 1213 154 l 1,18,-1
 1325 233 l 1,19,-1
 1272 776 l 1,20,-1
 1047 31 l 1,21,-1
 764 -8 l 1,22,-1
 525 787 l 1,23,-1
 492 229 l 1,24,-1
 621 161 l 1,25,-1
 596 0 l 1,26,-1
 41 0 l 1,0,-1
EndSplineSet
Colour: ffff
EndChar

StartChar: N
Encoding: 78 78 31
Width: 1493
VWidth: 0
Flags: HMW
LayerCount: 2
Fore
SplineSet
54 1087 m 1,0,-1
 68 1244 l 1,1,-1
 508 1244 l 1,2,-1
 1040 532 l 1,3,-1
 1040 1020 l 1,4,-1
 852 1094 l 1,5,-1
 876 1244 l 1,6,-1
 1453 1244 l 1,7,-1
 1428 1094 l 1,8,-1
 1260 1027 l 1,9,-1
 1260 15 l 1,10,-1
 977 -29 l 1,11,-1
 464 619 l 1,12,-1
 464 211 l 1,13,-1
 644 148 l 1,14,-1
 631 0 l 1,15,-1
 50 0 l 1,16,-1
 60 138 l 1,17,-1
 231 217 l 1,18,-1
 231 1003 l 1,19,-1
 54 1087 l 1,0,-1
EndSplineSet
Colour: ffff
EndChar

StartChar: Ntilde
Encoding: 209 209 32
Width: 1493
VWidth: 0
Flags: HMW
LayerCount: 2
Fore
SplineSet
464 1397 m 1,0,1
 459 1434 459 1434 463.5 1472 c 128,-1,2
 468 1510 468 1510 483 1546.5 c 128,-1,3
 498 1583 498 1583 525 1608 c 128,-1,4
 552 1633 552 1633 592 1644 c 128,-1,5
 632 1655 632 1655 687 1643 c 2,6,-1
 914 1594 l 2,7,8
 934 1590 934 1590 951.5 1603 c 128,-1,9
 969 1616 969 1616 976 1632 c 2,10,-1
 984 1647 l 1,11,-1
 1099 1636 l 1,12,13
 1098 1508 1098 1508 1033 1442.5 c 128,-1,14
 968 1377 968 1377 851 1405 c 2,15,-1
 642 1454 l 2,16,17
 618 1460 618 1460 602.5 1444 c 128,-1,18
 587 1428 587 1428 584 1410 c 2,19,-1
 582 1391 l 1,20,-1
 464 1397 l 1,0,1
54 1087 m 1,21,-1
 68 1244 l 1,22,-1
 508 1244 l 1,23,-1
 1040 532 l 1,24,-1
 1040 1020 l 1,25,-1
 852 1094 l 1,26,-1
 876 1244 l 1,27,-1
 1453 1244 l 1,28,-1
 1428 1094 l 1,29,-1
 1260 1027 l 1,30,-1
 1260 15 l 1,31,-1
 977 -29 l 1,32,-1
 464 619 l 1,33,-1
 464 211 l 1,34,-1
 644 148 l 1,35,-1
 631 0 l 1,36,-1
 50 0 l 1,37,-1
 60 138 l 1,38,-1
 231 217 l 1,39,-1
 231 1003 l 1,40,-1
 54 1087 l 1,21,-1
EndSplineSet
Colour: ffff
EndChar

StartChar: O
Encoding: 79 79 33
Width: 1554
VWidth: 0
Flags: HMW
LayerCount: 2
Fore
SplineSet
494 671 m 0,0,1
 494 620 494 620 500.5 562 c 128,-1,2
 507 504 507 504 526.5 430.5 c 128,-1,3
 546 357 546 357 576 299.5 c 128,-1,4
 606 242 606 242 660 202.5 c 128,-1,5
 714 163 714 163 782 163 c 0,6,7
 913 163 913 163 978.5 262.5 c 128,-1,8
 1044 362 1044 362 1044 573 c 0,9,10
 1044 616 1044 616 1039.5 663.5 c 128,-1,11
 1035 711 1035 711 1025 773 c 128,-1,12
 1015 835 1015 835 993.5 889 c 128,-1,13
 972 943 972 943 941.5 990.5 c 128,-1,14
 911 1038 911 1038 862 1066 c 128,-1,15
 813 1094 813 1094 753 1094 c 0,16,17
 616 1094 616 1094 555 985.5 c 128,-1,18
 494 877 494 877 494 671 c 0,0,1
46 619 m 0,19,20
 46 912 46 912 248.5 1090.5 c 128,-1,21
 451 1269 451 1269 799 1269 c 0,22,23
 926 1269 926 1269 1032 1247 c 128,-1,24
 1138 1225 1138 1225 1227 1175.5 c 128,-1,25
 1316 1126 1316 1126 1377.5 1051 c 128,-1,26
 1439 976 1439 976 1473.5 865 c 128,-1,27
 1508 754 1508 754 1508 613 c 0,28,29
 1508 460 1508 460 1447.5 337.5 c 128,-1,30
 1387 215 1387 215 1281.5 136 c 128,-1,31
 1176 57 1176 57 1034.5 15 c 128,-1,32
 893 -27 893 -27 729 -27 c 0,33,34
 556 -27 556 -27 424.5 20 c 128,-1,35
 293 67 293 67 210.5 153.5 c 128,-1,36
 128 240 128 240 87 357 c 128,-1,37
 46 474 46 474 46 619 c 0,19,20
EndSplineSet
Colour: ffff
EndChar

StartChar: Oacute
Encoding: 211 211 34
Width: 1554
VWidth: 0
Flags: HMW
LayerCount: 2
Fore
SplineSet
711 1402 m 1,0,-1
 866 1727 l 1,1,-1
 1086 1713 l 1,2,-1
 855 1381 l 1,3,-1
 711 1402 l 1,0,-1
494 671 m 0,4,5
 494 620 494 620 500.5 562 c 128,-1,6
 507 504 507 504 526.5 430.5 c 128,-1,7
 546 357 546 357 576 299.5 c 128,-1,8
 606 242 606 242 660 202.5 c 128,-1,9
 714 163 714 163 782 163 c 0,10,11
 913 163 913 163 978.5 262.5 c 128,-1,12
 1044 362 1044 362 1044 573 c 0,13,14
 1044 616 1044 616 1039.5 663.5 c 128,-1,15
 1035 711 1035 711 1025 773 c 128,-1,16
 1015 835 1015 835 993.5 889 c 128,-1,17
 972 943 972 943 941.5 990.5 c 128,-1,18
 911 1038 911 1038 862 1066 c 128,-1,19
 813 1094 813 1094 753 1094 c 0,20,21
 616 1094 616 1094 555 985.5 c 128,-1,22
 494 877 494 877 494 671 c 0,4,5
46 619 m 0,23,24
 46 912 46 912 248.5 1090.5 c 128,-1,25
 451 1269 451 1269 799 1269 c 0,26,27
 926 1269 926 1269 1032 1247 c 128,-1,28
 1138 1225 1138 1225 1227 1175.5 c 128,-1,29
 1316 1126 1316 1126 1377.5 1051 c 128,-1,30
 1439 976 1439 976 1473.5 865 c 128,-1,31
 1508 754 1508 754 1508 613 c 0,32,33
 1508 460 1508 460 1447.5 337.5 c 128,-1,34
 1387 215 1387 215 1281.5 136 c 128,-1,35
 1176 57 1176 57 1034.5 15 c 128,-1,36
 893 -27 893 -27 729 -27 c 0,37,38
 556 -27 556 -27 424.5 20 c 128,-1,39
 293 67 293 67 210.5 153.5 c 128,-1,40
 128 240 128 240 87 357 c 128,-1,41
 46 474 46 474 46 619 c 0,23,24
EndSplineSet
Colour: ffff
EndChar

StartChar: Ocircumflex
Encoding: 212 212 35
Width: 1554
VWidth: 0
Flags: HMW
LayerCount: 2
Fore
SplineSet
592 1401 m 1,0,-1
 763 1596 l 1,1,-1
 940 1616 l 1,2,-1
 1144 1411 l 1,3,-1
 993 1352 l 1,4,-1
 854 1453 l 1,5,-1
 840 1453 l 1,6,-1
 737 1351 l 1,7,-1
 592 1401 l 1,0,-1
494 671 m 0,8,9
 494 620 494 620 500.5 562 c 128,-1,10
 507 504 507 504 526.5 430.5 c 128,-1,11
 546 357 546 357 576 299.5 c 128,-1,12
 606 242 606 242 660 202.5 c 128,-1,13
 714 163 714 163 782 163 c 0,14,15
 913 163 913 163 978.5 262.5 c 128,-1,16
 1044 362 1044 362 1044 573 c 0,17,18
 1044 616 1044 616 1039.5 663.5 c 128,-1,19
 1035 711 1035 711 1025 773 c 128,-1,20
 1015 835 1015 835 993.5 889 c 128,-1,21
 972 943 972 943 941.5 990.5 c 128,-1,22
 911 1038 911 1038 862 1066 c 128,-1,23
 813 1094 813 1094 753 1094 c 0,24,25
 616 1094 616 1094 555 985.5 c 128,-1,26
 494 877 494 877 494 671 c 0,8,9
46 619 m 0,27,28
 46 912 46 912 248.5 1090.5 c 128,-1,29
 451 1269 451 1269 799 1269 c 0,30,31
 926 1269 926 1269 1032 1247 c 128,-1,32
 1138 1225 1138 1225 1227 1175.5 c 128,-1,33
 1316 1126 1316 1126 1377.5 1051 c 128,-1,34
 1439 976 1439 976 1473.5 865 c 128,-1,35
 1508 754 1508 754 1508 613 c 0,36,37
 1508 460 1508 460 1447.5 337.5 c 128,-1,38
 1387 215 1387 215 1281.5 136 c 128,-1,39
 1176 57 1176 57 1034.5 15 c 128,-1,40
 893 -27 893 -27 729 -27 c 0,41,42
 556 -27 556 -27 424.5 20 c 128,-1,43
 293 67 293 67 210.5 153.5 c 128,-1,44
 128 240 128 240 87 357 c 128,-1,45
 46 474 46 474 46 619 c 0,27,28
EndSplineSet
Colour: ffff
EndChar

StartChar: Odieresis
Encoding: 214 214 36
Width: 1554
VWidth: 0
Flags: HMW
LayerCount: 2
Fore
SplineSet
878 1498 m 0,0,1
 878 1517 878 1517 885 1534.5 c 128,-1,2
 892 1552 892 1552 906.5 1568.5 c 128,-1,3
 921 1585 921 1585 949.5 1595 c 128,-1,4
 978 1605 978 1605 1016 1605 c 0,5,6
 1057 1605 1057 1605 1086.5 1595.5 c 128,-1,7
 1116 1586 1116 1586 1131 1569.5 c 128,-1,8
 1146 1553 1146 1553 1153 1536 c 128,-1,9
 1160 1519 1160 1519 1160 1500 c 0,10,11
 1160 1391 1160 1391 1015 1391 c 0,12,13
 878 1391 878 1391 878 1498 c 0,0,1
569 1498 m 0,14,15
 569 1517 569 1517 576 1534.5 c 128,-1,16
 583 1552 583 1552 597.5 1568.5 c 128,-1,17
 612 1585 612 1585 640.5 1595 c 128,-1,18
 669 1605 669 1605 707 1605 c 0,19,20
 748 1605 748 1605 777.5 1595.5 c 128,-1,21
 807 1586 807 1586 822 1569.5 c 128,-1,22
 837 1553 837 1553 844 1536 c 128,-1,23
 851 1519 851 1519 851 1500 c 0,24,25
 851 1391 851 1391 706 1391 c 0,26,27
 569 1391 569 1391 569 1498 c 0,14,15
494 671 m 0,28,29
 494 620 494 620 500.5 562 c 128,-1,30
 507 504 507 504 526.5 430.5 c 128,-1,31
 546 357 546 357 576 299.5 c 128,-1,32
 606 242 606 242 660 202.5 c 128,-1,33
 714 163 714 163 782 163 c 0,34,35
 913 163 913 163 978.5 262.5 c 128,-1,36
 1044 362 1044 362 1044 573 c 0,37,38
 1044 616 1044 616 1039.5 663.5 c 128,-1,39
 1035 711 1035 711 1025 773 c 128,-1,40
 1015 835 1015 835 993.5 889 c 128,-1,41
 972 943 972 943 941.5 990.5 c 128,-1,42
 911 1038 911 1038 862 1066 c 128,-1,43
 813 1094 813 1094 753 1094 c 0,44,45
 616 1094 616 1094 555 985.5 c 128,-1,46
 494 877 494 877 494 671 c 0,28,29
46 619 m 0,47,48
 46 912 46 912 248.5 1090.5 c 128,-1,49
 451 1269 451 1269 799 1269 c 0,50,51
 926 1269 926 1269 1032 1247 c 128,-1,52
 1138 1225 1138 1225 1227 1175.5 c 128,-1,53
 1316 1126 1316 1126 1377.5 1051 c 128,-1,54
 1439 976 1439 976 1473.5 865 c 128,-1,55
 1508 754 1508 754 1508 613 c 0,56,57
 1508 460 1508 460 1447.5 337.5 c 128,-1,58
 1387 215 1387 215 1281.5 136 c 128,-1,59
 1176 57 1176 57 1034.5 15 c 128,-1,60
 893 -27 893 -27 729 -27 c 0,61,62
 556 -27 556 -27 424.5 20 c 128,-1,63
 293 67 293 67 210.5 153.5 c 128,-1,64
 128 240 128 240 87 357 c 128,-1,65
 46 474 46 474 46 619 c 0,47,48
EndSplineSet
Colour: ffff
EndChar

StartChar: Ograve
Encoding: 210 210 37
Width: 1554
VWidth: 0
Flags: HMW
LayerCount: 2
Fore
SplineSet
553 1730 m 1,0,-1
 771 1770 l 1,1,-1
 921 1422 l 1,2,-1
 762 1391 l 1,3,-1
 553 1730 l 1,0,-1
494 671 m 0,4,5
 494 620 494 620 500.5 562 c 128,-1,6
 507 504 507 504 526.5 430.5 c 128,-1,7
 546 357 546 357 576 299.5 c 128,-1,8
 606 242 606 242 660 202.5 c 128,-1,9
 714 163 714 163 782 163 c 0,10,11
 913 163 913 163 978.5 262.5 c 128,-1,12
 1044 362 1044 362 1044 573 c 0,13,14
 1044 616 1044 616 1039.5 663.5 c 128,-1,15
 1035 711 1035 711 1025 773 c 128,-1,16
 1015 835 1015 835 993.5 889 c 128,-1,17
 972 943 972 943 941.5 990.5 c 128,-1,18
 911 1038 911 1038 862 1066 c 128,-1,19
 813 1094 813 1094 753 1094 c 0,20,21
 616 1094 616 1094 555 985.5 c 128,-1,22
 494 877 494 877 494 671 c 0,4,5
46 619 m 0,23,24
 46 912 46 912 248.5 1090.5 c 128,-1,25
 451 1269 451 1269 799 1269 c 0,26,27
 926 1269 926 1269 1032 1247 c 128,-1,28
 1138 1225 1138 1225 1227 1175.5 c 128,-1,29
 1316 1126 1316 1126 1377.5 1051 c 128,-1,30
 1439 976 1439 976 1473.5 865 c 128,-1,31
 1508 754 1508 754 1508 613 c 0,32,33
 1508 460 1508 460 1447.5 337.5 c 128,-1,34
 1387 215 1387 215 1281.5 136 c 128,-1,35
 1176 57 1176 57 1034.5 15 c 128,-1,36
 893 -27 893 -27 729 -27 c 0,37,38
 556 -27 556 -27 424.5 20 c 128,-1,39
 293 67 293 67 210.5 153.5 c 128,-1,40
 128 240 128 240 87 357 c 128,-1,41
 46 474 46 474 46 619 c 0,23,24
EndSplineSet
Colour: ffff
EndChar

StartChar: Oslash
Encoding: 216 216 38
Width: 1554
VWidth: 0
Flags: HMW
LayerCount: 2
Fore
SplineSet
46 619 m 1,0,1
 46 763 46 763 98 883 c 128,-1,2
 150 1003 150 1003 246 1088.5 c 128,-1,3
 342 1174 342 1174 483.5 1221.5 c 128,-1,4
 625 1269 625 1269 799 1269 c 0,5,6
 995 1269 995 1269 1139 1216 c 1,7,-1
 1209 1282 l 1,8,-1
 1452 1231 l 1,9,-1
 1328 1104 l 1,10,11
 1508 938 1508 938 1508 613 c 0,12,13
 1508 490 1508 490 1469 386.5 c 128,-1,14
 1430 283 1430 283 1359 207.5 c 128,-1,15
 1288 132 1288 132 1191 78.5 c 128,-1,16
 1094 25 1094 25 977 -1 c 128,-1,17
 860 -27 860 -27 729 -27 c 0,18,19
 518 -27 518 -27 368 43 c 1,20,-1
 312 -19 l 1,21,-1
 66 44 l 1,22,-1
 188 178 l 1,23,24
 44 344 44 344 46 619 c 1,0,1
571 309 m 1,25,26
 647 163 647 163 782 163 c 0,27,28
 913 163 913 163 978.5 262.5 c 128,-1,29
 1044 362 1044 362 1044 573 c 0,30,31
 1044 723 1044 723 1006 851 c 1,32,-1
 571 309 l 1,25,26
532 410 m 1,33,-1
 968 946 l 1,34,35
 892 1094 892 1094 753 1094 c 0,36,37
 683 1094 683 1094 632.5 1065 c 128,-1,38
 582 1036 582 1036 552 980 c 128,-1,39
 522 924 522 924 508 848 c 128,-1,40
 494 772 494 772 494 671 c 0,41,42
 494 536 494 536 532 410 c 1,33,-1
EndSplineSet
Colour: ffff
EndChar

StartChar: Otilde
Encoding: 213 213 39
Width: 1554
VWidth: 0
Flags: HMW
LayerCount: 2
Fore
SplineSet
486 1397 m 1,0,1
 481 1434 481 1434 485.5 1472 c 128,-1,2
 490 1510 490 1510 505 1546.5 c 128,-1,3
 520 1583 520 1583 547 1608 c 128,-1,4
 574 1633 574 1633 614 1644 c 128,-1,5
 654 1655 654 1655 709 1643 c 2,6,-1
 936 1594 l 2,7,8
 956 1590 956 1590 973.5 1603 c 128,-1,9
 991 1616 991 1616 999 1632 c 2,10,-1
 1006 1647 l 1,11,-1
 1121 1636 l 1,12,13
 1120 1508 1120 1508 1055.5 1442.5 c 128,-1,14
 991 1377 991 1377 873 1405 c 2,15,-1
 664 1454 l 2,16,17
 640 1460 640 1460 625 1444 c 128,-1,18
 610 1428 610 1428 607 1410 c 2,19,-1
 604 1391 l 1,20,-1
 486 1397 l 1,0,1
494 671 m 0,21,22
 494 620 494 620 500.5 562 c 128,-1,23
 507 504 507 504 526.5 430.5 c 128,-1,24
 546 357 546 357 576 299.5 c 128,-1,25
 606 242 606 242 660 202.5 c 128,-1,26
 714 163 714 163 782 163 c 0,27,28
 913 163 913 163 978.5 262.5 c 128,-1,29
 1044 362 1044 362 1044 573 c 0,30,31
 1044 616 1044 616 1039.5 663.5 c 128,-1,32
 1035 711 1035 711 1025 773 c 128,-1,33
 1015 835 1015 835 993.5 889 c 128,-1,34
 972 943 972 943 941.5 990.5 c 128,-1,35
 911 1038 911 1038 862 1066 c 128,-1,36
 813 1094 813 1094 753 1094 c 0,37,38
 616 1094 616 1094 555 985.5 c 128,-1,39
 494 877 494 877 494 671 c 0,21,22
46 619 m 0,40,41
 46 912 46 912 248.5 1090.5 c 128,-1,42
 451 1269 451 1269 799 1269 c 0,43,44
 926 1269 926 1269 1032 1247 c 128,-1,45
 1138 1225 1138 1225 1227 1175.5 c 128,-1,46
 1316 1126 1316 1126 1377.5 1051 c 128,-1,47
 1439 976 1439 976 1473.5 865 c 128,-1,48
 1508 754 1508 754 1508 613 c 0,49,50
 1508 460 1508 460 1447.5 337.5 c 128,-1,51
 1387 215 1387 215 1281.5 136 c 128,-1,52
 1176 57 1176 57 1034.5 15 c 128,-1,53
 893 -27 893 -27 729 -27 c 0,54,55
 556 -27 556 -27 424.5 20 c 128,-1,56
 293 67 293 67 210.5 153.5 c 128,-1,57
 128 240 128 240 87 357 c 128,-1,58
 46 474 46 474 46 619 c 0,40,41
EndSplineSet
Colour: ffff
EndChar

StartChar: P
Encoding: 80 80 40
Width: 1278
VWidth: 0
Flags: HMW
LayerCount: 2
Fore
SplineSet
42 0 m 1,0,-1
 64 138 l 1,1,-1
 251 217 l 1,2,-1
 251 1008 l 1,3,-1
 61 1052 l 1,4,-1
 74 1211 l 1,5,6
 267 1241 267 1241 403 1254 c 128,-1,7
 539 1267 539 1267 719 1267 c 0,8,9
 842 1267 842 1267 933.5 1247.5 c 128,-1,10
 1025 1228 1025 1228 1095 1184 c 128,-1,11
 1165 1140 1165 1140 1201 1063.5 c 128,-1,12
 1237 987 1237 987 1237 878 c 0,13,14
 1237 694 1237 694 1098.5 568.5 c 128,-1,15
 960 443 960 443 740 443 c 0,16,17
 706 443 706 443 659 448 c 1,18,-1
 627 622 l 1,19,-1
 648 622 l 2,20,21
 756 622 756 622 811.5 678.5 c 128,-1,22
 867 735 867 735 867 830 c 0,23,24
 867 927 867 927 817 990.5 c 128,-1,25
 767 1054 767 1054 672 1054 c 0,26,27
 645 1054 645 1054 605 1047 c 1,28,-1
 605 233 l 1,29,-1
 856 164 l 1,30,-1
 832 0 l 1,31,-1
 42 0 l 1,0,-1
EndSplineSet
Colour: ffff
EndChar

StartChar: Q
Encoding: 81 81 41
Width: 1542
VWidth: 0
Flags: HMW
LayerCount: 2
Fore
SplineSet
480 671 m 0,0,1
 480 584 480 584 503.5 498.5 c 128,-1,2
 527 413 527 413 572 338.5 c 128,-1,3
 617 264 617 264 690.5 212.5 c 128,-1,4
 764 161 764 161 856 148 c 1,5,6
 966 204 966 204 1006 306.5 c 128,-1,7
 1046 409 1046 409 1046 573 c 0,8,9
 1046 624 1046 624 1041 676 c 128,-1,10
 1036 728 1036 728 1024 789 c 128,-1,11
 1012 850 1012 850 989 902.5 c 128,-1,12
 966 955 966 955 934 999 c 128,-1,13
 902 1043 902 1043 852.5 1068.5 c 128,-1,14
 803 1094 803 1094 742 1094 c 0,15,16
 480 1094 480 1094 480 671 c 0,0,1
45 609 m 128,-1,18
 45 752 45 752 100 874.5 c 128,-1,19
 155 997 155 997 253 1084 c 128,-1,20
 351 1171 351 1171 492 1220 c 128,-1,21
 633 1269 633 1269 800 1269 c 0,22,23
 959 1269 959 1269 1084 1231.5 c 128,-1,24
 1209 1194 1209 1194 1302.5 1117.5 c 128,-1,25
 1396 1041 1396 1041 1446 916 c 128,-1,26
 1496 791 1496 791 1496 623 c 0,27,28
 1496 510 1496 510 1458.5 407.5 c 128,-1,29
 1421 305 1421 305 1356.5 228.5 c 128,-1,30
 1292 152 1292 152 1210.5 97.5 c 128,-1,31
 1129 43 1129 43 1038 16 c 1,32,33
 1120 -133 1120 -133 1473 -200 c 1,34,-1
 1452 -335 l 1,35,36
 1310 -383 1310 -383 1167 -383 c 0,37,38
 1079 -383 1079 -383 1004.5 -362.5 c 128,-1,39
 930 -342 930 -342 871.5 -301 c 128,-1,40
 813 -260 813 -260 785 -189 c 128,-1,41
 757 -118 757 -118 769 -26 c 1,42,43
 752 -27 752 -27 730 -27 c 0,44,45
 567 -27 567 -27 437 19 c 128,-1,46
 307 65 307 65 221.5 148.5 c 128,-1,47
 136 232 136 232 90.5 349 c 128,-1,17
 45 466 45 466 45 609 c 128,-1,18
EndSplineSet
Colour: ffff
EndChar

StartChar: R
Encoding: 82 82 42
Width: 1545
VWidth: 0
Flags: HMW
LayerCount: 2
Fore
SplineSet
622 668 m 1,0,-1
 775 668 l 1,1,2
 835 701 835 701 864.5 746 c 128,-1,3
 894 791 894 791 894 860 c 0,4,5
 894 949 894 949 827.5 1012 c 128,-1,6
 761 1075 761 1075 655 1075 c 0,7,8
 633 1075 633 1075 622 1074 c 1,9,-1
 622 668 l 1,0,-1
43 0 m 1,10,-1
 62 138 l 1,11,-1
 252 217 l 1,12,-1
 252 996 l 1,13,-1
 60 1043 l 1,14,-1
 72 1203 l 1,15,16
 183 1221 183 1221 391.5 1238 c 128,-1,17
 600 1255 600 1255 709 1255 c 0,18,19
 1006 1255 1006 1255 1150.5 1175.5 c 128,-1,20
 1295 1096 1295 1096 1295 908 c 0,21,22
 1295 843 1295 843 1267.5 782.5 c 128,-1,23
 1240 722 1240 722 1197 679.5 c 128,-1,24
 1154 637 1154 637 1108.5 607 c 128,-1,25
 1063 577 1063 577 1019 562 c 1,26,-1
 1019 561 l 1,27,-1
 1140 400 l 2,28,29
 1179 348 1179 348 1206 316 c 128,-1,30
 1233 284 1233 284 1274 244 c 128,-1,31
 1315 204 1315 204 1361 179 c 128,-1,32
 1407 154 1407 154 1460 142 c 2,33,-1
 1499 133 l 1,34,-1
 1468 2 l 1,35,36
 1372 -27 1372 -27 1251 -27 c 0,37,38
 1078 -27 1078 -27 970.5 52 c 128,-1,39
 863 131 863 131 786 283 c 2,40,-1
 696 459 l 1,41,-1
 622 459 l 1,42,-1
 622 229 l 1,43,-1
 765 155 l 1,44,-1
 753 0 l 1,45,-1
 43 0 l 1,10,-1
EndSplineSet
Colour: ffff
EndChar

StartChar: S
Encoding: 83 83 43
Width: 1097
VWidth: 0
Flags: HMW
LayerCount: 2
Fore
SplineSet
56 126 m 1,0,-1
 90 488 l 1,1,-1
 267 459 l 1,2,-1
 309 272 l 1,3,4
 339 229 339 229 402.5 205 c 128,-1,5
 466 181 466 181 534 181 c 0,6,7
 591 181 591 181 626 210.5 c 128,-1,8
 661 240 661 240 661 281 c 0,9,10
 661 320 661 320 628 351.5 c 128,-1,11
 595 383 595 383 542.5 407 c 128,-1,12
 490 431 490 431 426.5 455.5 c 128,-1,13
 363 480 363 480 299 514 c 128,-1,14
 235 548 235 548 182.5 591 c 128,-1,15
 130 634 130 634 97 702.5 c 128,-1,16
 64 771 64 771 64 857 c 0,17,18
 64 940 64 940 95.5 1009.5 c 128,-1,19
 127 1079 127 1079 179.5 1125.5 c 128,-1,20
 232 1172 232 1172 302 1204.5 c 128,-1,21
 372 1237 372 1237 448 1251.5 c 128,-1,22
 524 1266 524 1266 604 1266 c 0,23,24
 690 1266 690 1266 806 1238.5 c 128,-1,25
 922 1211 922 1211 958 1176 c 1,26,-1
 930 814 l 1,27,-1
 757 844 l 1,28,-1
 718 987 l 1,29,30
 686 1033 686 1033 625 1059.5 c 128,-1,31
 564 1086 564 1086 502 1086 c 0,32,33
 451 1086 451 1086 424 1060 c 128,-1,34
 397 1034 397 1034 397 990 c 0,35,36
 397 951 397 951 433.5 917.5 c 128,-1,37
 470 884 470 884 528 857.5 c 128,-1,38
 586 831 586 831 656 802.5 c 128,-1,39
 726 774 726 774 796 736.5 c 128,-1,40
 866 699 866 699 924 653 c 128,-1,41
 982 607 982 607 1018.5 537 c 128,-1,42
 1055 467 1055 467 1055 381 c 0,43,44
 1055 292 1055 292 1015.5 219.5 c 128,-1,45
 976 147 976 147 916.5 103 c 128,-1,46
 857 59 857 59 781 29.5 c 128,-1,47
 705 -0 705 -0 637 -11.5 c 128,-1,48
 569 -23 569 -23 508 -23 c 0,49,50
 341 -23 341 -23 219.5 19 c 128,-1,51
 98 61 98 61 56 126 c 1,0,-1
EndSplineSet
Colour: ffff
EndChar

StartChar: T
Encoding: 84 84 44
Width: 1358
VWidth: 0
Flags: HMW
LayerCount: 2
Fore
SplineSet
48 1244 m 1,0,-1
 1312 1244 l 1,1,-1
 1280 796 l 1,2,-1
 1097 827 l 1,3,-1
 1033 1072 l 1,4,-1
 849 1072 l 1,5,-1
 849 208 l 1,6,-1
 1051 153 l 1,7,-1
 1035 0 l 1,8,-1
 298 0 l 1,9,-1
 311 140 l 1,10,-1
 488 209 l 1,11,-1
 488 1072 l 1,12,-1
 308 1072 l 1,13,-1
 221 786 l 1,14,-1
 51 812 l 1,15,-1
 48 1244 l 1,0,-1
EndSplineSet
Colour: ffff
EndChar

StartChar: Thorn
Encoding: 222 222 45
Width: 1281
VWidth: 0
Flags: HMW
LayerCount: 2
Fore
SplineSet
50 1094 m 1,0,-1
 70 1244 l 1,1,-1
 797 1244 l 1,2,-1
 781 1084 l 1,3,-1
 602 1017 l 1,4,-1
 602 982 l 1,5,6
 663 993 663 993 721 993 c 0,7,8
 823 993 823 993 896 985.5 c 128,-1,9
 969 978 969 978 1037 956 c 128,-1,10
 1105 934 1105 934 1146 896 c 128,-1,11
 1187 858 1187 858 1211.5 795 c 128,-1,12
 1236 732 1236 732 1236 645 c 0,13,14
 1236 465 1236 465 1099.5 353.5 c 128,-1,15
 963 242 963 242 739 242 c 0,16,17
 705 242 705 242 658 247 c 1,18,-1
 626 421 l 1,19,20
 750 421 750 421 808 461 c 128,-1,21
 866 501 866 501 866 597 c 0,22,23
 866 690 866 690 817 740 c 128,-1,24
 768 790 768 790 671 790 c 0,25,26
 644 790 644 790 604 783 c 1,27,-1
 602 223 l 1,28,-1
 782 160 l 1,29,-1
 769 0 l 1,30,-1
 52 0 l 1,31,-1
 62 142 l 1,32,-1
 238 221 l 1,33,-1
 238 1020 l 1,34,-1
 50 1094 l 1,0,-1
EndSplineSet
Colour: ffff
EndChar

StartChar: U
Encoding: 85 85 46
Width: 1625
VWidth: 0
Flags: HMW
LayerCount: 2
Fore
SplineSet
39 1094 m 1,0,-1
 68 1244 l 1,1,-1
 788 1244 l 1,2,-1
 766 1094 l 1,3,-1
 601 1027 l 1,4,-1
 601 541 l 2,5,6
 601 382 601 382 679.5 307.5 c 128,-1,7
 758 233 758 233 897 233 c 0,8,9
 1017 233 1017 233 1085.5 308 c 128,-1,10
 1154 383 1154 383 1154 537 c 2,11,-1
 1154 1020 l 1,12,-1
 978 1094 l 1,13,-1
 998 1244 l 1,14,-1
 1583 1244 l 1,15,-1
 1566 1094 l 1,16,-1
 1401 1027 l 1,17,-1
 1397 565 l 2,18,19
 1391 -27 1391 -27 816 -27 c 0,20,21
 770 -27 770 -27 734.5 -25.5 c 128,-1,22
 699 -24 699 -24 649 -18.5 c 128,-1,23
 599 -13 599 -13 560.5 -3 c 128,-1,24
 522 7 522 7 476.5 25.5 c 128,-1,25
 431 44 431 44 397 69.5 c 128,-1,26
 363 95 363 95 330 134 c 128,-1,27
 297 173 297 173 276 222 c 128,-1,28
 255 271 255 271 242 338 c 128,-1,29
 229 405 229 405 229 484 c 2,30,-1
 229 1020 l 1,31,-1
 39 1094 l 1,0,-1
EndSplineSet
Colour: ffff
EndChar

StartChar: Uacute
Encoding: 218 218 47
Width: 1625
VWidth: 0
Flags: HMW
LayerCount: 2
Fore
SplineSet
844 1402 m 1,0,-1
 1000 1727 l 1,1,-1
 1220 1713 l 1,2,-1
 988 1381 l 1,3,-1
 844 1402 l 1,0,-1
39 1094 m 1,4,-1
 68 1244 l 1,5,-1
 788 1244 l 1,6,-1
 766 1094 l 1,7,-1
 601 1027 l 1,8,-1
 601 541 l 2,9,10
 601 382 601 382 679.5 307.5 c 128,-1,11
 758 233 758 233 897 233 c 0,12,13
 1017 233 1017 233 1085.5 308 c 128,-1,14
 1154 383 1154 383 1154 537 c 2,15,-1
 1154 1020 l 1,16,-1
 978 1094 l 1,17,-1
 998 1244 l 1,18,-1
 1583 1244 l 1,19,-1
 1566 1094 l 1,20,-1
 1401 1027 l 1,21,-1
 1397 565 l 2,22,23
 1391 -27 1391 -27 816 -27 c 0,24,25
 770 -27 770 -27 734.5 -25.5 c 128,-1,26
 699 -24 699 -24 649 -18.5 c 128,-1,27
 599 -13 599 -13 560.5 -3 c 128,-1,28
 522 7 522 7 476.5 25.5 c 128,-1,29
 431 44 431 44 397 69.5 c 128,-1,30
 363 95 363 95 330 134 c 128,-1,31
 297 173 297 173 276 222 c 128,-1,32
 255 271 255 271 242 338 c 128,-1,33
 229 405 229 405 229 484 c 2,34,-1
 229 1020 l 1,35,-1
 39 1094 l 1,4,-1
EndSplineSet
Colour: ffff
EndChar

StartChar: Ucircumflex
Encoding: 219 219 48
Width: 1625
VWidth: 0
Flags: HMW
LayerCount: 2
Fore
SplineSet
716 1401 m 1,0,-1
 886 1596 l 1,1,-1
 1064 1616 l 1,2,-1
 1268 1411 l 1,3,-1
 1116 1352 l 1,4,-1
 978 1453 l 1,5,-1
 964 1453 l 1,6,-1
 860 1351 l 1,7,-1
 716 1401 l 1,0,-1
39 1094 m 1,8,-1
 68 1244 l 1,9,-1
 788 1244 l 1,10,-1
 766 1094 l 1,11,-1
 601 1027 l 1,12,-1
 601 541 l 2,13,14
 601 382 601 382 679.5 307.5 c 128,-1,15
 758 233 758 233 897 233 c 0,16,17
 1017 233 1017 233 1085.5 308 c 128,-1,18
 1154 383 1154 383 1154 537 c 2,19,-1
 1154 1020 l 1,20,-1
 978 1094 l 1,21,-1
 998 1244 l 1,22,-1
 1583 1244 l 1,23,-1
 1566 1094 l 1,24,-1
 1401 1027 l 1,25,-1
 1397 565 l 2,26,27
 1391 -27 1391 -27 816 -27 c 0,28,29
 770 -27 770 -27 734.5 -25.5 c 128,-1,30
 699 -24 699 -24 649 -18.5 c 128,-1,31
 599 -13 599 -13 560.5 -3 c 128,-1,32
 522 7 522 7 476.5 25.5 c 128,-1,33
 431 44 431 44 397 69.5 c 128,-1,34
 363 95 363 95 330 134 c 128,-1,35
 297 173 297 173 276 222 c 128,-1,36
 255 271 255 271 242 338 c 128,-1,37
 229 405 229 405 229 484 c 2,38,-1
 229 1020 l 1,39,-1
 39 1094 l 1,8,-1
EndSplineSet
Colour: ffff
EndChar

StartChar: Udieresis
Encoding: 220 220 49
Width: 1625
VWidth: 0
Flags: HMW
LayerCount: 2
Fore
SplineSet
972 1498 m 0,0,1
 972 1517 972 1517 978.5 1534.5 c 128,-1,2
 985 1552 985 1552 1000 1568.5 c 128,-1,3
 1015 1585 1015 1585 1043 1595 c 128,-1,4
 1071 1605 1071 1605 1110 1605 c 0,5,6
 1151 1605 1151 1605 1180.5 1595.5 c 128,-1,7
 1210 1586 1210 1586 1225 1569.5 c 128,-1,8
 1240 1553 1240 1553 1247 1536 c 128,-1,9
 1254 1519 1254 1519 1254 1500 c 0,10,11
 1254 1391 1254 1391 1109 1391 c 0,12,13
 972 1391 972 1391 972 1498 c 0,0,1
663 1498 m 0,14,15
 663 1517 663 1517 669.5 1534.5 c 128,-1,16
 676 1552 676 1552 691 1568.5 c 128,-1,17
 706 1585 706 1585 734 1595 c 128,-1,18
 762 1605 762 1605 801 1605 c 0,19,20
 842 1605 842 1605 871.5 1595.5 c 128,-1,21
 901 1586 901 1586 916 1569.5 c 128,-1,22
 931 1553 931 1553 938 1536 c 128,-1,23
 945 1519 945 1519 945 1500 c 0,24,25
 945 1391 945 1391 800 1391 c 0,26,27
 663 1391 663 1391 663 1498 c 0,14,15
39 1094 m 1,28,-1
 68 1244 l 1,29,-1
 788 1244 l 1,30,-1
 766 1094 l 1,31,-1
 601 1027 l 1,32,-1
 601 541 l 2,33,34
 601 382 601 382 679.5 307.5 c 128,-1,35
 758 233 758 233 897 233 c 0,36,37
 1017 233 1017 233 1085.5 308 c 128,-1,38
 1154 383 1154 383 1154 537 c 2,39,-1
 1154 1020 l 1,40,-1
 978 1094 l 1,41,-1
 998 1244 l 1,42,-1
 1583 1244 l 1,43,-1
 1566 1094 l 1,44,-1
 1401 1027 l 1,45,-1
 1397 565 l 2,46,47
 1391 -27 1391 -27 816 -27 c 0,48,49
 770 -27 770 -27 734.5 -25.5 c 128,-1,50
 699 -24 699 -24 649 -18.5 c 128,-1,51
 599 -13 599 -13 560.5 -3 c 128,-1,52
 522 7 522 7 476.5 25.5 c 128,-1,53
 431 44 431 44 397 69.5 c 128,-1,54
 363 95 363 95 330 134 c 128,-1,55
 297 173 297 173 276 222 c 128,-1,56
 255 271 255 271 242 338 c 128,-1,57
 229 405 229 405 229 484 c 2,58,-1
 229 1020 l 1,59,-1
 39 1094 l 1,28,-1
EndSplineSet
Colour: ffff
EndChar

StartChar: Ugrave
Encoding: 217 217 50
Width: 1625
VWidth: 0
Flags: HMW
LayerCount: 2
Fore
SplineSet
606 1730 m 1,0,-1
 824 1770 l 1,1,-1
 974 1422 l 1,2,-1
 816 1391 l 1,3,-1
 606 1730 l 1,0,-1
39 1094 m 1,4,-1
 68 1244 l 1,5,-1
 788 1244 l 1,6,-1
 766 1094 l 1,7,-1
 601 1027 l 1,8,-1
 601 541 l 2,9,10
 601 382 601 382 679.5 307.5 c 128,-1,11
 758 233 758 233 897 233 c 0,12,13
 1017 233 1017 233 1085.5 308 c 128,-1,14
 1154 383 1154 383 1154 537 c 2,15,-1
 1154 1020 l 1,16,-1
 978 1094 l 1,17,-1
 998 1244 l 1,18,-1
 1583 1244 l 1,19,-1
 1566 1094 l 1,20,-1
 1401 1027 l 1,21,-1
 1397 565 l 2,22,23
 1391 -27 1391 -27 816 -27 c 0,24,25
 770 -27 770 -27 734.5 -25.5 c 128,-1,26
 699 -24 699 -24 649 -18.5 c 128,-1,27
 599 -13 599 -13 560.5 -3 c 128,-1,28
 522 7 522 7 476.5 25.5 c 128,-1,29
 431 44 431 44 397 69.5 c 128,-1,30
 363 95 363 95 330 134 c 128,-1,31
 297 173 297 173 276 222 c 128,-1,32
 255 271 255 271 242 338 c 128,-1,33
 229 405 229 405 229 484 c 2,34,-1
 229 1020 l 1,35,-1
 39 1094 l 1,4,-1
EndSplineSet
Colour: ffff
EndChar

StartChar: V
Encoding: 86 86 51
Width: 1555
VWidth: 0
Flags: HMW
LayerCount: 2
Fore
SplineSet
41 1087 m 1,0,-1
 61 1244 l 1,1,-1
 817 1244 l 1,2,-1
 794 1087 l 1,3,-1
 632 1027 l 1,4,-1
 867 421 l 1,5,-1
 1085 1025 l 1,6,-1
 911 1087 l 1,7,-1
 926 1244 l 1,8,-1
 1511 1244 l 1,9,-1
 1496 1087 l 1,10,-1
 1362 1027 l 1,11,-1
 968 35 l 1,12,-1
 615 -23 l 1,13,-1
 186 1025 l 1,14,-1
 41 1087 l 1,0,-1
EndSplineSet
Colour: ffff
EndChar

StartChar: W
Encoding: 87 87 52
Width: 2121
VWidth: 0
Flags: HMW
LayerCount: 2
Fore
SplineSet
43 1089 m 1,0,-1
 54 1244 l 1,1,-1
 809 1244 l 1,2,-1
 773 1081 l 1,3,-1
 620 1027 l 1,4,-1
 774 486 l 1,5,-1
 949 1200 l 1,6,-1
 1288 1240 l 1,7,-1
 1494 502 l 1,8,-1
 1647 1030 l 1,9,-1
 1480 1084 l 1,10,-1
 1501 1244 l 1,11,-1
 2080 1244 l 1,12,-1
 2055 1087 l 1,13,-1
 1923 1033 l 1,14,-1
 1588 38 l 1,15,-1
 1255 -23 l 1,16,-1
 1048 721 l 1,17,-1
 870 38 l 1,18,-1
 524 -24 l 1,19,-1
 219 1023 l 1,20,-1
 43 1089 l 1,0,-1
EndSplineSet
Colour: ffff
EndChar

StartChar: X
Encoding: 88 88 53
Width: 1439
VWidth: 0
Flags: HMW
LayerCount: 2
Back
SplineSet
1313 235 m 13,0,-1
 720 1000 l 1,1,-1
 781 1076 l 1,2,-1
 804 1244 l 1,3,-1
 210 1244 l 1,4,-1
 182 1076 l 1,5,-1
 321 1002 l 1,6,-1
 905 241 l 1,7,-1
 825 166 l 1,8,-1
 796 0 l 1,9,-1
 1420 0 l 1,10,-1
 1446 169 l 1,11,-1
 1313 235 l 13,0,-1
306 233 m 13,12,-1
 1009 1014 l 1,13,-1
 975 1084 l 1,14,-1
 1002 1244 l 1,15,-1
 1440 1244 l 1,16,-1
 1416 1087 l 1,17,-1
 1286 1015 l 1,18,-1
 600 232 l 1,19,-1
 653 167 l 1,20,-1
 622 0 l 1,21,-1
 152 0 l 1,22,-1
 177 157 l 1,23,-1
 306 233 l 13,12,-1
EndSplineSet
Fore
SplineSet
45 0 m 1,0,-1
 70 157 l 1,1,-1
 199 233 l 1,2,-1
 525 611 l 1,3,-1
 184 1012 l 1,4,-1
 58 1066 l 1,5,-1
 86 1244 l 1,6,-1
 731 1244 l 1,7,-1
 704 1076 l 1,8,-1
 613 1010 l 1,9,-1
 773 810 l 1,10,-1
 932 1014 l 1,11,-1
 818 1084 l 1,12,-1
 845 1244 l 1,13,-1
 1353 1244 l 1,14,-1
 1329 1087 l 1,15,-1
 1199 1015 l 1,16,-1
 894 665 l 1,17,-1
 1286 225 l 1,18,-1
 1389 179 l 1,19,-1
 1363 0 l 1,20,-1
 719 0 l 1,21,-1
 748 166 l 1,22,-1
 838 231 l 1,23,-1
 654 466 l 1,24,-1
 493 232 l 1,25,-1
 636 167 l 1,26,-1
 605 0 l 1,27,-1
 45 0 l 1,0,-1
EndSplineSet
Colour: ffff
EndChar

StartChar: Y
Encoding: 89 89 54
Width: 1370
VWidth: 0
Flags: HMW
LayerCount: 2
Fore
SplineSet
40 1089 m 1,0,-1
 72 1245 l 1,1,-1
 733 1245 l 1,2,-1
 705 1089 l 1,3,-1
 630 1028 l 1,4,-1
 779 739 l 1,5,-1
 930 1025 l 1,6,-1
 831 1087 l 1,7,-1
 855 1244 l 1,8,-1
 1328 1244 l 1,9,-1
 1304 1087 l 1,10,-1
 1190 1027 l 1,11,-1
 874 498 l 1,12,-1
 874 221 l 1,13,-1
 1041 140 l 1,14,-1
 1028 0 l 1,15,-1
 326 0 l 1,16,-1
 344 138 l 1,17,-1
 503 217 l 1,18,-1
 503 485 l 1,19,-1
 174 1027 l 1,20,-1
 40 1089 l 1,0,-1
EndSplineSet
Colour: ffff
EndChar

StartChar: Yacute
Encoding: 221 221 55
Width: 1370
VWidth: 0
Flags: HMW
LayerCount: 2
Fore
SplineSet
742 1402 m 1,0,-1
 896 1727 l 1,1,-1
 1116 1713 l 1,2,-1
 886 1381 l 1,3,-1
 742 1402 l 1,0,-1
40 1089 m 1,4,-1
 72 1245 l 1,5,-1
 733 1245 l 1,6,-1
 705 1089 l 1,7,-1
 630 1028 l 1,8,-1
 779 739 l 1,9,-1
 930 1025 l 1,10,-1
 831 1087 l 1,11,-1
 855 1244 l 1,12,-1
 1328 1244 l 1,13,-1
 1304 1087 l 1,14,-1
 1190 1027 l 1,15,-1
 874 498 l 1,16,-1
 874 221 l 1,17,-1
 1041 140 l 1,18,-1
 1028 0 l 1,19,-1
 326 0 l 1,20,-1
 344 138 l 1,21,-1
 503 217 l 1,22,-1
 503 485 l 1,23,-1
 174 1027 l 1,24,-1
 40 1089 l 1,4,-1
EndSplineSet
Colour: ffff
EndChar

StartChar: Z
Encoding: 90 90 56
Width: 1173
VWidth: 0
Flags: HMW
LayerCount: 2
Fore
SplineSet
51 236 m 1,0,-1
 682 1069 l 1,1,-1
 342 1069 l 1,2,-1
 279 812 l 1,3,-1
 79 844 l 1,4,-1
 90 1244 l 1,5,-1
 1121 1244 l 1,6,-1
 1113 1089 l 1,7,-1
 428 206 l 1,8,-1
 786 176 l 1,9,-1
 973 457 l 1,10,-1
 1123 434 l 1,11,-1
 1062 0 l 1,12,-1
 64 0 l 1,13,-1
 51 236 l 1,0,-1
EndSplineSet
Colour: ffff
EndChar

StartChar: a
Encoding: 97 97 57
Width: 990
VWidth: 0
Flags: HMW
LayerCount: 2
Back
SplineSet
0 188 m 4,0,1
 0 328 0 328 122 420.5 c 0
 244 513 244 513 458 512 c 1,2,-1
 458 607 l 2,3,4
 458 671 458 671 421.5 708.5 c 0
 385 746 385 746 343 746 c 0,5,6
 301 746 301 746 279 707 c 0
 257 668 257 668 239 568 c 1,7,8
 164 556 164 556 99 594 c 0
 34 632 34 632 34 713 c 0,9,10
 34 775 34 775 117 831.5 c 0
 200 888 200 888 302.5 918 c 0
 405 948 405 948 481 948 c 0,11,12
 565 948 565 948 620.5 930.5 c 0
 676 913 676 913 708 873.5 c 0
 740 834 740 834 753 779 c 0
 766 724 766 724 766 641 c 2,13,-1
 766 374 l 2,14,15
 766 299 766 299 792.5 269.5 c 0
 819 240 819 240 904 213 c 2,16,-1
 932 204 l 1,17,-1
 907 34 l 1,18,19
 843 4 843 4 791 -10 c 0
 739 -24 739 -24 671 -24 c 0,20,21
 519 -24 519 -24 469 106 c 2,22,-1
 464 119 l 1,23,-1
 451 125 l 1,24,25
 428 65 428 65 354 21 c 0
 280 -23 280 -23 201 -23 c 0,26,27
 117 -23 117 -23 58.5 31 c 0
 0 85 0 85 0 188 c 4,0,1
458 234 m 5,28,-1
 458 398 l 1,29,30
 374 388 374 388 335 353 c 0
 296 318 296 318 296 279 c 0,31,32
 296 248 296 248 317.5 226.5 c 0
 339 205 339 205 376 205 c 0,33,34
 417 205 417 205 458 234 c 5,28,-1
EndSplineSet
Fore
SplineSet
348 279 m 0,0,1
 348 248 348 248 369.5 226.5 c 128,-1,2
 391 205 391 205 428 205 c 0,3,4
 469 205 469 205 510 234 c 1,5,-1
 510 398 l 1,6,7
 426 388 426 388 387 353 c 128,-1,8
 348 318 348 318 348 279 c 0,0,1
52 188 m 0,9,10
 52 328 52 328 174.5 420.5 c 128,-1,11
 297 513 297 513 510 512 c 1,12,-1
 510 607 l 2,13,14
 510 676 510 676 473 723 c 128,-1,15
 436 770 436 770 384 770 c 0,16,17
 348 770 348 770 329.5 722.5 c 128,-1,18
 311 675 311 675 302 552 c 1,19,20
 252 552 252 552 216.5 557 c 128,-1,21
 181 562 181 562 149.5 575.5 c 128,-1,22
 118 589 118 589 102 615.5 c 128,-1,23
 86 642 86 642 86 683 c 0,24,25
 86 739 86 739 157 802 c 128,-1,26
 228 865 228 865 336.5 907 c 128,-1,27
 445 949 445 949 546 949 c 0,28,29
 668 949 668 949 743 876 c 128,-1,30
 818 803 818 803 818 641 c 2,31,-1
 818 374 l 2,32,33
 818 285 818 285 835 254.5 c 128,-1,34
 852 224 852 224 916 210 c 2,35,-1
 944 204 l 1,36,-1
 919 34 l 1,37,38
 916 32 916 32 912 30 c 2,39,-1
 894.5 19.5 l 2,40,41
 881 11 881 11 868 4 c 128,-1,42
 855 -3 855 -3 850 -4.5 c 128,-1,43
 845 -6 845 -6 832.5 -11 c 128,-1,44
 820 -16 820 -16 811.5 -17 c 128,-1,45
 803 -18 803 -18 790 -20.5 c 128,-1,46
 777 -23 777 -23 763 -23.5 c 128,-1,47
 749 -24 749 -24 733 -24 c 0,48,49
 656 -24 656 -24 616.5 8 c 128,-1,50
 577 40 577 40 551 106 c 2,51,-1
 546 119 l 1,52,-1
 533 125 l 1,53,54
 511 66 511 66 432 21.5 c 128,-1,55
 353 -23 353 -23 273 -23 c 0,56,57
 169 -23 169 -23 110.5 29.5 c 128,-1,58
 52 82 52 82 52 188 c 0,9,10
EndSplineSet
Colour: ffff
EndChar

StartChar: aacute
Encoding: 225 225 58
Width: 990
VWidth: 0
Flags: HMW
LayerCount: 2
Fore
SplineSet
419 1084 m 1,0,-1
 574 1409 l 1,1,-1
 794 1395 l 1,2,-1
 563 1063 l 1,3,-1
 419 1084 l 1,0,-1
348 279 m 0,4,5
 348 248 348 248 369.5 226.5 c 128,-1,6
 391 205 391 205 428 205 c 0,7,8
 469 205 469 205 510 234 c 1,9,-1
 510 398 l 1,10,11
 426 388 426 388 387 353 c 128,-1,12
 348 318 348 318 348 279 c 0,4,5
52 188 m 0,13,14
 52 328 52 328 174.5 420.5 c 128,-1,15
 297 513 297 513 510 512 c 1,16,-1
 510 607 l 2,17,18
 510 676 510 676 473 723 c 128,-1,19
 436 770 436 770 384 770 c 0,20,21
 348 770 348 770 329.5 722.5 c 128,-1,22
 311 675 311 675 302 552 c 1,23,24
 252 552 252 552 216.5 557 c 128,-1,25
 181 562 181 562 149.5 575.5 c 128,-1,26
 118 589 118 589 102 615.5 c 128,-1,27
 86 642 86 642 86 683 c 0,28,29
 86 739 86 739 157 802 c 128,-1,30
 228 865 228 865 336.5 907 c 128,-1,31
 445 949 445 949 546 949 c 0,32,33
 668 949 668 949 743 876 c 128,-1,34
 818 803 818 803 818 641 c 2,35,-1
 818 374 l 2,36,37
 818 285 818 285 835 254.5 c 128,-1,38
 852 224 852 224 916 210 c 2,39,-1
 944 204 l 1,40,-1
 919 34 l 1,41,42
 916 32 916 32 912 30 c 2,43,-1
 894.5 19.5 l 2,44,45
 881 11 881 11 868 4 c 128,-1,46
 855 -3 855 -3 850 -4.5 c 128,-1,47
 845 -6 845 -6 832.5 -11 c 128,-1,48
 820 -16 820 -16 811.5 -17 c 128,-1,49
 803 -18 803 -18 790 -20.5 c 128,-1,50
 777 -23 777 -23 763 -23.5 c 128,-1,51
 749 -24 749 -24 733 -24 c 0,52,53
 656 -24 656 -24 616.5 8 c 128,-1,54
 577 40 577 40 551 106 c 2,55,-1
 546 119 l 1,56,-1
 533 125 l 1,57,58
 511 66 511 66 432 21.5 c 128,-1,59
 353 -23 353 -23 273 -23 c 0,60,61
 169 -23 169 -23 110.5 29.5 c 128,-1,62
 52 82 52 82 52 188 c 0,13,14
EndSplineSet
Colour: ffff
EndChar

StartChar: acircumflex
Encoding: 226 226 59
Width: 990
VWidth: 0
Flags: HMW
LayerCount: 2
Fore
SplineSet
286 1083 m 1,0,-1
 457 1278 l 1,1,-1
 634 1298 l 1,2,-1
 838 1093 l 1,3,-1
 687 1034 l 1,4,-1
 548 1135 l 1,5,-1
 534 1135 l 1,6,-1
 431 1033 l 1,7,-1
 286 1083 l 1,0,-1
348 279 m 0,8,9
 348 248 348 248 369.5 226.5 c 128,-1,10
 391 205 391 205 428 205 c 0,11,12
 469 205 469 205 510 234 c 1,13,-1
 510 398 l 1,14,15
 426 388 426 388 387 353 c 128,-1,16
 348 318 348 318 348 279 c 0,8,9
52 188 m 0,17,18
 52 328 52 328 174.5 420.5 c 128,-1,19
 297 513 297 513 510 512 c 1,20,-1
 510 607 l 2,21,22
 510 676 510 676 473 723 c 128,-1,23
 436 770 436 770 384 770 c 0,24,25
 348 770 348 770 329.5 722.5 c 128,-1,26
 311 675 311 675 302 552 c 1,27,28
 252 552 252 552 216.5 557 c 128,-1,29
 181 562 181 562 149.5 575.5 c 128,-1,30
 118 589 118 589 102 615.5 c 128,-1,31
 86 642 86 642 86 683 c 0,32,33
 86 739 86 739 157 802 c 128,-1,34
 228 865 228 865 336.5 907 c 128,-1,35
 445 949 445 949 546 949 c 0,36,37
 668 949 668 949 743 876 c 128,-1,38
 818 803 818 803 818 641 c 2,39,-1
 818 374 l 2,40,41
 818 285 818 285 835 254.5 c 128,-1,42
 852 224 852 224 916 210 c 2,43,-1
 944 204 l 1,44,-1
 919 34 l 1,45,46
 916 32 916 32 912 30 c 2,47,-1
 894.5 19.5 l 2,48,49
 881 11 881 11 868 4 c 128,-1,50
 855 -3 855 -3 850 -4.5 c 128,-1,51
 845 -6 845 -6 832.5 -11 c 128,-1,52
 820 -16 820 -16 811.5 -17 c 128,-1,53
 803 -18 803 -18 790 -20.5 c 128,-1,54
 777 -23 777 -23 763 -23.5 c 128,-1,55
 749 -24 749 -24 733 -24 c 0,56,57
 656 -24 656 -24 616.5 8 c 128,-1,58
 577 40 577 40 551 106 c 2,59,-1
 546 119 l 1,60,-1
 533 125 l 1,61,62
 511 66 511 66 432 21.5 c 128,-1,63
 353 -23 353 -23 273 -23 c 0,64,65
 169 -23 169 -23 110.5 29.5 c 128,-1,66
 52 82 52 82 52 188 c 0,17,18
EndSplineSet
Colour: ffff
EndChar

StartChar: acute
Encoding: 180 180 60
Width: 524
VWidth: 0
Flags: HMW
LayerCount: 2
Fore
SplineSet
75 1389 m 1,0,-1
 230 1714 l 1,1,-1
 450 1700 l 1,2,-1
 219 1368 l 1,3,-1
 75 1389 l 1,0,-1
EndSplineSet
Colour: ffff
EndChar

StartChar: adieresis
Encoding: 228 228 61
Width: 990
VWidth: 0
Flags: HMW
LayerCount: 2
Fore
SplineSet
556 1180 m 0,0,1
 556 1199 556 1199 563 1216.5 c 128,-1,2
 570 1234 570 1234 584.5 1250.5 c 128,-1,3
 599 1267 599 1267 627.5 1277 c 128,-1,4
 656 1287 656 1287 694 1287 c 0,5,6
 735 1287 735 1287 764.5 1277.5 c 128,-1,7
 794 1268 794 1268 809 1251.5 c 128,-1,8
 824 1235 824 1235 831 1218 c 128,-1,9
 838 1201 838 1201 838 1182 c 0,10,11
 838 1073 838 1073 693 1073 c 0,12,13
 556 1073 556 1073 556 1180 c 0,0,1
247 1180 m 0,14,15
 247 1199 247 1199 254 1216.5 c 128,-1,16
 261 1234 261 1234 275.5 1250.5 c 128,-1,17
 290 1267 290 1267 318.5 1277 c 128,-1,18
 347 1287 347 1287 385 1287 c 0,19,20
 426 1287 426 1287 455.5 1277.5 c 128,-1,21
 485 1268 485 1268 500 1251.5 c 128,-1,22
 515 1235 515 1235 522 1218 c 128,-1,23
 529 1201 529 1201 529 1182 c 0,24,25
 529 1073 529 1073 384 1073 c 0,26,27
 247 1073 247 1073 247 1180 c 0,14,15
348 279 m 0,28,29
 348 248 348 248 369.5 226.5 c 128,-1,30
 391 205 391 205 428 205 c 0,31,32
 469 205 469 205 510 234 c 1,33,-1
 510 398 l 1,34,35
 426 388 426 388 387 353 c 128,-1,36
 348 318 348 318 348 279 c 0,28,29
52 188 m 0,37,38
 52 328 52 328 174.5 420.5 c 128,-1,39
 297 513 297 513 510 512 c 1,40,-1
 510 607 l 2,41,42
 510 676 510 676 473 723 c 128,-1,43
 436 770 436 770 384 770 c 0,44,45
 348 770 348 770 329.5 722.5 c 128,-1,46
 311 675 311 675 302 552 c 1,47,48
 252 552 252 552 216.5 557 c 128,-1,49
 181 562 181 562 149.5 575.5 c 128,-1,50
 118 589 118 589 102 615.5 c 128,-1,51
 86 642 86 642 86 683 c 0,52,53
 86 739 86 739 157 802 c 128,-1,54
 228 865 228 865 336.5 907 c 128,-1,55
 445 949 445 949 546 949 c 0,56,57
 668 949 668 949 743 876 c 128,-1,58
 818 803 818 803 818 641 c 2,59,-1
 818 374 l 2,60,61
 818 285 818 285 835 254.5 c 128,-1,62
 852 224 852 224 916 210 c 2,63,-1
 944 204 l 1,64,-1
 919 34 l 1,65,66
 916 32 916 32 912 30 c 2,67,-1
 894.5 19.5 l 2,68,69
 881 11 881 11 868 4 c 128,-1,70
 855 -3 855 -3 850 -4.5 c 128,-1,71
 845 -6 845 -6 832.5 -11 c 128,-1,72
 820 -16 820 -16 811.5 -17 c 128,-1,73
 803 -18 803 -18 790 -20.5 c 128,-1,74
 777 -23 777 -23 763 -23.5 c 128,-1,75
 749 -24 749 -24 733 -24 c 0,76,77
 656 -24 656 -24 616.5 8 c 128,-1,78
 577 40 577 40 551 106 c 2,79,-1
 546 119 l 1,80,-1
 533 125 l 1,81,82
 511 66 511 66 432 21.5 c 128,-1,83
 353 -23 353 -23 273 -23 c 0,84,85
 169 -23 169 -23 110.5 29.5 c 128,-1,86
 52 82 52 82 52 188 c 0,37,38
EndSplineSet
Colour: ffff
EndChar

StartChar: ae
Encoding: 230 230 62
Width: 1394
VWidth: 0
Flags: HMW
LayerCount: 2
Fore
SplineSet
823 516 m 1,0,-1
 993 531 l 1,1,2
 999 549 999 549 999 605 c 0,3,4
 999 662 999 662 979 702.5 c 128,-1,5
 959 743 959 743 916 743 c 0,6,7
 820 743 820 743 823 516 c 1,0,-1
347 279 m 0,8,9
 347 248 347 248 368.5 227 c 128,-1,10
 390 206 390 206 427 206 c 0,11,12
 470 206 470 206 509 234 c 1,13,-1
 509 398 l 1,14,15
 425 388 425 388 386 353 c 128,-1,16
 347 318 347 318 347 279 c 0,8,9
51 188 m 0,17,18
 51 328 51 328 173 420.5 c 128,-1,19
 295 513 295 513 509 512 c 1,20,-1
 509 607 l 2,21,22
 509 671 509 671 472.5 708.5 c 128,-1,23
 436 746 436 746 394 746 c 128,-1,24
 352 746 352 746 330 707 c 128,-1,25
 308 668 308 668 290 568 c 1,26,27
 215 556 215 556 150 594 c 128,-1,28
 85 632 85 632 85 713 c 0,29,30
 85 775 85 775 168 831.5 c 128,-1,31
 251 888 251 888 353.5 918 c 128,-1,32
 456 948 456 948 532 948 c 0,33,34
 687 948 687 948 752 882 c 1,35,36
 865 950 865 950 989 950 c 0,37,38
 1149 950 1149 950 1237 847.5 c 128,-1,39
 1325 745 1325 745 1325 580 c 0,40,41
 1325 558 1325 558 1317 492.5 c 128,-1,42
 1309 427 1309 427 1304 401 c 1,43,-1
 826 397 l 1,44,45
 832 300 832 300 898.5 249.5 c 128,-1,46
 965 199 965 199 1076 199 c 0,47,48
 1227 199 1227 199 1324 255 c 1,49,-1
 1343 122 l 1,50,51
 1300 65 1300 65 1222 29 c 128,-1,52
 1144 -7 1144 -7 1072 -19 c 128,-1,53
 1000 -31 1000 -31 926 -31 c 0,54,55
 792 -31 792 -31 711 14.5 c 128,-1,56
 630 60 630 60 574 141 c 1,57,58
 487 -23 487 -23 252 -23 c 0,59,60
 168 -23 168 -23 109.5 31 c 128,-1,61
 51 85 51 85 51 188 c 0,17,18
EndSplineSet
Colour: ffff
EndChar

StartChar: agrave
Encoding: 224 224 63
Width: 990
VWidth: 0
Flags: HMW
LayerCount: 2
Fore
SplineSet
205 1412 m 1,0,-1
 423 1452 l 1,1,-1
 573 1104 l 1,2,-1
 414 1073 l 1,3,-1
 205 1412 l 1,0,-1
348 279 m 0,4,5
 348 248 348 248 369.5 226.5 c 128,-1,6
 391 205 391 205 428 205 c 0,7,8
 469 205 469 205 510 234 c 1,9,-1
 510 398 l 1,10,11
 426 388 426 388 387 353 c 128,-1,12
 348 318 348 318 348 279 c 0,4,5
52 188 m 0,13,14
 52 328 52 328 174.5 420.5 c 128,-1,15
 297 513 297 513 510 512 c 1,16,-1
 510 607 l 2,17,18
 510 676 510 676 473 723 c 128,-1,19
 436 770 436 770 384 770 c 0,20,21
 348 770 348 770 329.5 722.5 c 128,-1,22
 311 675 311 675 302 552 c 1,23,24
 252 552 252 552 216.5 557 c 128,-1,25
 181 562 181 562 149.5 575.5 c 128,-1,26
 118 589 118 589 102 615.5 c 128,-1,27
 86 642 86 642 86 683 c 0,28,29
 86 739 86 739 157 802 c 128,-1,30
 228 865 228 865 336.5 907 c 128,-1,31
 445 949 445 949 546 949 c 0,32,33
 668 949 668 949 743 876 c 128,-1,34
 818 803 818 803 818 641 c 2,35,-1
 818 374 l 2,36,37
 818 285 818 285 835 254.5 c 128,-1,38
 852 224 852 224 916 210 c 2,39,-1
 944 204 l 1,40,-1
 919 34 l 1,41,42
 916 32 916 32 912 30 c 2,43,-1
 894.5 19.5 l 2,44,45
 881 11 881 11 868 4 c 128,-1,46
 855 -3 855 -3 850 -4.5 c 128,-1,47
 845 -6 845 -6 832.5 -11 c 128,-1,48
 820 -16 820 -16 811.5 -17 c 128,-1,49
 803 -18 803 -18 790 -20.5 c 128,-1,50
 777 -23 777 -23 763 -23.5 c 128,-1,51
 749 -24 749 -24 733 -24 c 0,52,53
 656 -24 656 -24 616.5 8 c 128,-1,54
 577 40 577 40 551 106 c 2,55,-1
 546 119 l 1,56,-1
 533 125 l 1,57,58
 511 66 511 66 432 21.5 c 128,-1,59
 353 -23 353 -23 273 -23 c 0,60,61
 169 -23 169 -23 110.5 29.5 c 128,-1,62
 52 82 52 82 52 188 c 0,13,14
EndSplineSet
Colour: ffff
EndChar

StartChar: ampersand
Encoding: 38 38 64
Width: 1480
VWidth: 0
Flags: HMW
LayerCount: 2
Fore
SplineSet
511 1029 m 0,0,1
 511 964 511 964 625 846 c 1,2,3
 662 902 662 902 662 973 c 0,4,5
 662 1036 662 1036 636.5 1069 c 128,-1,6
 611 1102 611 1102 577 1102 c 0,7,8
 550 1102 550 1102 530.5 1082 c 128,-1,9
 511 1062 511 1062 511 1029 c 0,0,1
383 393 m 0,10,11
 383 314 383 314 431.5 259 c 128,-1,12
 480 204 480 204 548 204 c 0,13,14
 629 204 629 204 702 293 c 1,15,-1
 473 546 l 1,16,-1
 464 550 l 1,17,18
 383 484 383 484 383 393 c 0,10,11
51 280 m 0,19,20
 51 333 51 333 62.5 378.5 c 128,-1,21
 74 424 74 424 98 460.5 c 128,-1,22
 122 497 122 497 147 525 c 128,-1,23
 172 553 172 553 212 579.5 c 128,-1,24
 252 606 252 606 283 623.5 c 128,-1,25
 314 641 314 641 360 664 c 1,26,27
 303 716 303 716 272.5 792 c 128,-1,28
 242 868 242 868 242 935 c 0,29,30
 242 1013 242 1013 276.5 1078.5 c 128,-1,31
 311 1144 311 1144 367.5 1185.5 c 128,-1,32
 424 1227 424 1227 492 1250 c 128,-1,33
 560 1273 560 1273 630 1273 c 0,34,35
 747 1273 747 1273 827.5 1208.5 c 128,-1,36
 908 1144 908 1144 908 1024 c 0,37,38
 908 919 908 919 868.5 852 c 128,-1,39
 829 785 829 785 753 731 c 1,40,-1
 753 715 l 1,41,-1
 899 563 l 1,42,-1
 1029 741 l 1,43,-1
 948 780 l 1,44,-1
 972 940 l 1,45,-1
 1437 940 l 1,46,-1
 1415 780 l 1,47,-1
 1241 722 l 1,48,-1
 1028 429 l 1,49,50
 1240 208 1240 208 1340 162 c 2,51,-1
 1386 141 l 1,52,-1
 1356 6 l 1,53,54
 1334 -1 1334 -1 1273.5 -9.5 c 128,-1,55
 1213 -18 1213 -18 1175 -18 c 0,56,57
 990 -18 990 -18 862 120 c 2,58,-1
 828 157 l 1,59,60
 754 68 754 68 647.5 19.5 c 128,-1,61
 541 -29 541 -29 430 -29 c 0,62,63
 366 -29 366 -29 314 -21.5 c 128,-1,64
 262 -14 262 -14 211.5 6.5 c 128,-1,65
 161 27 161 27 127 60.5 c 128,-1,66
 93 94 93 94 72 150 c 128,-1,67
 51 206 51 206 51 280 c 0,19,20
EndSplineSet
Colour: ffff
EndChar

StartChar: aring
Encoding: 229 229 65
Width: 990
VWidth: 0
Flags: HMW
LayerCount: 2
Fore
SplineSet
424 1240 m 0,0,1
 424 1183 424 1183 502 1183 c 0,2,3
 532 1183 532 1183 555 1198 c 128,-1,4
 578 1213 578 1213 578 1240 c 128,-1,5
 578 1267 578 1267 554 1283 c 128,-1,6
 530 1299 530 1299 496 1299 c 0,7,8
 469 1299 469 1299 446.5 1282 c 128,-1,9
 424 1265 424 1265 424 1240 c 0,0,1
232 1239 m 0,10,11
 232 1315 232 1315 300 1363.5 c 128,-1,12
 368 1412 368 1412 506 1412 c 0,13,14
 782 1412 782 1412 782 1248 c 0,15,16
 782 1214 782 1214 765.5 1183.5 c 128,-1,17
 749 1153 749 1153 716 1127.5 c 128,-1,18
 683 1102 683 1102 625.5 1087.5 c 128,-1,19
 568 1073 568 1073 492 1073 c 0,20,21
 353 1073 353 1073 292.5 1115.5 c 128,-1,22
 232 1158 232 1158 232 1239 c 0,10,11
348 279 m 0,23,24
 348 248 348 248 369.5 226.5 c 128,-1,25
 391 205 391 205 428 205 c 0,26,27
 469 205 469 205 510 234 c 1,28,-1
 510 398 l 1,29,30
 426 388 426 388 387 353 c 128,-1,31
 348 318 348 318 348 279 c 0,23,24
52 188 m 0,32,33
 52 328 52 328 174.5 420.5 c 128,-1,34
 297 513 297 513 510 512 c 1,35,-1
 510 607 l 2,36,37
 510 676 510 676 473 723 c 128,-1,38
 436 770 436 770 384 770 c 0,39,40
 348 770 348 770 329.5 722.5 c 128,-1,41
 311 675 311 675 302 552 c 1,42,43
 252 552 252 552 216.5 557 c 128,-1,44
 181 562 181 562 149.5 575.5 c 128,-1,45
 118 589 118 589 102 615.5 c 128,-1,46
 86 642 86 642 86 683 c 0,47,48
 86 739 86 739 157 802 c 128,-1,49
 228 865 228 865 336.5 907 c 128,-1,50
 445 949 445 949 546 949 c 0,51,52
 668 949 668 949 743 876 c 128,-1,53
 818 803 818 803 818 641 c 2,54,-1
 818 374 l 2,55,56
 818 285 818 285 835 254.5 c 128,-1,57
 852 224 852 224 916 210 c 2,58,-1
 944 204 l 1,59,-1
 919 34 l 1,60,61
 916 32 916 32 912 30 c 2,62,-1
 894.5 19.5 l 2,63,64
 881 11 881 11 868 4 c 128,-1,65
 855 -3 855 -3 850 -4.5 c 128,-1,66
 845 -6 845 -6 832.5 -11 c 128,-1,67
 820 -16 820 -16 811.5 -17 c 128,-1,68
 803 -18 803 -18 790 -20.5 c 128,-1,69
 777 -23 777 -23 763 -23.5 c 128,-1,70
 749 -24 749 -24 733 -24 c 0,71,72
 656 -24 656 -24 616.5 8 c 128,-1,73
 577 40 577 40 551 106 c 2,74,-1
 546 119 l 1,75,-1
 533 125 l 1,76,77
 511 66 511 66 432 21.5 c 128,-1,78
 353 -23 353 -23 273 -23 c 0,79,80
 169 -23 169 -23 110.5 29.5 c 128,-1,81
 52 82 52 82 52 188 c 0,32,33
EndSplineSet
Colour: ffff
EndChar

StartChar: asciicircum
Encoding: 94 94 66
Width: 740
VWidth: 0
Flags: HMW
LayerCount: 2
Fore
SplineSet
50 825 m 1,0,-1
 291 1237 l 1,1,-1
 435 1250 l 1,2,-1
 690 823 l 1,3,-1
 568 789 l 1,4,-1
 352 963 l 1,5,-1
 341 963 l 1,6,-1
 164 796 l 1,7,-1
 50 825 l 1,0,-1
EndSplineSet
Colour: ffff
EndChar

StartChar: asciitilde
Encoding: 126 126 67
Width: 1075
VWidth: 0
Flags: HMW
LayerCount: 2
Fore
SplineSet
60 282 m 1,0,1
 53 345 53 345 60 408.5 c 128,-1,2
 67 472 67 472 89.5 533.5 c 128,-1,3
 112 595 112 595 152.5 637 c 128,-1,4
 193 679 193 679 253.5 698 c 128,-1,5
 314 717 314 717 396 696 c 2,6,-1
 738 613 l 2,7,8
 757 609 757 609 775.5 616.5 c 128,-1,9
 794 624 794 624 806 637.5 c 128,-1,10
 818 651 818 651 827 666 c 128,-1,11
 836 681 836 681 840 691 c 2,12,-1
 844 702 l 1,13,-1
 1018 684 l 1,14,15
 1017 579 1017 579 993 497 c 128,-1,16
 969 415 969 415 922.5 361.5 c 128,-1,17
 876 308 876 308 806 290.5 c 128,-1,18
 736 273 736 273 644 296 c 2,19,-1
 329 378 l 2,20,21
 306 384 306 384 288 375.5 c 128,-1,22
 270 367 270 367 261 350 c 128,-1,23
 252 333 252 333 246.5 315.5 c 128,-1,24
 241 298 241 298 240 285 c 2,25,-1
 238 272 l 1,26,-1
 60 282 l 1,0,1
EndSplineSet
Colour: ffff
EndChar

StartChar: asterisk
Encoding: 42 42 68
Width: 828
VWidth: 0
Flags: MW
LayerCount: 2
Fore
SplineSet
41 913 m 1,0,-1
 123 1088 l 1,1,-1
 356 993 l 1,2,-1
 301 1300 l 1,3,-1
 490 1275 l 1,4,-1
 464 1005 l 1,5,-1
 744 1175 l 1,6,-1
 781 989 l 1,7,-1
 526 906 l 1,8,-1
 768 714 l 1,9,-1
 597 623 l 1,10,-1
 452 824 l 1,11,-1
 326 548 l 1,12,-1
 187 686 l 1,13,-1
 358 876 l 1,14,-1
 41 913 l 1,0,-1
EndSplineSet
Colour: ffff
EndChar

StartChar: at
Encoding: 64 64 69
Width: 1554
VWidth: 0
Flags: HMW
LayerCount: 2
Fore
SplineSet
674 395 m 0,0,1
 674 294 674 294 727 294 c 0,2,3
 741 294 741 294 782 306 c 1,4,-1
 826 648 l 1,5,6
 824 647 824 647 823.5 647.5 c 128,-1,7
 823 648 823 648 820.5 650 c 128,-1,8
 818 652 818 652 815.5 654 c 128,-1,9
 813 656 813 656 807 657.5 c 128,-1,10
 801 659 801 659 792 659 c 0,11,12
 758 659 758 659 732.5 625.5 c 128,-1,13
 707 592 707 592 695.5 543.5 c 128,-1,14
 684 495 684 495 679 457 c 128,-1,15
 674 419 674 419 674 395 c 0,0,1
53 326 m 0,16,17
 53 434 53 434 92 539 c 128,-1,18
 131 644 131 644 208 734.5 c 128,-1,19
 285 825 285 825 390 894.5 c 128,-1,20
 495 964 495 964 636 1003.5 c 128,-1,21
 777 1043 777 1043 935 1043 c 0,22,23
 1021 1043 1021 1043 1100.5 1029 c 128,-1,24
 1180 1015 1180 1015 1254 982.5 c 128,-1,25
 1328 950 1328 950 1382 902.5 c 128,-1,26
 1436 855 1436 855 1468.5 783 c 128,-1,27
 1501 711 1501 711 1501 622 c 0,28,29
 1501 477 1501 477 1429.5 350 c 128,-1,30
 1358 223 1358 223 1238.5 147.5 c 128,-1,31
 1119 72 1119 72 985 72 c 0,32,33
 949 72 949 72 915 78 c 128,-1,34
 881 84 881 84 848 97.5 c 128,-1,35
 815 111 815 111 795.5 136.5 c 128,-1,36
 776 162 776 162 777 197 c 1,37,-1
 766 197 l 1,38,39
 728 142 728 142 679.5 114 c 128,-1,40
 631 86 631 86 581 86 c 0,41,42
 502 86 502 86 448 153.5 c 128,-1,43
 394 221 394 221 394 342 c 0,44,45
 394 423 394 423 425.5 501 c 128,-1,46
 457 579 457 579 518 646 c 128,-1,47
 579 713 579 713 682.5 754.5 c 128,-1,48
 786 796 786 796 915 796 c 0,49,50
 998 796 998 796 1078 778 c 1,51,-1
 1094 761 l 1,52,-1
 1054 395 l 1,53,54
 1046 332 1046 332 1047 298 c 128,-1,55
 1048 264 1048 264 1057 253.5 c 128,-1,56
 1066 243 1066 243 1088 243 c 0,57,58
 1131 243 1131 243 1166 280 c 128,-1,59
 1201 317 1201 317 1220.5 371.5 c 128,-1,60
 1240 426 1240 426 1250.5 477.5 c 128,-1,61
 1261 529 1261 529 1261 567 c 0,62,63
 1261 896 1261 896 864 894 c 0,64,65
 600 893 600 893 450.5 746 c 128,-1,66
 301 599 301 599 301 377 c 0,67,68
 301 152 301 152 430.5 43.5 c 128,-1,69
 560 -65 560 -65 836 -65 c 0,70,71
 955 -65 955 -65 1043.5 -47 c 128,-1,72
 1132 -29 1132 -29 1197 26 c 1,73,-1
 1242 -84 l 1,74,75
 1157 -149 1157 -149 1029.5 -185 c 128,-1,76
 902 -221 902 -221 762 -221 c 0,77,78
 431 -221 431 -221 242 -71.5 c 128,-1,79
 53 78 53 78 53 326 c 0,16,17
EndSplineSet
Colour: ffff
EndChar

StartChar: atilde
Encoding: 227 227 70
Width: 990
VWidth: 0
Flags: HMW
LayerCount: 2
Fore
SplineSet
204 1079 m 1,0,1
 199 1116 199 1116 203.5 1154 c 128,-1,2
 208 1192 208 1192 223 1228.5 c 128,-1,3
 238 1265 238 1265 265 1290 c 128,-1,4
 292 1315 292 1315 332 1326 c 128,-1,5
 372 1337 372 1337 427 1325 c 2,6,-1
 654 1276 l 2,7,8
 674 1272 674 1272 691.5 1285 c 128,-1,9
 709 1298 709 1298 717 1314 c 2,10,-1
 724 1329 l 1,11,-1
 839 1318 l 1,12,13
 838 1190 838 1190 773.5 1124.5 c 128,-1,14
 709 1059 709 1059 591 1087 c 2,15,-1
 382 1136 l 2,16,17
 358 1142 358 1142 343 1126 c 128,-1,18
 328 1110 328 1110 325 1092 c 2,19,-1
 322 1073 l 1,20,-1
 204 1079 l 1,0,1
348 279 m 0,21,22
 348 248 348 248 369.5 226.5 c 128,-1,23
 391 205 391 205 428 205 c 0,24,25
 469 205 469 205 510 234 c 1,26,-1
 510 398 l 1,27,28
 426 388 426 388 387 353 c 128,-1,29
 348 318 348 318 348 279 c 0,21,22
52 188 m 0,30,31
 52 328 52 328 174.5 420.5 c 128,-1,32
 297 513 297 513 510 512 c 1,33,-1
 510 607 l 2,34,35
 510 676 510 676 473 723 c 128,-1,36
 436 770 436 770 384 770 c 0,37,38
 348 770 348 770 329.5 722.5 c 128,-1,39
 311 675 311 675 302 552 c 1,40,41
 252 552 252 552 216.5 557 c 128,-1,42
 181 562 181 562 149.5 575.5 c 128,-1,43
 118 589 118 589 102 615.5 c 128,-1,44
 86 642 86 642 86 683 c 0,45,46
 86 739 86 739 157 802 c 128,-1,47
 228 865 228 865 336.5 907 c 128,-1,48
 445 949 445 949 546 949 c 0,49,50
 668 949 668 949 743 876 c 128,-1,51
 818 803 818 803 818 641 c 2,52,-1
 818 374 l 2,53,54
 818 285 818 285 835 254.5 c 128,-1,55
 852 224 852 224 916 210 c 2,56,-1
 944 204 l 1,57,-1
 919 34 l 1,58,59
 916 32 916 32 912 30 c 2,60,-1
 894.5 19.5 l 2,61,62
 881 11 881 11 868 4 c 128,-1,63
 855 -3 855 -3 850 -4.5 c 128,-1,64
 845 -6 845 -6 832.5 -11 c 128,-1,65
 820 -16 820 -16 811.5 -17 c 128,-1,66
 803 -18 803 -18 790 -20.5 c 128,-1,67
 777 -23 777 -23 763 -23.5 c 128,-1,68
 749 -24 749 -24 733 -24 c 0,69,70
 656 -24 656 -24 616.5 8 c 128,-1,71
 577 40 577 40 551 106 c 2,72,-1
 546 119 l 1,73,-1
 533 125 l 1,74,75
 511 66 511 66 432 21.5 c 128,-1,76
 353 -23 353 -23 273 -23 c 0,77,78
 169 -23 169 -23 110.5 29.5 c 128,-1,79
 52 82 52 82 52 188 c 0,30,31
EndSplineSet
Colour: ffff
EndChar

StartChar: b
Encoding: 98 98 71
Width: 1161
VWidth: 0
Flags: HMW
LayerCount: 2
Back
SplineSet
-184 0 m 1,0,-1
 -167 157 l 1,1,-1
 -25 229 l 1,2,-1
 -25 640 l 1,3,-1
 -167 721 l 1,4,-1
 -140 889 l 1,5,-1
 263 918 l 1,6,-1
 301 879 l 1,7,-1
 278 777 l 1,8,-1
 293 771 l 1,9,10
 368.469 849.75 368.469 849.75 435.821 889.183 c 0
 503.173 928.617 503.173 928.617 582.449 928.617 c 0,11,12
 697.883 928.617 697.883 928.617 762.942 859.476 c 0
 828 790.336 828 790.336 828 641 c 2,13,-1
 828 229 l 1,14,-1
 976 165 l 1,15,-1
 953 0 l 1,16,-1
 517 0 l 1,17,-1
 517 157 l 1,18,-1
 517 229 l 1,19,-1
 517 429 l 2,20,21
 517 522.379 517 522.379 493.633 562.203 c 0
 470.266 602.028 470.266 602.028 422.271 602.028 c 0,22,23
 349.976 602.028 349.976 602.028 293 552 c 1,24,-1
 293 229 l 1,25,-1
 416 166 l 1,26,-1
 388 0 l 1,27,-1
 -184 0 l 1,0,-1
EndSplineSet
Fore
SplineSet
500 259 m 1,0,1
 563 202 563 202 625 202 c 0,2,3
 686 202 686 202 727 270.5 c 128,-1,4
 768 339 768 339 768 447 c 0,5,6
 768 528 768 528 737.5 586.5 c 128,-1,7
 707 645 707 645 648 645 c 0,8,9
 584 645 584 645 500 578 c 1,10,-1
 500 259 l 1,0,1
39 1086 m 1,11,-1
 67 1251 l 1,12,-1
 443 1277 l 1,13,-1
 500 1223 l 1,14,-1
 500 878 l 1,15,-1
 485 777 l 1,16,-1
 500 771 l 1,17,18
 573 852 573 852 630.5 891 c 128,-1,19
 688 930 688 930 764 930 c 0,20,21
 925 930 925 930 1021 810 c 128,-1,22
 1117 690 1117 690 1117 497 c 0,23,24
 1117 343 1117 343 1037.5 222.5 c 128,-1,25
 958 102 958 102 832 39.5 c 128,-1,26
 706 -23 706 -23 561 -23 c 0,27,28
 478 -23 478 -23 363.5 -4 c 128,-1,29
 249 15 249 15 184 51 c 1,30,-1
 184 986 l 1,31,-1
 39 1086 l 1,11,-1
EndSplineSet
Colour: ffff
EndChar

StartChar: backslash
Encoding: 92 92 72
Width: 765
VWidth: 0
Flags: MW
LayerCount: 2
Fore
SplineSet
35 1333 m 1,0,-1
 270 1316 l 1,1,-1
 731 -410 l 1,2,-1
 504 -397 l 1,3,-1
 35 1333 l 1,0,-1
EndSplineSet
Colour: ffff
EndChar

StartChar: bar
Encoding: 124 124 73
Width: 346
VWidth: 0
Flags: HMW
LayerCount: 2
Fore
SplineSet
75 -363 m 1,0,-1
 75 1260 l 1,1,-1
 271 1248 l 1,2,-1
 271 -379 l 1,3,-1
 75 -363 l 1,0,-1
EndSplineSet
Colour: ffff
EndChar

StartChar: braceleft
Encoding: 123 123 74
Width: 771
VWidth: 0
Flags: HMW
LayerCount: 2
Fore
SplineSet
684 -379 m 1,0,-1
 439 -379 l 2,1,2
 355 -379 355 -379 302.5 -343 c 128,-1,3
 250 -307 250 -307 230 -248 c 128,-1,4
 210 -189 210 -189 203 -117 c 128,-1,5
 196 -45 196 -45 194.5 29 c 128,-1,6
 193 103 193 103 185.5 166.5 c 128,-1,7
 178 230 178 230 149.5 276 c 128,-1,8
 121 322 121 322 68 333 c 2,9,-1
 7 346 l 1,10,-1
 7 545 l 1,11,-1
 65 557 l 2,12,13
 114 567 114 567 143.5 603.5 c 128,-1,14
 173 640 173 640 182 690.5 c 128,-1,15
 191 741 191 741 196 803 c 128,-1,16
 201 865 201 865 201 927.5 c 128,-1,17
 201 990 201 990 212.5 1049 c 128,-1,18
 224 1108 224 1108 245 1154 c 128,-1,19
 266 1200 266 1200 315 1227.5 c 128,-1,20
 364 1255 364 1255 437 1255 c 2,21,-1
 677 1255 l 1,22,-1
 671 1052 l 1,23,-1
 538 1049 l 2,24,25
 505 1048 505 1048 495.5 991.5 c 128,-1,26
 486 935 486 935 487.5 852.5 c 128,-1,27
 489 770 489 770 485.5 685.5 c 128,-1,28
 482 601 482 601 450 536 c 128,-1,29
 418 471 418 471 353 459 c 1,30,-1
 353 446 l 1,31,32
 408 410 408 410 438.5 348 c 128,-1,33
 469 286 469 286 474.5 219.5 c 128,-1,34
 480 153 480 153 481.5 83 c 128,-1,35
 483 13 483 13 482 -41.5 c 128,-1,36
 481 -96 481 -96 496.5 -132 c 128,-1,37
 512 -168 512 -168 548 -169 c 2,38,-1
 672 -173 l 1,39,-1
 684 -379 l 1,0,-1
EndSplineSet
Colour: ffff
EndChar

StartChar: braceright
Encoding: 125 125 75
Width: 769
VWidth: 0
Flags: HMW
LayerCount: 2
Fore
SplineSet
43 -379 m 1,0,-1
 55 -173 l 1,1,-1
 179 -169 l 2,2,3
 215 -168 215 -168 230.5 -132 c 128,-1,4
 246 -96 246 -96 245 -41.5 c 128,-1,5
 244 13 244 13 245.5 83 c 128,-1,6
 247 153 247 153 252.5 219.5 c 128,-1,7
 258 286 258 286 288.5 348 c 128,-1,8
 319 410 319 410 374 446 c 1,9,-1
 374 459 l 1,10,11
 309 471 309 471 277 536 c 128,-1,12
 245 601 245 601 241.5 685.5 c 128,-1,13
 238 770 238 770 239.5 852.5 c 128,-1,14
 241 935 241 935 231.5 991.5 c 128,-1,15
 222 1048 222 1048 189 1049 c 2,16,-1
 56 1052 l 1,17,-1
 50 1255 l 1,18,-1
 290 1255 l 2,19,20
 363 1255 363 1255 412 1227.5 c 128,-1,21
 461 1200 461 1200 482 1154 c 128,-1,22
 503 1108 503 1108 514.5 1049 c 128,-1,23
 526 990 526 990 526 927.5 c 128,-1,24
 526 865 526 865 531 803 c 128,-1,25
 536 741 536 741 545 690.5 c 128,-1,26
 554 640 554 640 583.5 603.5 c 128,-1,27
 613 567 613 567 662 557 c 2,28,-1
 720 545 l 1,29,-1
 720 346 l 1,30,-1
 659 333 l 2,31,32
 606 322 606 322 577.5 276 c 128,-1,33
 549 230 549 230 541.5 166.5 c 128,-1,34
 534 103 534 103 532.5 29 c 128,-1,35
 531 -45 531 -45 524 -117 c 128,-1,36
 517 -189 517 -189 497 -248 c 128,-1,37
 477 -307 477 -307 424.5 -343 c 128,-1,38
 372 -379 372 -379 288 -379 c 2,39,-1
 43 -379 l 1,0,-1
EndSplineSet
Colour: ffff
EndChar

StartChar: bracketleft
Encoding: 91 91 76
Width: 593
VWidth: 0
Flags: HMW
LayerCount: 2
Fore
SplineSet
511 -214 m 1,0,-1
 483 -378 l 1,1,-1
 34 -378 l 1,2,-1
 38 1255 l 1,3,-1
 474 1255 l 1,4,-1
 504 1094 l 1,5,-1
 265 1075 l 1,6,-1
 265 -193 l 1,7,-1
 511 -214 l 1,0,-1
EndSplineSet
Colour: ffff
EndChar

StartChar: bracketright
Encoding: 93 93 77
Width: 592
VWidth: 0
Flags: HMW
LayerCount: 2
Back
SplineSet
-189 -217 m 5,0,-1
 -159 -378 l 1,1,-1
 267 -378 l 1,2,-1
 271 1255 l 1,3,-1
 -169 1255 l 1,4,-1
 -187 1050 l 1,5,-1
 40 1034 l 1,6,-1
 40 -198 l 1,7,-1
 -189 -217 l 5,0,-1
EndSplineSet
Fore
SplineSet
41 -214 m 1,0,-1
 287 -193 l 1,1,-1
 287 1075 l 1,2,-1
 48 1094 l 1,3,-1
 78 1255 l 1,4,-1
 514 1255 l 1,5,-1
 518 -378 l 1,6,-1
 69 -378 l 1,7,-1
 41 -214 l 1,0,-1
EndSplineSet
Colour: ffff
EndChar

StartChar: brokenbar
Encoding: 166 166 78
Width: 366
VWidth: 0
Flags: HMW
LayerCount: 2
Fore
SplineSet
74 528 m 1,0,-1
 74 1274 l 1,1,-1
 290 1248 l 1,2,-1
 292 505 l 1,3,-1
 74 528 l 1,0,-1
74 -351 m 1,4,-1
 74 415 l 1,5,-1
 293 387 l 1,6,-1
 293 -379 l 1,7,-1
 74 -351 l 1,4,-1
EndSplineSet
Colour: ffff
EndChar

StartChar: c
Encoding: 99 99 79
Width: 946
VWidth: 0
Flags: HMW
LayerCount: 2
Back
SplineSet
0 426 m 0,0,1
 0 552 0 552 50 657.5 c 0
 100 763 100 763 179.5 829 c 0
 259 895 259 895 352.5 931 c 0
 446 967 446 967 538 967 c 0,2,3
 684 967 684 967 758.5 896 c 0
 833 825 833 825 833 714 c 0,4,5
 833 630 833 630 779.5 579.5 c 0
 726 529 726 529 641 520 c 1,6,7
 606 624 606 624 573 678.5 c 0
 540 733 540 733 513 748.5 c 0
 486 764 486 764 446 764 c 0,8,9
 385 764 385 764 359 704.5 c 0
 333 645 333 645 333 515 c 0,10,11
 333 389 333 389 397.5 294.5 c 0
 462 200 462 200 573 200 c 0,12,13
 650 200 650 200 701.5 216.5 c 0
 753 233 753 233 817 271 c 1,14,-1
 857 167 l 1,15,16
 818 84 818 84 712.5 26.5 c 0
 607 -31 607 -31 482 -31 c 0,17,18
 0 -31 0 -31 0 426 c 0,0,1
EndSplineSet
Fore
SplineSet
48 426 m 0,0,1
 48 528 48 528 80.5 617 c 128,-1,2
 113 706 113 706 167.5 769 c 128,-1,3
 222 832 222 832 291.5 877.5 c 128,-1,4
 361 923 361 923 436 945 c 128,-1,5
 511 967 511 967 584 967 c 0,6,7
 711 967 711 967 791 898 c 128,-1,8
 871 829 871 829 871 724 c 0,9,10
 871 643 871 643 815 601.5 c 128,-1,11
 759 560 759 560 669 550 c 1,12,13
 627 681 627 681 590 728.5 c 128,-1,14
 553 776 553 776 507 776 c 0,15,16
 441 776 441 776 411 716 c 128,-1,17
 381 656 381 656 381 515 c 0,18,19
 381 389 381 389 445.5 294.5 c 128,-1,20
 510 200 510 200 621 200 c 0,21,22
 698 200 698 200 749.5 216.5 c 128,-1,23
 801 233 801 233 865 271 c 1,24,-1
 905 167 l 1,25,26
 866 84 866 84 760.5 26.5 c 128,-1,27
 655 -31 655 -31 530 -31 c 0,28,29
 48 -31 48 -31 48 426 c 0,0,1
EndSplineSet
Colour: ffff
EndChar

StartChar: ccedilla
Encoding: 231 231 80
Width: 946
VWidth: 0
Flags: HMW
LayerCount: 2
Fore
SplineSet
448 -268 m 1,0,1
 506 -267 506 -267 545.5 -247.5 c 128,-1,2
 585 -228 585 -228 585 -204 c 0,3,4
 585 -190 585 -190 569.5 -176 c 128,-1,5
 554 -162 554 -162 525 -149 c 128,-1,6
 496 -136 496 -136 477.5 -129 c 128,-1,7
 459 -122 459 -122 429 -112 c 1,8,-1
 533 -31 l 2,9,10
 532 -31 532 -31 530 -31 c 0,11,12
 48 -31 48 -31 48 426 c 0,13,14
 48 528 48 528 80.5 617 c 128,-1,15
 113 706 113 706 167.5 769 c 128,-1,16
 222 832 222 832 291.5 877.5 c 128,-1,17
 361 923 361 923 436 945 c 128,-1,18
 511 967 511 967 584 967 c 0,19,20
 711 967 711 967 791 898 c 128,-1,21
 871 829 871 829 871 724 c 0,22,23
 871 643 871 643 815 601.5 c 128,-1,24
 759 560 759 560 669 550 c 1,25,26
 627 681 627 681 590 728.5 c 128,-1,27
 553 776 553 776 507 776 c 0,28,29
 441 776 441 776 411 716 c 128,-1,30
 381 656 381 656 381 515 c 0,31,32
 381 389 381 389 445.5 294.5 c 128,-1,33
 510 200 510 200 621 200 c 0,34,35
 698 200 698 200 749.5 216.5 c 128,-1,36
 801 233 801 233 865 271 c 1,37,-1
 905 167 l 1,38,39
 869 90 869 90 776 35 c 1,40,-1
 791 35 l 1,41,-1
 673 -51 l 1,42,43
 756 -58 756 -58 802 -93.5 c 128,-1,44
 848 -129 848 -129 848 -194 c 0,45,46
 848 -250 848 -250 814 -285 c 128,-1,47
 780 -320 780 -320 699 -338 c 128,-1,48
 618 -356 618 -356 484 -356 c 1,49,-1
 448 -268 l 1,0,1
EndSplineSet
Colour: ffff
EndChar

StartChar: cedilla
Encoding: 184 184 81
Width: 529
VWidth: 0
Flags: HMW
LayerCount: 2
Fore
SplineSet
72 -300 m 1,0,1
 130 -299 130 -299 169.5 -279.5 c 128,-1,2
 209 -260 209 -260 209 -236 c 0,3,4
 209 -197 209 -197 53 -144 c 1,5,-1
 241 3 l 1,6,-1
 415 3 l 1,7,-1
 297 -83 l 1,8,9
 472 -98 472 -98 472 -226 c 0,10,11
 472 -310 472 -310 389 -349 c 128,-1,12
 306 -388 306 -388 108 -388 c 1,13,-1
 72 -300 l 1,0,1
EndSplineSet
Colour: ffff
EndChar

StartChar: cent
Encoding: 162 162 82
Width: 963
VWidth: 0
Flags: HMW
LayerCount: 2
Fore
SplineSet
399 1232 m 1,0,-1
 626 1249 l 1,1,-1
 604 1012 l 1,2,3
 675 1010 675 1010 730.5 984.5 c 128,-1,4
 786 959 786 959 819 919 c 128,-1,5
 852 879 852 879 869 830.5 c 128,-1,6
 886 782 886 782 886 730 c 0,7,8
 886 646 886 646 832.5 595.5 c 128,-1,9
 779 545 779 545 694 536 c 1,10,11
 641 693 641 693 597.5 751.5 c 128,-1,12
 554 810 554 810 499 810 c 0,13,14
 386 810 386 810 386 531 c 0,15,16
 386 406 386 406 450 318 c 128,-1,17
 514 230 514 230 626 230 c 0,18,19
 701 230 701 230 756 250 c 128,-1,20
 811 270 811 270 880 311 c 1,21,-1
 920 177 l 1,22,23
 887 106 887 106 800 49 c 128,-1,24
 713 -8 713 -8 608 -25 c 1,25,-1
 638 -250 l 1,26,-1
 409 -266 l 1,27,-1
 433 -24 l 1,28,29
 332 -10 332 -10 257.5 31 c 128,-1,30
 183 72 183 72 139 136.5 c 128,-1,31
 95 201 95 201 74 279 c 128,-1,32
 53 357 53 357 53 452 c 0,33,34
 53 551 53 551 84 640 c 128,-1,35
 115 729 115 729 168.5 795 c 128,-1,36
 222 861 222 861 288.5 909 c 128,-1,37
 355 957 355 957 430 983 c 1,38,-1
 399 1232 l 1,0,-1
EndSplineSet
Colour: ffff
EndChar

StartChar: circumflex
Encoding: 710 710 83
Width: 692
VWidth: 0
Flags: HMW
LayerCount: 2
Fore
SplineSet
70 1365 m 1,0,-1
 241 1560 l 1,1,-1
 418 1580 l 1,2,-1
 622 1375 l 1,3,-1
 471 1316 l 1,4,-1
 332 1417 l 1,5,-1
 318 1417 l 1,6,-1
 215 1315 l 1,7,-1
 70 1365 l 1,0,-1
EndSplineSet
Colour: ffff
EndChar

StartChar: colon
Encoding: 58 58 84
Width: 503
VWidth: 0
Flags: HMW
LayerCount: 2
Fore
SplineSet
114 759 m 0,0,1
 114 784 114 784 123 808 c 128,-1,2
 132 832 132 832 152.5 854.5 c 128,-1,3
 173 877 173 877 211.5 890.5 c 128,-1,4
 250 904 250 904 302 904 c 0,5,6
 357 904 357 904 397.5 890.5 c 128,-1,7
 438 877 438 877 459 855 c 128,-1,8
 480 833 480 833 489 810.5 c 128,-1,9
 498 788 498 788 498 762 c 0,10,11
 498 614 498 614 301 613 c 0,12,13
 114 614 114 614 114 759 c 0,0,1
114 144 m 0,14,15
 114 169 114 169 123 193 c 128,-1,16
 132 217 132 217 152.5 239.5 c 128,-1,17
 173 262 173 262 211.5 275.5 c 128,-1,18
 250 289 250 289 302 289 c 0,19,20
 357 289 357 289 397.5 275.5 c 128,-1,21
 438 262 438 262 459 240 c 128,-1,22
 480 218 480 218 489 195 c 128,-1,23
 498 172 498 172 498 146 c 0,24,25
 498 -2 498 -2 301 -2 c 0,26,27
 114 -1 114 -1 114 144 c 0,14,15
EndSplineSet
Colour: ffff
EndChar

StartChar: comma
Encoding: 44 44 85
Width: 564
VWidth: 0
Flags: HMW
LayerCount: 2
Back
SplineSet
0 127 m 0,0,1
 0 187 0 187 49.5 233.5 c 0
 99 280 99 280 209 280 c 0,2,3
 326 280 326 280 376.5 234.5 c 0
 427 189 427 189 427 130 c 0,4,5
 427 -26 427 -26 208 -26 c 0,6,7
 0 -26 0 -26 0 127 c 0,0,1
EndSplineSet
Fore
SplineSet
68 -259 m 1,0,1
 149 -232 149 -232 191 -181.5 c 128,-1,2
 233 -131 233 -131 233 -80 c 0,3,4
 233 -39 233 -39 208 -14.5 c 128,-1,5
 183 10 183 10 146 10 c 0,6,7
 118 10 118 10 92 -3 c 1,8,9
 61 49 61 49 61 96 c 0,10,11
 60 183 60 183 116.5 230.5 c 128,-1,12
 173 278 173 278 263 278 c 0,13,14
 506 278 506 278 506 12 c 0,15,16
 506 -52 506 -52 482.5 -113 c 128,-1,17
 459 -174 459 -174 412.5 -229 c 128,-1,18
 366 -284 366 -284 288.5 -323.5 c 128,-1,19
 211 -363 211 -363 112 -377 c 1,20,-1
 68 -259 l 1,0,1
EndSplineSet
Colour: ffff
EndChar

StartChar: copyright
Encoding: 169 169 86
Width: 1507
VWidth: 0
Flags: HMW
LayerCount: 2
Fore
SplineSet
255 708 m 0,0,1
 255 446 255 446 395.5 308 c 128,-1,2
 536 170 536 170 763 170 c 0,3,4
 868 170 868 170 958.5 204 c 128,-1,5
 1049 238 1049 238 1118 301.5 c 128,-1,6
 1187 365 1187 365 1227 465.5 c 128,-1,7
 1267 566 1267 566 1267 690 c 0,8,9
 1267 800 1267 800 1236.5 897.5 c 128,-1,10
 1206 995 1206 995 1145.5 1073.5 c 128,-1,11
 1085 1152 1085 1152 983.5 1198 c 128,-1,12
 882 1244 882 1244 752 1244 c 0,13,14
 517 1244 517 1244 386 1097 c 128,-1,15
 255 950 255 950 255 708 c 0,0,1
49 687 m 0,16,17
 49 850 49 850 104.5 984.5 c 128,-1,18
 160 1119 160 1119 256.5 1209 c 128,-1,19
 353 1299 353 1299 484 1348 c 128,-1,20
 615 1397 615 1397 766 1397 c 0,21,22
 1085 1397 1085 1397 1271.5 1206 c 128,-1,23
 1458 1015 1458 1015 1458 700 c 0,24,25
 1458 568 1458 568 1404 442.5 c 128,-1,26
 1350 317 1350 317 1257.5 221.5 c 128,-1,27
 1165 126 1165 126 1033.5 68 c 128,-1,28
 902 10 902 10 757 10 c 0,29,30
 424 10 424 10 236.5 192.5 c 128,-1,31
 49 375 49 375 49 687 c 0,16,17
412 678 m 0,32,33
 412 763 412 763 439.5 837.5 c 128,-1,34
 467 912 467 912 512.5 964.5 c 128,-1,35
 558 1017 558 1017 616 1055.5 c 128,-1,36
 674 1094 674 1094 736.5 1112.5 c 128,-1,37
 799 1131 799 1131 860 1131 c 0,38,39
 967 1131 967 1131 1034 1073 c 128,-1,40
 1101 1015 1101 1015 1101 927 c 0,41,42
 1101 859 1101 859 1054 824.5 c 128,-1,43
 1007 790 1007 790 932 782 c 1,44,45
 896 892 896 892 865 931.5 c 128,-1,46
 834 971 834 971 796 971 c 0,47,48
 741 971 741 971 716 920.5 c 128,-1,49
 691 870 691 870 691 752 c 0,50,51
 691 685 691 685 713 626 c 128,-1,52
 735 567 735 567 782 527.5 c 128,-1,53
 829 488 829 488 891 488 c 0,54,55
 956 488 956 488 999 502 c 128,-1,56
 1042 516 1042 516 1096 548 c 1,57,-1
 1129 461 l 1,58,59
 1096 391 1096 391 1008 343 c 128,-1,60
 920 295 920 295 815 295 c 0,61,62
 412 295 412 295 412 678 c 0,32,33
EndSplineSet
Colour: ffff
EndChar

StartChar: currency
Encoding: 164 164 87
Width: 947
VWidth: 0
Flags: HMW
LayerCount: 2
Fore
SplineSet
364 491 m 0,0,1
 364 436 364 436 396 400 c 128,-1,2
 428 364 428 364 471 364 c 0,3,4
 515 364 515 364 546 397.5 c 128,-1,5
 577 431 577 431 577 485 c 0,6,7
 577 542 577 542 546.5 576 c 128,-1,8
 516 610 516 610 472 610 c 0,9,10
 429 610 429 610 396.5 577 c 128,-1,11
 364 544 364 544 364 491 c 0,0,1
43 733 m 1,12,-1
 209 886 l 1,13,-1
 348 741 l 1,14,15
 397 784 397 784 481 784 c 0,16,17
 549 784 549 784 592 752 c 1,18,-1
 733 891 l 1,19,-1
 898 732 l 1,20,-1
 749 595 l 1,21,22
 773 552 773 552 773 488 c 0,23,24
 773 420 773 420 744 372 c 1,25,-1
 903 221 l 1,26,-1
 727 71 l 1,27,-1
 582 226 l 1,28,29
 521 190 521 190 462 190 c 0,30,31
 410 190 410 190 363 218 c 1,32,-1
 217 54 l 1,33,-1
 52 212 l 1,34,-1
 207 362 l 1,35,36
 172 412 172 412 172 484 c 0,37,38
 172 544 172 544 199 589 c 1,39,-1
 43 733 l 1,12,-1
EndSplineSet
Colour: ffff
EndChar

StartChar: d
Encoding: 100 100 88
Width: 1154
VWidth: 0
Flags: HMW
LayerCount: 2
Back
SplineSet
24 188 m 0,0,1
 24 328 24 328 146 420.5 c 0
 268 513 268 513 482 512 c 1,2,-1
 482 607 l 2,3,4
 482 671.404 482 671.404 445.559 708.905 c 0
 409.117 746.405 409.117 746.405 367.311 746.405 c 0,5,6
 325.174 746.405 325.174 746.405 302.904 707.04 c 0
 280.635 667.676 280.635 667.676 263 568 c 1,7,8
 188 556 188 556 123 594 c 0
 58 632 58 632 58 713 c 0,9,10
 58 775 58 775 141 831.5 c 0
 224 888 224 888 326.5 918 c 0
 429 948 429 948 505 948 c 0,11,12
 589 948 589 948 644.5 930.5 c 0
 700 913 700 913 732 873.5 c 0
 764 834 764 834 777 779 c 0
 790 724 790 724 790 641 c 2,13,-1
 790 374 l 2,14,15
 790 299 790 299 817 269.5 c 0
 844 240 844 240 928 213 c 2,16,-1
 956 204 l 1,17,-1
 931 34 l 1,18,19
 867.48 4.21421 867.48 4.21421 815.283 -9.83139 c 0
 763.085 -23.877 763.085 -23.877 694.626 -23.877 c 0,20,21
 542.952 -23.877 542.952 -23.877 493 106 c 2,22,-1
 488 119 l 1,23,-1
 475 125 l 1,24,25
 452.699 64.9011 452.699 64.9011 378.582 21.1332 c 0
 304.465 -22.6348 304.465 -22.6348 224.929 -22.6348 c 0,26,27
 140.168 -22.6348 140.168 -22.6348 82.0839 31.3447 c 0
 24 85.3242 24 85.3242 24 188 c 0,0,1
482 234 m 1,28,-1
 482 398 l 1,29,30
 397.584 388.469 397.584 388.469 358.689 353.595 c 0
 319.793 318.721 319.793 318.721 319.793 279.474 c 0,31,32
 319.793 248.081 319.793 248.081 341.521 226.802 c 0
 363.249 205.522 363.249 205.522 400.331 205.522 c 0,33,34
 442.567 205.522 442.567 205.522 482 234 c 1,28,-1
EndSplineSet
Fore
SplineSet
384 467 m 0,0,1
 384 379 384 379 420 316 c 128,-1,2
 456 253 456 253 524 253 c 0,3,4
 574 253 574 253 639 291 c 1,5,-1
 639 610 l 1,6,7
 564 700 564 700 503 700 c 0,8,9
 450 700 450 700 417 627 c 128,-1,10
 384 554 384 554 384 467 c 0,0,1
47 367 m 0,11,12
 47 467 47 467 76.5 561.5 c 128,-1,13
 106 656 106 656 163.5 735 c 128,-1,14
 221 814 221 814 317 862.5 c 128,-1,15
 413 911 413 911 534 911 c 0,16,17
 560 911 560 911 595.5 903 c 128,-1,18
 631 895 631 895 649 883 c 1,19,-1
 653 883 l 1,20,-1
 643 956 l 1,21,-1
 643 987 l 1,22,-1
 470 1088 l 1,23,-1
 495 1252 l 1,24,-1
 885 1279 l 1,25,-1
 945 1224 l 1,26,-1
 945 375 l 2,27,28
 945 300 945 300 971.5 270.5 c 128,-1,29
 998 241 998 241 1083 214 c 2,30,-1
 1111 205 l 1,31,-1
 1086 35 l 1,32,33
 1022 5 1022 5 970 -9 c 128,-1,34
 918 -23 918 -23 850 -23 c 0,35,36
 698 -23 698 -23 648 107 c 2,37,-1
 643 120 l 1,38,-1
 630 126 l 1,39,40
 581 58 581 58 522.5 19.5 c 128,-1,41
 464 -19 464 -19 370 -19 c 0,42,43
 291 -19 291 -19 228.5 12.5 c 128,-1,44
 166 44 166 44 127 98 c 128,-1,45
 88 152 88 152 67.5 220.5 c 128,-1,46
 47 289 47 289 47 367 c 0,11,12
EndSplineSet
Colour: ffff
EndChar

StartChar: dagger
Encoding: 8224 8224 89
Width: 903
VWidth: 0
Flags: HMW
LayerCount: 2
Fore
SplineSet
47 666 m 1,0,-1
 54 860 l 1,1,-1
 349 853 l 1,2,-1
 345 1255 l 1,3,-1
 557 1244 l 1,4,-1
 550 853 l 1,5,-1
 856 860 l 1,6,-1
 847 657 l 1,7,-1
 550 667 l 1,8,-1
 563 -362 l 1,9,-1
 339 -351 l 1,10,-1
 349 671 l 1,11,-1
 47 666 l 1,0,-1
EndSplineSet
Colour: ffff
EndChar

StartChar: daggerdbl
Encoding: 8225 8225 90
Width: 908
VWidth: 0
Flags: HMW
LayerCount: 2
Fore
SplineSet
55 666 m 1,0,-1
 59 862 l 1,1,-1
 353 856 l 1,2,-1
 345 1255 l 1,3,-1
 559 1244 l 1,4,-1
 544 856 l 1,5,-1
 848 862 l 1,6,-1
 843 660 l 1,7,-1
 544 669 l 1,8,-1
 533 430 l 1,9,-1
 537 212 l 1,10,-1
 855 217 l 1,11,-1
 848 19 l 1,12,-1
 537 26 l 1,13,-1
 551 -362 l 1,14,-1
 336 -351 l 1,15,-1
 346 26 l 1,16,-1
 56 19 l 1,17,-1
 67 224 l 1,18,-1
 346 210 l 1,19,-1
 356 497 l 1,20,-1
 353 674 l 1,21,-1
 55 666 l 1,0,-1
EndSplineSet
Colour: ffff
EndChar

StartChar: degree
Encoding: 176 176 91
Width: 505
VWidth: 0
Flags: HMW
LayerCount: 2
Fore
SplineSet
186 1129 m 0,0,1
 186 1023 186 1023 252 1023 c 0,2,3
 278 1023 278 1023 292.5 1046 c 128,-1,4
 307 1069 307 1069 307 1105 c 0,5,6
 307 1149 307 1149 290 1179 c 128,-1,7
 273 1209 273 1209 242 1209 c 0,8,9
 216 1209 216 1209 201 1186 c 128,-1,10
 186 1163 186 1163 186 1129 c 0,0,1
55 1107 m 0,11,12
 55 1185 55 1185 116 1244.5 c 128,-1,13
 177 1304 177 1304 258 1304 c 0,14,15
 345 1304 345 1304 397 1256.5 c 128,-1,16
 449 1209 449 1209 449 1128 c 0,17,18
 449 1044 449 1044 383 986 c 128,-1,19
 317 928 317 928 234 928 c 0,20,21
 155 928 155 928 105 975 c 128,-1,22
 55 1022 55 1022 55 1107 c 0,11,12
EndSplineSet
Colour: ffff
EndChar

StartChar: dieresis
Encoding: 168 168 92
Width: 744
VWidth: 0
Flags: HMW
LayerCount: 2
Back
SplineSet
0 1464 m 4,0,1
 0 1492 0 1492 54 1516.5 c 0
 108 1541 108 1541 146 1541 c 0,2,3
 190 1541 190 1541 239 1515.5 c 0
 288 1490 288 1490 288 1464 c 0,4,5
 288 1435 288 1435 235.5 1409 c 0
 183 1383 183 1383 143 1383 c 0,6,7
 102 1383 102 1383 51 1407.5 c 0
 0 1432 0 1432 0 1464 c 4,0,1
269 1464 m 4,8,9
 269 1492 269 1492 321.5 1516.5 c 0
 374 1541 374 1541 412 1541 c 0,10,11
 457 1541 457 1541 507.5 1515.5 c 0
 558 1490 558 1490 558 1464 c 0,12,13
 558 1435 558 1435 504.5 1409 c 0
 451 1383 451 1383 411 1383 c 0,14,15
 370 1383 370 1383 319.5 1407.5 c 0
 269 1432 269 1432 269 1464 c 4,8,9
EndSplineSet
Fore
SplineSet
425 1465 m 0,0,1
 425 1484 425 1484 431.5 1501.5 c 128,-1,2
 438 1519 438 1519 453 1535.5 c 128,-1,3
 468 1552 468 1552 496 1562 c 128,-1,4
 524 1572 524 1572 563 1572 c 0,5,6
 604 1572 604 1572 633 1562 c 128,-1,7
 662 1552 662 1552 677.5 1536 c 128,-1,8
 693 1520 693 1520 699.5 1503 c 128,-1,9
 706 1486 706 1486 706 1467 c 0,10,11
 706 1358 706 1358 562 1358 c 0,12,13
 425 1358 425 1358 425 1465 c 0,0,1
116 1465 m 0,14,15
 116 1484 116 1484 122.5 1501.5 c 128,-1,16
 129 1519 129 1519 144 1535.5 c 128,-1,17
 159 1552 159 1552 187 1562 c 128,-1,18
 215 1572 215 1572 254 1572 c 0,19,20
 295 1572 295 1572 324 1562 c 128,-1,21
 353 1552 353 1552 368.5 1536 c 128,-1,22
 384 1520 384 1520 390.5 1503 c 128,-1,23
 397 1486 397 1486 397 1467 c 0,24,25
 397 1358 397 1358 253 1358 c 0,26,27
 116 1358 116 1358 116 1465 c 0,14,15
EndSplineSet
Colour: ffff
EndChar

StartChar: divide
Encoding: 247 247 93
Width: 910
VWidth: 0
Flags: HMW
LayerCount: 2
Fore
SplineSet
236 781 m 0,0,1
 236 841 236 841 285.5 887.5 c 128,-1,2
 335 934 335 934 445 934 c 0,3,4
 562 934 562 934 612.5 888.5 c 128,-1,5
 663 843 663 843 663 784 c 0,6,7
 663 628 663 628 444 628 c 0,8,9
 236 628 236 628 236 781 c 0,0,1
236 218 m 0,10,11
 236 278 236 278 285.5 324.5 c 128,-1,12
 335 371 335 371 445 371 c 0,13,14
 562 371 562 371 612.5 325.5 c 128,-1,15
 663 280 663 280 663 221 c 0,16,17
 663 65 663 65 444 65 c 0,18,19
 236 65 236 65 236 218 c 0,10,11
45 411 m 1,20,-1
 57 597 l 1,21,-1
 868 597 l 1,22,-1
 859 411 l 1,23,-1
 45 411 l 1,20,-1
EndSplineSet
Colour: ffff
EndChar

StartChar: dollar
Encoding: 36 36 94
Width: 1030
VWidth: 0
Flags: HMW
LayerCount: 2
Fore
SplineSet
46 136 m 1,0,-1
 80 468 l 1,1,-1
 257 439 l 1,2,-1
 319 212 l 1,3,4
 357 163 357 163 428 145 c 1,5,6
 452 455 l 1,7,8
 290 538 290 538 221 592 c 0,9,10
 72 709 72 709 72 862 c 0,11,12
 72 951 72 951 102 1022.5 c 128,-1,13
 132 1094 132 1094 186.5 1141.5 c 128,-1,14
 241 1189 241 1189 311 1218.5 c 128,-1,15
 381 1248 381 1248 465 1259 c 1,16,-1
 455 1390 l 1,17,-1
 743 1425 l 1,18,-1
 702 1253 l 1,19,20
 800 1233 800 1233 898 1187 c 1,21,-1
 870 835 l 1,22,-1
 697 865 l 1,23,-1
 658 1068 l 1,24,25
 643 1080 643 1080 603 1090 c 1,26,-1
 581 811 l 1,27,28
 599 801 599 801 634 783 c 128,-1,29
 669 765 669 765 690 754 c 128,-1,30
 711 743 711 743 744 724 c 128,-1,31
 777 705 777 705 798.5 690.5 c 128,-1,32
 820 676 820 676 847.5 655 c 128,-1,33
 875 634 875 634 893 614.5 c 128,-1,34
 911 595 911 595 930 569.5 c 128,-1,35
 949 544 949 544 960 518.5 c 128,-1,36
 971 493 971 493 978 462 c 128,-1,37
 985 431 985 431 985 397 c 0,38,39
 985 325 985 325 961 263 c 128,-1,40
 937 201 937 201 898 157.5 c 128,-1,41
 859 114 859 114 806.5 79.5 c 128,-1,42
 754 45 754 45 700.5 24.5 c 128,-1,43
 647 4 647 4 589 -9 c 1,44,-1
 591 -158 l 1,45,-1
 305 -183 l 1,46,-1
 338 -9 l 1,47,48
 246 11 246 11 163.5 51.5 c 128,-1,49
 81 92 81 92 46 136 c 1,0,-1
499 859 m 1,50,-1
 519 1104 l 1,51,52
 506 1105 506 1105 497 1105 c 0,53,54
 453 1105 453 1105 424 1081 c 128,-1,55
 395 1057 395 1057 395 1007 c 0,56,57
 395 929 395 929 499 859 c 1,50,-1
534 412 m 1,58,-1
 513 139 l 1,59,60
 575 146 575 146 615 184 c 128,-1,61
 655 222 655 222 655 288 c 0,62,63
 655 320 655 320 624 349.5 c 128,-1,64
 593 379 593 379 534 412 c 1,58,-1
EndSplineSet
Colour: ffff
EndChar

StartChar: dotaccent
Encoding: 729 729 95
Width: 579
VWidth: 0
Flags: HMW
LayerCount: 2
Fore
SplineSet
76 1473 m 0,0,1
 76 1533 76 1533 125.5 1579.5 c 128,-1,2
 175 1626 175 1626 285 1626 c 0,3,4
 402 1626 402 1626 452.5 1580.5 c 128,-1,5
 503 1535 503 1535 503 1476 c 0,6,7
 503 1320 503 1320 284 1320 c 0,8,9
 76 1320 76 1320 76 1473 c 0,0,1
EndSplineSet
Colour: ffff
EndChar

StartChar: e
Encoding: 101 101 96
Width: 944
VWidth: 0
Flags: HMW
LayerCount: 2
Fore
SplineSet
367 506 m 1,0,-1
 543 529 l 1,1,2
 549 547 549 547 549 605 c 0,3,4
 549 662 549 662 529 702.5 c 128,-1,5
 509 743 509 743 466 743 c 0,6,7
 416 743 416 743 390.5 676 c 128,-1,8
 365 609 365 609 367 506 c 1,0,-1
48 430 m 0,9,10
 48 540 48 540 90.5 638.5 c 128,-1,11
 133 737 133 737 201.5 804.5 c 128,-1,12
 270 872 270 872 359 911 c 128,-1,13
 448 950 448 950 539 950 c 0,14,15
 699 950 699 950 787 847.5 c 128,-1,16
 875 745 875 745 875 580 c 0,17,18
 875 558 875 558 867 492.5 c 128,-1,19
 859 427 859 427 854 401 c 1,20,-1
 376 387 l 1,21,22
 382 291 382 291 447.5 245 c 128,-1,23
 513 199 513 199 626 199 c 0,24,25
 777 199 777 199 874 255 c 1,26,-1
 893 122 l 1,27,28
 850 65 850 65 772 29 c 128,-1,29
 694 -7 694 -7 622 -19 c 128,-1,30
 550 -31 550 -31 476 -31 c 0,31,32
 282 -31 282 -31 165 88 c 128,-1,33
 48 207 48 207 48 430 c 0,9,10
EndSplineSet
Colour: ffff
EndChar

StartChar: eacute
Encoding: 233 233 97
Width: 944
VWidth: 0
Flags: HMW
LayerCount: 2
Fore
SplineSet
412 1084 m 1,0,-1
 567 1409 l 1,1,-1
 787 1395 l 1,2,-1
 556 1063 l 1,3,-1
 412 1084 l 1,0,-1
367 506 m 1,4,-1
 543 529 l 1,5,6
 549 547 549 547 549 605 c 0,7,8
 549 662 549 662 529 702.5 c 128,-1,9
 509 743 509 743 466 743 c 0,10,11
 416 743 416 743 390.5 676 c 128,-1,12
 365 609 365 609 367 506 c 1,4,-1
48 430 m 0,13,14
 48 540 48 540 90.5 638.5 c 128,-1,15
 133 737 133 737 201.5 804.5 c 128,-1,16
 270 872 270 872 359 911 c 128,-1,17
 448 950 448 950 539 950 c 0,18,19
 699 950 699 950 787 847.5 c 128,-1,20
 875 745 875 745 875 580 c 0,21,22
 875 558 875 558 867 492.5 c 128,-1,23
 859 427 859 427 854 401 c 1,24,-1
 376 387 l 1,25,26
 382 291 382 291 447.5 245 c 128,-1,27
 513 199 513 199 626 199 c 0,28,29
 777 199 777 199 874 255 c 1,30,-1
 893 122 l 1,31,32
 850 65 850 65 772 29 c 128,-1,33
 694 -7 694 -7 622 -19 c 128,-1,34
 550 -31 550 -31 476 -31 c 0,35,36
 282 -31 282 -31 165 88 c 128,-1,37
 48 207 48 207 48 430 c 0,13,14
EndSplineSet
Colour: ffff
EndChar

StartChar: ecircumflex
Encoding: 234 234 98
Width: 944
VWidth: 0
Flags: HMW
LayerCount: 2
Fore
SplineSet
271 1083 m 1,0,-1
 442 1278 l 1,1,-1
 619 1298 l 1,2,-1
 823 1093 l 1,3,-1
 672 1034 l 1,4,-1
 533 1135 l 1,5,-1
 519 1135 l 1,6,-1
 416 1033 l 1,7,-1
 271 1083 l 1,0,-1
367 506 m 1,8,-1
 543 529 l 1,9,10
 549 547 549 547 549 605 c 0,11,12
 549 662 549 662 529 702.5 c 128,-1,13
 509 743 509 743 466 743 c 0,14,15
 416 743 416 743 390.5 676 c 128,-1,16
 365 609 365 609 367 506 c 1,8,-1
48 430 m 0,17,18
 48 540 48 540 90.5 638.5 c 128,-1,19
 133 737 133 737 201.5 804.5 c 128,-1,20
 270 872 270 872 359 911 c 128,-1,21
 448 950 448 950 539 950 c 0,22,23
 699 950 699 950 787 847.5 c 128,-1,24
 875 745 875 745 875 580 c 0,25,26
 875 558 875 558 867 492.5 c 128,-1,27
 859 427 859 427 854 401 c 1,28,-1
 376 387 l 1,29,30
 382 291 382 291 447.5 245 c 128,-1,31
 513 199 513 199 626 199 c 0,32,33
 777 199 777 199 874 255 c 1,34,-1
 893 122 l 1,35,36
 850 65 850 65 772 29 c 128,-1,37
 694 -7 694 -7 622 -19 c 128,-1,38
 550 -31 550 -31 476 -31 c 0,39,40
 282 -31 282 -31 165 88 c 128,-1,41
 48 207 48 207 48 430 c 0,17,18
EndSplineSet
Colour: ffff
EndChar

StartChar: edieresis
Encoding: 235 235 99
Width: 944
VWidth: 0
Flags: HMW
LayerCount: 2
Fore
SplineSet
556 1180 m 0,0,1
 556 1199 556 1199 563 1216.5 c 128,-1,2
 570 1234 570 1234 584.5 1250.5 c 128,-1,3
 599 1267 599 1267 627.5 1277 c 128,-1,4
 656 1287 656 1287 694 1287 c 0,5,6
 735 1287 735 1287 764.5 1277.5 c 128,-1,7
 794 1268 794 1268 809 1251.5 c 128,-1,8
 824 1235 824 1235 831 1218 c 128,-1,9
 838 1201 838 1201 838 1182 c 0,10,11
 838 1073 838 1073 693 1073 c 0,12,13
 556 1073 556 1073 556 1180 c 0,0,1
247 1180 m 0,14,15
 247 1199 247 1199 254 1216.5 c 128,-1,16
 261 1234 261 1234 275.5 1250.5 c 128,-1,17
 290 1267 290 1267 318.5 1277 c 128,-1,18
 347 1287 347 1287 385 1287 c 0,19,20
 426 1287 426 1287 455.5 1277.5 c 128,-1,21
 485 1268 485 1268 500 1251.5 c 128,-1,22
 515 1235 515 1235 522 1218 c 128,-1,23
 529 1201 529 1201 529 1182 c 0,24,25
 529 1073 529 1073 384 1073 c 0,26,27
 247 1073 247 1073 247 1180 c 0,14,15
367 506 m 1,28,-1
 543 529 l 1,29,30
 549 547 549 547 549 605 c 0,31,32
 549 662 549 662 529 702.5 c 128,-1,33
 509 743 509 743 466 743 c 0,34,35
 416 743 416 743 390.5 676 c 128,-1,36
 365 609 365 609 367 506 c 1,28,-1
48 430 m 0,37,38
 48 540 48 540 90.5 638.5 c 128,-1,39
 133 737 133 737 201.5 804.5 c 128,-1,40
 270 872 270 872 359 911 c 128,-1,41
 448 950 448 950 539 950 c 0,42,43
 699 950 699 950 787 847.5 c 128,-1,44
 875 745 875 745 875 580 c 0,45,46
 875 558 875 558 867 492.5 c 128,-1,47
 859 427 859 427 854 401 c 1,48,-1
 376 387 l 1,49,50
 382 291 382 291 447.5 245 c 128,-1,51
 513 199 513 199 626 199 c 0,52,53
 777 199 777 199 874 255 c 1,54,-1
 893 122 l 1,55,56
 850 65 850 65 772 29 c 128,-1,57
 694 -7 694 -7 622 -19 c 128,-1,58
 550 -31 550 -31 476 -31 c 0,59,60
 282 -31 282 -31 165 88 c 128,-1,61
 48 207 48 207 48 430 c 0,37,38
EndSplineSet
Colour: ffff
EndChar

StartChar: egrave
Encoding: 232 232 100
Width: 944
VWidth: 0
Flags: HMW
LayerCount: 2
Fore
SplineSet
234 1412 m 1,0,-1
 452 1452 l 1,1,-1
 602 1104 l 1,2,-1
 443 1073 l 1,3,-1
 234 1412 l 1,0,-1
367 506 m 1,4,-1
 543 529 l 1,5,6
 549 547 549 547 549 605 c 0,7,8
 549 662 549 662 529 702.5 c 128,-1,9
 509 743 509 743 466 743 c 0,10,11
 416 743 416 743 390.5 676 c 128,-1,12
 365 609 365 609 367 506 c 1,4,-1
48 430 m 0,13,14
 48 540 48 540 90.5 638.5 c 128,-1,15
 133 737 133 737 201.5 804.5 c 128,-1,16
 270 872 270 872 359 911 c 128,-1,17
 448 950 448 950 539 950 c 0,18,19
 699 950 699 950 787 847.5 c 128,-1,20
 875 745 875 745 875 580 c 0,21,22
 875 558 875 558 867 492.5 c 128,-1,23
 859 427 859 427 854 401 c 1,24,-1
 376 387 l 1,25,26
 382 291 382 291 447.5 245 c 128,-1,27
 513 199 513 199 626 199 c 0,28,29
 777 199 777 199 874 255 c 1,30,-1
 893 122 l 1,31,32
 850 65 850 65 772 29 c 128,-1,33
 694 -7 694 -7 622 -19 c 128,-1,34
 550 -31 550 -31 476 -31 c 0,35,36
 282 -31 282 -31 165 88 c 128,-1,37
 48 207 48 207 48 430 c 0,13,14
EndSplineSet
Colour: ffff
EndChar

StartChar: eight
Encoding: 56 56 101
Width: 1043
VWidth: 0
Flags: HMW
LayerCount: 2
Fore
SplineSet
448 986 m 0,0,1
 448 938 448 938 489 874.5 c 128,-1,2
 530 811 530 811 598 769 c 1,3,4
 637 795 637 795 637 874 c 0,5,6
 637 961 637 961 597.5 1012 c 128,-1,7
 558 1063 558 1063 511 1063 c 0,8,9
 483 1063 483 1063 465.5 1043 c 128,-1,10
 448 1023 448 1023 448 986 c 0,0,1
390 347 m 0,11,12
 390 247 390 247 434 181 c 128,-1,13
 478 115 478 115 566 115 c 0,14,15
 607 115 607 115 635.5 139.5 c 128,-1,16
 664 164 664 164 664 193 c 0,17,18
 664 216 664 216 653 237 c 128,-1,19
 642 258 642 258 615.5 282.5 c 128,-1,20
 589 307 589 307 562.5 328 c 128,-1,21
 536 349 536 349 488.5 386 c 128,-1,22
 441 423 441 423 404 454 c 1,23,24
 396 441 396 441 392.5 427 c 128,-1,25
 389 413 389 413 388.5 404 c 128,-1,26
 388 395 388 395 389 375.5 c 128,-1,27
 390 356 390 356 390 347 c 0,11,12
48 270 m 0,28,29
 48 471 48 471 262 558 c 1,30,-1
 262 573 l 1,31,32
 93 708 93 708 93 863 c 0,33,34
 93 928 93 928 121 987 c 128,-1,35
 149 1046 149 1046 203.5 1094 c 128,-1,36
 258 1142 258 1142 348 1170.5 c 128,-1,37
 438 1199 438 1199 553 1199 c 0,38,39
 725 1199 725 1199 830.5 1117 c 128,-1,40
 936 1035 936 1035 936 925 c 0,41,42
 936 856 936 856 884 789.5 c 128,-1,43
 832 723 832 723 743 681 c 1,44,-1
 744 665 l 1,45,46
 879 577 879 577 938 498.5 c 128,-1,47
 997 420 997 420 997 331 c 0,48,49
 997 184 997 184 852.5 78.5 c 128,-1,50
 708 -27 708 -27 485 -27 c 0,51,52
 375 -27 375 -27 289 -2 c 128,-1,53
 203 23 203 23 151.5 65.5 c 128,-1,54
 100 108 100 108 74 160 c 128,-1,55
 48 212 48 212 48 270 c 0,28,29
EndSplineSet
Substitution2: "'onum' Oldstyle Figures lookup 1-1" eight.osf
Colour: ffff
EndChar

StartChar: eight.osf
Encoding: 65536 -1 102
Width: 1053
VWidth: 0
Flags: HMW
LayerCount: 2
Fore
SplineSet
458 986 m 0,0,1
 458 938 458 938 499 874.5 c 128,-1,2
 540 811 540 811 608 769 c 1,3,4
 647 795 647 795 647 874 c 0,5,6
 647 961 647 961 607.5 1012 c 128,-1,7
 568 1063 568 1063 521 1063 c 0,8,9
 493 1063 493 1063 475.5 1043 c 128,-1,10
 458 1023 458 1023 458 986 c 0,0,1
400 347 m 0,11,12
 400 247 400 247 444 181 c 128,-1,13
 488 115 488 115 576 115 c 0,14,15
 617 115 617 115 645.5 139.5 c 128,-1,16
 674 164 674 164 674 193 c 0,17,18
 674 216 674 216 663 237 c 128,-1,19
 652 258 652 258 625.5 282.5 c 128,-1,20
 599 307 599 307 572.5 328 c 128,-1,21
 546 349 546 349 498.5 386 c 128,-1,22
 451 423 451 423 414 454 c 1,23,24
 406 441 406 441 402.5 427 c 128,-1,25
 399 413 399 413 398.5 404 c 128,-1,26
 398 395 398 395 399 375.5 c 128,-1,27
 400 356 400 356 400 347 c 0,11,12
48 270 m 0,28,29
 48 364 48 364 103.5 438 c 128,-1,30
 159 512 159 512 272 558 c 1,31,-1
 272 573 l 1,32,33
 103 708 103 708 103 863 c 0,34,35
 103 928 103 928 131 987 c 128,-1,36
 159 1046 159 1046 213.5 1094 c 128,-1,37
 268 1142 268 1142 358 1170.5 c 128,-1,38
 448 1199 448 1199 563 1199 c 0,39,40
 735 1199 735 1199 840.5 1117 c 128,-1,41
 946 1035 946 1035 946 925 c 0,42,43
 946 856 946 856 894 789.5 c 128,-1,44
 842 723 842 723 753 681 c 1,45,-1
 754 665 l 1,46,47
 889 577 889 577 948 498.5 c 128,-1,48
 1007 420 1007 420 1007 331 c 0,49,50
 1007 184 1007 184 862.5 78.5 c 128,-1,51
 718 -27 718 -27 495 -27 c 0,52,53
 280 -27 280 -27 164 60.5 c 128,-1,54
 48 148 48 148 48 270 c 0,28,29
EndSplineSet
Colour: ffff
EndChar

StartChar: emdash
Encoding: 8212 8212 103
Width: 1513
VWidth: 0
Flags: HMW
LayerCount: 2
Fore
SplineSet
61 367 m 1,0,-1
 82 554 l 1,1,-1
 1452 562 l 1,2,-1
 1426 372 l 1,3,-1
 61 367 l 1,0,-1
EndSplineSet
Colour: ffff
EndChar

StartChar: endash
Encoding: 8211 8211 104
Width: 880
VWidth: 0
Flags: HMW
LayerCount: 2
Fore
SplineSet
61 367 m 1,0,-1
 84 554 l 1,1,-1
 819 562 l 1,2,-1
 790 372 l 1,3,-1
 61 367 l 1,0,-1
EndSplineSet
Colour: ffff
EndChar

StartChar: equal
Encoding: 61 61 105
Width: 768
VWidth: 0
Flags: HMW
LayerCount: 2
Fore
SplineSet
68 276 m 1,0,-1
 79 464 l 1,1,-1
 704 464 l 1,2,-1
 691 276 l 1,3,-1
 68 276 l 1,0,-1
65 557 m 1,4,-1
 76 745 l 1,5,-1
 701 745 l 1,6,-1
 688 557 l 1,7,-1
 65 557 l 1,4,-1
EndSplineSet
Colour: ffff
EndChar

StartChar: eth
Encoding: 240 240 106
Width: 1034
VWidth: 0
Flags: HMW
LayerCount: 2
Back
SplineSet
0 451 m 0,0,1
 0 556 0 556 50 651.5 c 0
 100 747 100 747 177 810 c 0
 254 873 254 873 343.5 910 c 0
 433 947 433 947 514 947 c 1,2,3
 459.279 947 459.279 947 452.864 982.707 c 0
 448.362 1007.76 448.362 1007.76 466.722 1023.45 c 0
 487.347 1041.07 487.347 1041.07 502.386 1011.72 c 0
 503.756 1009.05 503.756 1009.05 505 1006 c 1,4,-1
 510 1012 l 1,5,6
 508 999 508 999 503 993 c 0
 498 987 498 987 493 992.5 c 0
 488 998 488 998 487 1015 c 1,7,-1
 336 997 l 1,8,-1
 345 1119 l 1,9,-1
 441 1136 l 1,10,11
 419 1220 419 1220 326 1302 c 1,12,-1
 542 1302 l 1,13,14
 538.043 1306.22 538.043 1306.22 540.79 1305.8 c 0
 556.414 1303.43 556.414 1303.43 614.456 1251.41 c 0
 641.357 1227.31 641.357 1227.31 668 1199 c 1,15,-1
 795 1219 l 1,16,-1
 784 1090 l 1,17,-1
 754 1084 l 1,18,19
 944 812 944 812 944 464 c 0,20,21
 944 354 944 354 900.5 259 c 0
 857 164 857 164 787.5 103 c 0
 718 42 718 42 635 7.5 c 0
 552 -27 552 -27 471 -27 c 0,22,23
 370 -27 370 -27 289.5 -0.5 c 0
 209 26 209 26 155.5 71 c 0
 102 116 102 116 66.5 178 c 0
 31 240 31 240 15.5 307.5 c 0
 0 375 0 375 0 451 c 0,0,1
334 497 m 1,24,25
 338 421 338 421 347 363 c 0
 356 305 356 305 373.5 255.5 c 0
 391 206 391 206 421 179.5 c 0
 451 153 451 153 492 153 c 0,26,27
 516 153 516 153 533.5 155.5 c 0
 551 158 551 158 565 160.5 c 0
 579 163 579 163 589 171.5 c 0
 599 180 599 180 606 186 c 0
 613 192 613 192 617 208.5 c 0
 621 225 621 225 623.5 235 c 0
 626 245 626 245 626.5 270.5 c 0
 627 296 627 296 627 312 c 0
 627 328 627 328 626.5 364 c 0
 626 400 626 400 626 423 c 0,28,29
 626 465 626 465 611.5 544.5 c 0
 597 624 597 624 566.5 701 c 0
 536 778 536 778 501 783 c 1,30,-1
 488 783 l 1,31,32
 428 786 428 786 396.5 765 c 0
 365 744 365 744 349.5 681 c 0
 334 618 334 618 334 497 c 1,24,25
EndSplineSet
Fore
SplineSet
381 497 m 1,0,1
 389 356 389 356 441 254.5 c 128,-1,2
 493 153 493 153 559 153 c 0,3,4
 584 153 584 153 601.5 160 c 128,-1,5
 619 167 619 167 630.5 186 c 128,-1,6
 642 205 642 205 648.5 225 c 128,-1,7
 655 245 655 245 658 285 c 128,-1,8
 661 325 661 325 662 359 c 128,-1,9
 663 393 663 393 663 453 c 0,10,11
 663 538 663 538 636 614.5 c 128,-1,12
 609 691 609 691 569 734.5 c 128,-1,13
 529 778 529 778 489 778 c 0,14,15
 442 778 442 778 411.5 709 c 128,-1,16
 381 640 381 640 381 497 c 1,0,1
47 451 m 0,17,18
 47 536 47 536 86.5 626.5 c 128,-1,19
 126 717 126 717 186.5 786.5 c 128,-1,20
 247 856 247 856 322 901 c 128,-1,21
 397 946 397 946 464 946 c 0,22,23
 540 946 540 946 591 887 c 1,24,-1
 595 893 l 1,25,26
 568 977 568 977 539 1046 c 1,27,-1
 337 1006 l 1,28,-1
 345 1132 l 1,29,-1
 483 1163 l 1,30,31
 432 1259 432 1259 383 1302 c 1,32,-1
 639 1302 l 1,33,34
 685 1266 685 1266 729 1219 c 1,35,-1
 893 1256 l 1,36,-1
 881 1114 l 1,37,-1
 819 1102 l 1,38,39
 901 977 901 977 945 827 c 128,-1,40
 989 677 989 677 989 531 c 0,41,42
 989 439 989 439 971.5 357.5 c 128,-1,43
 954 276 954 276 916.5 205 c 128,-1,44
 879 134 879 134 824.5 83 c 128,-1,45
 770 32 770 32 691.5 2.5 c 128,-1,46
 613 -27 613 -27 518 -27 c 0,47,48
 417 -27 417 -27 336.5 -0.5 c 128,-1,49
 256 26 256 26 202.5 71 c 128,-1,50
 149 116 149 116 113.5 178 c 128,-1,51
 78 240 78 240 62.5 307.5 c 128,-1,52
 47 375 47 375 47 451 c 0,17,18
EndSplineSet
Colour: ffff
EndChar

StartChar: exclam
Encoding: 33 33 107
Width: 518
VWidth: 0
Flags: HMW
LayerCount: 2
Back
SplineSet
10 1094 m 5,0,-1
 30 1244 l 1,1,-1
 757 1244 l 1,2,-1
 741 1084 l 1,3,-1
 562 1017 l 1,4,-1
 562 223 l 1,5,-1
 742 160 l 1,6,-1
 729 0 l 1,7,-1
 12 0 l 1,8,-1
 22 142 l 1,9,-1
 198 221 l 1,10,-1
 198 1020 l 1,11,-1
 10 1094 l 5,0,-1
EndSplineSet
Fore
SplineSet
66 1194 m 0,0,1
 66 1306 66 1306 272 1306 c 0,2,3
 354 1306 354 1306 390 1286.5 c 128,-1,4
 426 1267 426 1267 426 1215 c 0,5,6
 426 1052 426 1052 402 810.5 c 128,-1,7
 378 569 378 569 347 362 c 1,8,-1
 180 391 l 1,9,10
 144 579 144 579 105 850.5 c 128,-1,11
 66 1122 66 1122 66 1194 c 0,0,1
47 127 m 0,12,13
 47 187 47 187 96.5 233.5 c 128,-1,14
 146 280 146 280 256 280 c 0,15,16
 373 280 373 280 423.5 234.5 c 128,-1,17
 474 189 474 189 474 130 c 0,18,19
 474 -26 474 -26 255 -26 c 0,20,21
 47 -26 47 -26 47 127 c 0,12,13
EndSplineSet
Colour: ffff
EndChar

StartChar: exclamdown
Encoding: 161 161 108
Width: 521
VWidth: 0
Flags: HMW
LayerCount: 2
Fore
SplineSet
407 -294 m 0,0,1
 407 -406 407 -406 201 -406 c 0,2,3
 119 -406 119 -406 83 -386.5 c 128,-1,4
 47 -367 47 -367 47 -315 c 0,5,6
 47 -152 47 -152 71 89.5 c 128,-1,7
 95 331 95 331 126 538 c 1,8,-1
 293 509 l 1,9,10
 329 321 329 321 368 49.5 c 128,-1,11
 407 -222 407 -222 407 -294 c 0,0,1
426 773 m 0,12,13
 426 713 426 713 376.5 666.5 c 128,-1,14
 327 620 327 620 217 620 c 0,15,16
 100 620 100 620 49.5 665.5 c 128,-1,17
 -1 711 -1 711 -1 770 c 0,18,19
 -1 926 -1 926 218 926 c 0,20,21
 426 926 426 926 426 773 c 0,12,13
EndSplineSet
Colour: ffff
EndChar

StartChar: f
Encoding: 102 102 109
Width: 827
VWidth: 0
Flags: HMW
LayerCount: 2
Back
SplineSet
790.311 602.595 m 4,0,1
 790.311 669.853 790.311 669.853 759.879 728.676 c 0
 729.448 787.5 729.448 787.5 672.805 832.014 c 0
 616.162 876.528 616.162 876.528 528.254 901.926 c 0
 440.347 927.325 440.347 927.325 332.311 926.595 c 1,2,-1
 332.311 1021.59 l 2,3,4
 332.311 1085.99 332.311 1085.99 368.753 1123.5 c 0
 405.194 1161 405.194 1161 447 1161 c 0,5,6
 489.137 1161 489.137 1161 511.406 1121.63 c 0
 533.676 1082.27 533.676 1082.27 551.311 982.595 c 1,7,8
 598.311 975.202 598.311 975.202 643.978 987.121 c 0
 689.644 999.041 689.644 999.041 722.978 1035.73 c 0
 756.311 1072.42 756.311 1072.42 756.311 1127.59 c 0,9,10
 756.311 1174.68 756.311 1174.68 706.796 1219.95 c 0
 657.281 1265.23 657.281 1265.23 586.217 1295.43 c 0
 515.152 1325.63 515.152 1325.63 439.702 1344.11 c 0
 364.253 1362.59 364.253 1362.59 309.311 1362.59 c 0,11,12
 225.232 1362.59 225.232 1362.59 169.907 1344.98 c 0
 114.582 1327.38 114.582 1327.38 82.3862 1288.04 c 0
 50.1905 1248.7 50.1905 1248.7 37.2505 1193.55 c 0
 24.3105 1138.39 24.3105 1138.39 24.3105 1055.59 c 2,13,-1
 24.3105 788.595 l 2,14,15
 24.3105 749.181 24.3105 749.181 18.5751 724.941 c 0
 12.8397 700.702 12.8397 700.702 -4.50221 682.519 c 0
 -21.8441 664.336 -21.8441 664.336 -45.7464 653.043 c 0
 -69.6487 641.751 -69.6487 641.751 -113.689 627.595 c 2,16,-1
 -141.689 618.595 l 1,17,-1
 -116.689 448.595 l 1,18,19
 -53.1712 418.809 -53.1712 418.809 -0.97308 404.764 c 0
 51.2251 390.718 51.2251 390.718 119.685 390.718 c 0,20,21
 271.358 390.718 271.358 390.718 321.311 520.595 c 2,22,-1
 326.311 533.595 l 1,23,-1
 339.311 539.595 l 1,24,25
 361.611 479.496 361.611 479.496 435.729 435.728 c 0
 509.846 391.96 509.846 391.96 589.382 391.96 c 0,26,27
 674.143 391.96 674.143 391.96 732.227 445.94 c 0
 790.311 499.919 790.311 499.919 790.311 602.595 c 4,0,1
332.311 648.595 m 5,28,-1
 332.311 812.595 l 1,29,30
 416.727 803.064 416.727 803.064 455.622 768.19 c 0
 494.518 733.316 494.518 733.316 494.518 694.068 c 0,31,32
 494.518 662.676 494.518 662.676 472.79 641.396 c 0
 451.061 620.117 451.061 620.117 413.979 620.117 c 0,33,34
 371.741 620.117 371.741 620.117 332.311 648.595 c 5,28,-1
-186 0 m 1,35,-1
 -171 176 l 1,36,-1
 -19 230 l 1,37,-1
 -19 966 l 1,38,-1
 -186 1068 l 1,39,-1
 -152 1241 l 1,40,-1
 239 1266 l 1,41,-1
 296 1209 l 1,42,-1
 296 230 l 1,43,-1
 452 174 l 1,44,-1
 439 0 l 1,45,-1
 -186 0 l 1,35,-1
EndSplineSet
Fore
SplineSet
46 0 m 1,0,-1
 58 158 l 1,1,-1
 213 230 l 1,2,-1
 213 700 l 1,3,-1
 63 700 l 1,4,-1
 73 869 l 1,5,-1
 211 893 l 1,6,7
 223 1079 223 1079 346 1187.5 c 128,-1,8
 469 1296 469 1296 658 1296 c 0,9,10
 692 1296 692 1296 717 1294.5 c 128,-1,11
 742 1293 742 1293 778 1288.5 c 128,-1,12
 814 1284 814 1284 840 1273 c 128,-1,13
 866 1262 866 1262 890.5 1245 c 128,-1,14
 915 1228 915 1228 928 1200 c 128,-1,15
 941 1172 941 1172 941 1135 c 0,16,17
 941 1071 941 1071 877.5 1021 c 128,-1,18
 814 971 814 971 744 965 c 1,19,20
 722 1023 722 1023 681.5 1078.5 c 128,-1,21
 641 1134 641 1134 593 1134 c 0,22,23
 552 1134 552 1134 530.5 1097.5 c 128,-1,24
 509 1061 509 1061 509 955 c 2,25,-1
 509 886 l 1,26,-1
 772 886 l 1,27,-1
 758 700 l 1,28,-1
 509 700 l 1,29,-1
 509 240 l 1,30,-1
 754 172 l 1,31,-1
 746 0 l 1,32,-1
 46 0 l 1,0,-1
EndSplineSet
Colour: ffff
EndChar

StartChar: five
Encoding: 53 53 110
Width: 921
VWidth: 0
Flags: HMW
LayerCount: 2
Fore
SplineSet
43 7 m 1,0,-1
 120 428 l 1,1,-1
 270 392 l 1,2,-1
 312 117 l 1,3,4
 338 101 338 101 399 101 c 0,5,6
 467 101 467 101 507 138 c 128,-1,7
 547 175 547 175 547 248 c 0,8,9
 547 285 547 285 531.5 322.5 c 128,-1,10
 516 360 516 360 482.5 395.5 c 128,-1,11
 449 431 449 431 401.5 458.5 c 128,-1,12
 354 486 354 486 285.5 502.5 c 128,-1,13
 217 519 217 519 136 519 c 1,14,-1
 259 1166 l 1,15,-1
 808 1198 l 1,16,-1
 765 888 l 1,17,-1
 367 875 l 1,18,-1
 355 770 l 1,19,20
 486 769 486 769 588 736.5 c 128,-1,21
 690 704 690 704 750.5 648.5 c 128,-1,22
 811 593 811 593 841.5 525 c 128,-1,23
 872 457 872 457 872 381 c 0,24,25
 872 281 872 281 824 197.5 c 128,-1,26
 776 114 776 114 698 60.5 c 128,-1,27
 620 7 620 7 523.5 -22.5 c 128,-1,28
 427 -52 427 -52 326 -52 c 0,29,30
 250 -52 250 -52 168 -36.5 c 128,-1,31
 86 -21 86 -21 43 7 c 1,0,-1
EndSplineSet
Substitution2: "'onum' Oldstyle Figures lookup 1-1" five.osf
Colour: ffff
EndChar

StartChar: five.osf
Encoding: 65537 -1 111
Width: 958
VWidth: 0
Flags: HMW
LayerCount: 2
Fore
SplineSet
39 -77 m 0,0,1
 39 7 39 7 101.5 61.5 c 128,-1,2
 164 116 164 116 272 135 c 1,3,4
 315 -171 315 -171 458 -171 c 0,5,6
 511 -171 511 -171 550.5 -138 c 128,-1,7
 590 -105 590 -105 607.5 -57 c 128,-1,8
 625 -9 625 -9 625 45 c 0,9,10
 625 169 625 169 514 262.5 c 128,-1,11
 403 356 403 356 215 377 c 1,12,-1
 371 980 l 1,13,-1
 883 1017 l 1,14,-1
 842 760 l 1,15,-1
 435 757 l 1,16,-1
 421 653 l 1,17,18
 542 637 542 637 637 591 c 128,-1,19
 732 545 732 545 790 478.5 c 128,-1,20
 848 412 848 412 878 333 c 128,-1,21
 908 254 908 254 908 168 c 0,22,23
 908 94 908 94 887.5 25.5 c 128,-1,24
 867 -43 867 -43 823.5 -104 c 128,-1,25
 780 -165 780 -165 718.5 -210 c 128,-1,26
 657 -255 657 -255 569.5 -281.5 c 128,-1,27
 482 -308 482 -308 379 -308 c 0,28,29
 235 -308 235 -308 137 -239 c 128,-1,30
 39 -170 39 -170 39 -77 c 0,0,1
EndSplineSet
Colour: ffff
EndChar

StartChar: four
Encoding: 52 52 112
Width: 1210
VWidth: 0
Flags: HMW
LayerCount: 2
Fore
SplineSet
362 514 m 1,0,-1
 578 514 l 1,1,-1
 578 817 l 1,2,-1
 362 514 l 1,0,-1
47 464 m 1,3,-1
 793 1243 l 1,4,-1
 919 1210 l 1,5,6
 907 970 907 970 907 682 c 2,7,-1
 907 514 l 1,8,-1
 1162 514 l 1,9,-1
 1146 316 l 1,10,-1
 907 316 l 1,11,-1
 907 183 l 1,12,-1
 1129 126 l 1,13,-1
 1121 -2 l 1,14,-1
 327 -2 l 1,15,-1
 331 107 l 1,16,-1
 579 182 l 1,17,-1
 579 319 l 1,18,-1
 72 319 l 1,19,-1
 47 464 l 1,3,-1
EndSplineSet
Substitution2: "'onum' Oldstyle Figures lookup 1-1" four.osf
Colour: ffff
EndChar

StartChar: four.osf
Encoding: 65538 -1 113
Width: 1187
VWidth: 0
Flags: HMW
LayerCount: 2
Fore
SplineSet
348 235 m 1,0,-1
 556 235 l 1,1,-1
 556 527 l 1,2,-1
 348 235 l 1,0,-1
45 181 m 1,3,-1
 743 1022 l 1,4,-1
 899 988 l 1,5,6
 890 808 890 808 890 346 c 2,7,-1
 890 235 l 1,8,-1
 1142 235 l 1,9,-1
 1122 8 l 1,10,-1
 895 8 l 1,11,-1
 895 -260 l 1,12,-1
 552 -317 l 1,13,-1
 552 13 l 1,14,-1
 84 13 l 1,15,-1
 45 181 l 1,3,-1
EndSplineSet
Colour: ffff
EndChar

StartChar: g
Encoding: 103 103 114
Width: 1089
VWidth: 0
Flags: HMW
LayerCount: 2
Back
SplineSet
0 -149 m 0,0,1
 0 -105 0 -105 43 -58 c 0
 86 -11 86 -11 158 5 c 1,2,-1
 158 22 l 1,3,4
 64 68 64 68 64 154 c 0,5,6
 64 220 64 220 120.5 278.5 c 0
 177 337 177 337 263 352 c 1,7,-1
 260 370 l 1,8,9
 177 413 177 413 135 480 c 0
 93 547 93 547 93 623 c 0,10,11
 93 750 93 750 197.5 847 c 0
 302 944 302 944 472 944 c 0,12,13
 639 944 639 944 751 881 c 1,14,-1
 987 913 l 1,15,-1
 1017 879 l 1,16,-1
 972 686 l 1,17,-1
 938 682 l 1,18,-1
 848 710 l 1,19,-1
 843 705 l 1,20,21
 846 679 846 679 846 655 c 0,22,23
 846 554 846 554 795 479.5 c 0
 744 405 744 405 662 369 c 0
 580 333 580 333 480 333 c 0,24,25
 451 333 451 333 416 338 c 1,26,27
 398 289 398 289 426.5 268.5 c 0
 455 248 455 248 544 244 c 2,28,-1
 620 241 l 2,29,30
 795 234 795 234 877.5 178 c 0
 960 122 960 122 960 -4 c 0,31,32
 960 -73 960 -73 921 -140 c 0
 882 -207 882 -207 811.5 -262 c 0
 741 -317 741 -317 630 -351 c 0
 519 -385 519 -385 386 -385 c 0,33,34
 340 -385 340 -385 293 -379.5 c 0
 246 -374 246 -374 191.5 -358 c 0
 137 -342 137 -342 96 -317 c 0
 55 -292 55 -292 27.5 -248.5 c 0
 0 -205 0 -205 0 -149 c 0,0,1
295 3 m 1,35,36
 259 -94 259 -94 300.5 -150.5 c 0
 342 -207 342 -207 469 -207 c 0,37,38
 649 -207 649 -207 649 -103 c 0,39,40
 649 -51 649 -51 616.5 -28 c 0
 584 -5 584 -5 512 -3 c 2,41,-1
 295 3 l 1,35,36
371 645 m 0,42,43
 371 506.037 371 506.037 466.277 465.342 c 1
 465.19 464.129 465.19 464.129 463 464 c 1,44,45
 529 464 529 464 548.5 497 c 0
 568 530 568 530 568 638 c 0,46,47
 568 649 568 649 563.5 672.5 c 0
 559 696 559 696 548 730.5 c 0
 537 765 537 765 511.5 789.5 c 0
 486 814 486 814 450 814 c 0,48,49
 416 814 416 814 393.5 775 c 0
 371 736 371 736 371 645 c 0,42,43
EndSplineSet
Fore
SplineSet
404 645 m 0,0,1
 404 506 404 506 499 465 c 1,2,3
 498 464 498 464 496 464 c 1,4,5
 562 464 562 464 581.5 497 c 128,-1,6
 601 530 601 530 601 638 c 0,7,8
 601 649 601 649 596.5 672.5 c 128,-1,9
 592 696 592 696 581 730.5 c 128,-1,10
 570 765 570 765 544.5 789.5 c 128,-1,11
 519 814 519 814 483 814 c 0,12,13
 449 814 449 814 426.5 775 c 128,-1,14
 404 736 404 736 404 645 c 0,0,1
311 -79 m 0,15,16
 311 -207 311 -207 502 -207 c 0,17,18
 682 -207 682 -207 682 -103 c 0,19,20
 682 -49 682 -49 645.5 -23 c 128,-1,21
 609 3 609 3 525 3 c 2,22,-1
 328 3 l 1,23,24
 311 -43 311 -43 311 -79 c 0,15,16
33 -149 m 0,25,26
 33 -105 33 -105 76 -58 c 128,-1,27
 119 -11 119 -11 191 5 c 1,28,-1
 191 22 l 1,29,30
 143 45 143 45 120 80 c 128,-1,31
 97 115 97 115 97 174 c 0,32,33
 97 235 97 235 159 287 c 128,-1,34
 221 339 221 339 292 355 c 1,35,-1
 289 373 l 1,36,37
 232 396 232 396 179 469 c 128,-1,38
 126 542 126 542 126 623 c 0,39,40
 126 750 126 750 230.5 847 c 128,-1,41
 335 944 335 944 505 944 c 0,42,43
 672 944 672 944 784 881 c 1,44,-1
 1020 913 l 1,45,-1
 1050 879 l 1,46,-1
 1005 686 l 1,47,-1
 971 682 l 1,48,-1
 881 710 l 1,49,-1
 876 705 l 1,50,51
 879 679 879 679 879 655 c 0,52,53
 879 554 879 554 828 479.5 c 128,-1,54
 777 405 777 405 695 369 c 128,-1,55
 613 333 613 333 513 333 c 0,56,57
 501 333 501 333 445 341 c 1,58,59
 420 314 420 314 420 290 c 0,60,61
 420 240 420 240 516 240 c 2,62,-1
 653 240 l 2,63,64
 825 240 825 240 909 181.5 c 128,-1,65
 993 123 993 123 993 -4 c 0,66,67
 993 -73 993 -73 954 -140 c 128,-1,68
 915 -207 915 -207 844.5 -262 c 128,-1,69
 774 -317 774 -317 663 -351 c 128,-1,70
 552 -385 552 -385 419 -385 c 0,71,72
 373 -385 373 -385 326 -379.5 c 128,-1,73
 279 -374 279 -374 224.5 -358 c 128,-1,74
 170 -342 170 -342 129 -317 c 128,-1,75
 88 -292 88 -292 60.5 -248.5 c 128,-1,76
 33 -205 33 -205 33 -149 c 0,25,26
EndSplineSet
Colour: ffff
EndChar

StartChar: germandbls
Encoding: 223 223 115
Width: 1380
VWidth: 0
Flags: HMW
LayerCount: 2
Back
SplineSet
0 0 m 1,0,-1
 12 158 l 1,1,-1
 165 230 l 1,2,-1
 165 704 l 1,3,-1
 26 704 l 1,4,-1
 31 832 l 1,5,-1
 167 855 l 1,6,7
 174 925 174 925 224.5 1005.5 c 0
 275 1086 275 1086 349.5 1154 c 0
 424 1222 424 1222 521 1267 c 0
 618 1312 618 1312 710 1312 c 0,8,9
 770 1312 770 1312 816 1294.5 c 0
 862 1277 862 1277 889 1250 c 0
 916 1223 916 1223 933 1187 c 0
 950 1151 950 1151 956 1118.5 c 0
 962 1086 962 1086 962 1052 c 0,10,11
 962 989 962 989 946.5 943 c 0
 931 897 931 897 908 873.5 c 0
 885 850 885 850 858.5 829.5 c 0
 832 809 832 809 809 794 c 0
 786 779 786 779 770.5 752 c 0
 755 725 755 725 755 687 c 0,12,13
 755 671 755 671 776.5 657.5 c 0
 798 644 798 644 833.5 635 c 0
 869 626 869 626 914 612.5 c 0
 959 599 959 599 1006.5 584 c 0
 1054 569 1054 569 1099 541 c 0
 1144 513 1144 513 1179.5 478 c 0
 1215 443 1215 443 1236.5 387 c 0
 1258 331 1258 331 1258 262 c 0,14,15
 1258 191 1258 191 1203 124 c 0
 1148 57 1148 57 1068 18 c 0
 988 -21 988 -21 912 -21 c 0,16,17
 841 -21 841 -21 780 -12 c 0
 719 -3 719 -3 681.5 9.5 c 0
 644 22 644 22 617 36 c 0
 590 50 590 50 579 61 c 0
 568 72 568 72 568 77 c 0,18,19
 568 185 568 185 630 243.5 c 0
 692 302 692 302 802 299 c 1,20,21
 813.508 287.492 813.508 287.492 900.664 222.199 c 1
 965.152 171.977 965.152 171.977 944 170 c 1,22,23
 946 170 946 170 956.5 157.5 c 0
 967 145 967 145 976 136.5 c 0
 985 128 985 128 992.5 139.5 c 0
 1000 151 1000 151 1000 191 c 0,24,25
 1000 207 1000 207 974 221.5 c 0
 948 236 948 236 906 250 c 0
 864 264 864 264 813 281 c 0
 762 298 762 298 711.5 325 c 0
 661 352 661 352 619 386 c 0
 577 420 577 420 551 474 c 0
 525 528 525 528 525 594 c 0,26,27
 525 643 525 643 542 685 c 0
 559 727 559 727 583.5 756.5 c 0
 608 786 608 786 633 812 c 0
 658 838 658 838 675 868 c 0
 692 898 692 898 692 929 c 0,28,29
 692 944 692 944 692.5 969 c 0
 693 994 693 994 693 1005.5 c 0
 693 1017 693 1017 691.5 1035.5 c 0
 690 1054 690 1054 686.5 1063 c 0
 683 1072 683 1072 676 1083.5 c 0
 669 1095 669 1095 657.5 1100 c 0
 646 1105 646 1105 629.5 1108.5 c 0
 613 1112 613 1112 590 1112 c 0,30,31
 547.453 1112 547.453 1112 530.353 1100.63 c 0
 463 1055.85 463 1055.85 463 766 c 2,32,-1
 465 0 l 1,33,-1
 0 0 l 1,0,-1
EndSplineSet
Fore
SplineSet
46 0 m 1,0,-1
 58 158 l 1,1,-1
 213 230 l 1,2,-1
 213 700 l 1,3,-1
 63 700 l 1,4,-1
 73 849 l 1,5,-1
 211 873 l 1,6,7
 219 998 219 998 298 1093.5 c 128,-1,8
 377 1189 377 1189 500 1237.5 c 128,-1,9
 623 1286 623 1286 768 1286 c 0,10,11
 874 1286 874 1286 949.5 1275 c 128,-1,12
 1025 1264 1025 1264 1081.5 1238.5 c 128,-1,13
 1138 1213 1138 1213 1166 1167.5 c 128,-1,14
 1194 1122 1194 1122 1194 1056 c 0,15,16
 1194 1001 1194 1001 1160 959 c 128,-1,17
 1126 917 1126 917 1077.5 892 c 128,-1,18
 1029 867 1029 867 980.5 846 c 128,-1,19
 932 825 932 825 898 800 c 128,-1,20
 864 775 864 775 864 745 c 0,21,22
 864 716 864 716 899.5 689.5 c 128,-1,23
 935 663 935 663 987.5 642 c 128,-1,24
 1040 621 1040 621 1102 588 c 128,-1,25
 1164 555 1164 555 1216.5 517 c 128,-1,26
 1269 479 1269 479 1304.5 415 c 128,-1,27
 1340 351 1340 351 1340 272 c 0,28,29
 1340 126 1340 126 1220 45 c 128,-1,30
 1100 -36 1100 -36 909 -36 c 0,31,32
 825 -36 825 -36 746 -12 c 128,-1,33
 667 12 667 12 614 59.5 c 128,-1,34
 561 107 561 107 561 167 c 0,35,36
 561 239 561 239 611 279.5 c 128,-1,37
 661 320 661 320 753 328 c 1,38,39
 781 229 781 229 829 176 c 128,-1,40
 877 123 877 123 936 123 c 0,41,42
 996 123 996 123 1020.5 136.5 c 128,-1,43
 1045 150 1045 150 1045 186 c 0,44,45
 1045 209 1045 209 1020 231.5 c 128,-1,46
 995 254 995 254 955.5 275 c 128,-1,47
 916 296 916 296 868 320 c 128,-1,48
 820 344 820 344 772 375 c 128,-1,49
 724 406 724 406 684.5 442.5 c 128,-1,50
 645 479 645 479 620 531 c 128,-1,51
 595 583 595 583 595 644 c 0,52,53
 595 716 595 716 621.5 775 c 128,-1,54
 648 834 648 834 686 870 c 128,-1,55
 724 906 724 906 762 934.5 c 128,-1,56
 800 963 800 963 826.5 988 c 128,-1,57
 853 1013 853 1013 853 1035 c 0,58,59
 853 1134 853 1134 703 1134 c 0,60,61
 682 1134 682 1134 660 1130.5 c 128,-1,62
 638 1127 638 1127 609.5 1115 c 128,-1,63
 581 1103 581 1103 560 1084.5 c 128,-1,64
 539 1066 539 1066 524 1032.5 c 128,-1,65
 509 999 509 999 509 955 c 2,66,-1
 509 0 l 1,67,-1
 46 0 l 1,0,-1
EndSplineSet
Colour: ffff
EndChar

StartChar: grave
Encoding: 96 96 116
Width: 507
VWidth: 0
Flags: HMW
LayerCount: 2
Fore
SplineSet
69 1656 m 1,0,-1
 287 1696 l 1,1,-1
 437 1348 l 1,2,-1
 278 1317 l 1,3,-1
 69 1656 l 1,0,-1
EndSplineSet
Colour: ffff
EndChar

StartChar: greater
Encoding: 62 62 117
Width: 877
VWidth: 0
Flags: MW
LayerCount: 2
Fore
SplineSet
42 36 m 1,0,-1
 390 454 l 1,1,-1
 54 840 l 1,2,-1
 201 974 l 1,3,-1
 830 504 l 1,4,-1
 820 410 l 1,5,-1
 188 -84 l 1,6,-1
 42 36 l 1,0,-1
EndSplineSet
Colour: ffff
EndChar

StartChar: guillemotleft
Encoding: 171 171 118
Width: 767
VWidth: 0
Flags: HMW
LayerCount: 2
Fore
SplineSet
49 469 m 1,0,-1
 316 818 l 1,1,-1
 390 712 l 1,2,-1
 275 460 l 1,3,-1
 403 192 l 1,4,-1
 309 75 l 1,5,-1
 46 447 l 1,6,-1
 49 469 l 1,0,-1
359 469 m 1,7,-1
 626 818 l 1,8,-1
 700 712 l 1,9,-1
 585 460 l 1,10,-1
 713 192 l 1,11,-1
 619 75 l 1,12,-1
 356 447 l 1,13,-1
 359 469 l 1,7,-1
EndSplineSet
Colour: ffff
EndChar

StartChar: guillemotright
Encoding: 187 187 119
Width: 767
VWidth: 0
Flags: HMW
LayerCount: 2
Fore
SplineSet
719 469 m 1,0,-1
 722 447 l 1,1,-1
 459 75 l 1,2,-1
 365 192 l 1,3,-1
 493 460 l 1,4,-1
 378 712 l 1,5,-1
 452 818 l 1,6,-1
 719 469 l 1,0,-1
409 469 m 1,7,-1
 412 447 l 1,8,-1
 149 75 l 1,9,-1
 55 192 l 1,10,-1
 183 460 l 1,11,-1
 68 712 l 1,12,-1
 142 818 l 1,13,-1
 409 469 l 1,7,-1
EndSplineSet
Colour: ffff
EndChar

StartChar: guilsinglleft
Encoding: 8249 8249 120
Width: 457
VWidth: 0
Flags: HMW
LayerCount: 2
Fore
SplineSet
52 469 m 1,0,-1
 319 818 l 1,1,-1
 393 712 l 1,2,-1
 278 460 l 1,3,-1
 406 192 l 1,4,-1
 312 75 l 1,5,-1
 49 447 l 1,6,-1
 52 469 l 1,0,-1
EndSplineSet
Colour: ffff
EndChar

StartChar: guilsinglright
Encoding: 8250 8250 121
Width: 457
VWidth: 0
Flags: HMW
LayerCount: 2
Fore
SplineSet
357 469 m 1,0,-1
 360 447 l 1,1,-1
 97 75 l 1,2,-1
 3 192 l 1,3,-1
 131 460 l 1,4,-1
 16 712 l 1,5,-1
 90 818 l 1,6,-1
 357 469 l 1,0,-1
EndSplineSet
Colour: ffff
EndChar

StartChar: h
Encoding: 104 104 122
Width: 1258
VWidth: 0
Flags: HMW
LayerCount: 2
Fore
SplineSet
58 -2 m 1,0,-1
 75 155 l 1,1,-1
 217 227 l 1,2,-1
 217 982 l 1,3,-1
 43 1083 l 1,4,-1
 68 1247 l 1,5,-1
 458 1274 l 1,6,-1
 518 1219 l 1,7,-1
 518 898 l 1,8,-1
 498 765 l 1,9,-1
 513 759 l 1,10,11
 674 927 674 927 814 927 c 0,12,13
 930 927 930 927 995 857.5 c 128,-1,14
 1060 788 1060 788 1060 639 c 2,15,-1
 1060 227 l 1,16,-1
 1208 163 l 1,17,-1
 1185 -2 l 1,18,-1
 749 -2 l 1,19,-1
 749 155 l 1,20,-1
 749 227 l 1,21,-1
 749 427 l 2,22,23
 749 520 749 520 725.5 560 c 128,-1,24
 702 600 702 600 654 600 c 0,25,26
 592 600 592 600 535 550 c 1,27,-1
 535 227 l 1,28,-1
 648 164 l 1,29,-1
 620 -2 l 1,30,-1
 58 -2 l 1,0,-1
EndSplineSet
Colour: ffff
EndChar

StartChar: hyphen
Encoding: 45 45 123
Width: 717
VWidth: 0
Flags: HMW
LayerCount: 2
Fore
SplineSet
61 357 m 1,0,-1
 76 535 l 1,1,-1
 656 557 l 1,2,-1
 641 372 l 1,3,-1
 61 357 l 1,0,-1
EndSplineSet
Colour: ffff
EndChar

StartChar: i
Encoding: 105 105 124
Width: 739
VWidth: 0
Flags: HMW
LayerCount: 2
Fore
SplineSet
119 1138 m 0,0,1
 119 1204 119 1204 180 1247 c 128,-1,2
 241 1290 241 1290 351 1290 c 0,3,4
 465 1290 465 1290 526 1246 c 128,-1,5
 587 1202 587 1202 587 1137 c 0,6,7
 587 1069 587 1069 528 1023.5 c 128,-1,8
 469 978 469 978 349 978 c 0,9,10
 227 978 227 978 173 1022.5 c 128,-1,11
 119 1067 119 1067 119 1138 c 0,0,1
49 0 m 1,12,-1
 57 176 l 1,13,-1
 211 230 l 1,14,-1
 211 619 l 1,15,-1
 63 728 l 1,16,-1
 96 901 l 1,17,-1
 469 928 l 1,18,-1
 525 872 l 1,19,-1
 525 230 l 1,20,-1
 687 174 l 1,21,-1
 676 0 l 1,22,-1
 49 0 l 1,12,-1
EndSplineSet
Colour: ffff
EndChar

StartChar: iacute
Encoding: 237 237 125
Width: 741
VWidth: 0
Flags: HMW
LayerCount: 2
Fore
SplineSet
50 0 m 1,0,-1
 58 176 l 1,1,-1
 212 230 l 1,2,-1
 212 571 l 1,3,-1
 64 676 l 1,4,-1
 97 854 l 1,5,-1
 470 880 l 1,6,-1
 526 819 l 1,7,-1
 526 230 l 1,8,-1
 688 174 l 1,9,-1
 677 0 l 1,10,-1
 50 0 l 1,0,-1
337 1014 m 1,11,-1
 492 1339 l 1,12,-1
 712 1325 l 1,13,-1
 481 993 l 1,14,-1
 337 1014 l 1,11,-1
EndSplineSet
Colour: ffff
EndChar

StartChar: icircumflex
Encoding: 238 238 126
Width: 750
VWidth: 0
Flags: HMW
LayerCount: 2
Fore
SplineSet
50 0 m 1,0,-1
 58 176 l 1,1,-1
 212 230 l 1,2,-1
 212 571 l 1,3,-1
 64 676 l 1,4,-1
 97 854 l 1,5,-1
 470 880 l 1,6,-1
 526 819 l 1,7,-1
 526 230 l 1,8,-1
 688 174 l 1,9,-1
 677 0 l 1,10,-1
 50 0 l 1,0,-1
218 1013 m 1,11,-1
 389 1208 l 1,12,-1
 566 1228 l 1,13,-1
 770 1023 l 1,14,-1
 619 964 l 1,15,-1
 480 1065 l 1,16,-1
 466 1065 l 1,17,-1
 363 963 l 1,18,-1
 218 1013 l 1,11,-1
EndSplineSet
Colour: ffff
EndChar

StartChar: idieresis
Encoding: 239 239 127
Width: 752
VWidth: 0
Flags: HMW
LayerCount: 2
Fore
SplineSet
50 0 m 1,0,-1
 58 176 l 1,1,-1
 212 230 l 1,2,-1
 212 571 l 1,3,-1
 64 676 l 1,4,-1
 97 854 l 1,5,-1
 470 880 l 1,6,-1
 526 819 l 1,7,-1
 526 230 l 1,8,-1
 688 174 l 1,9,-1
 677 0 l 1,10,-1
 50 0 l 1,0,-1
494 1080 m 0,11,12
 494 1099 494 1099 501 1116.5 c 128,-1,13
 508 1134 508 1134 522.5 1150.5 c 128,-1,14
 537 1167 537 1167 565.5 1177 c 128,-1,15
 594 1187 594 1187 632 1187 c 0,16,17
 673 1187 673 1187 702.5 1177.5 c 128,-1,18
 732 1168 732 1168 747 1151.5 c 128,-1,19
 762 1135 762 1135 769 1118 c 128,-1,20
 776 1101 776 1101 776 1082 c 0,21,22
 776 973 776 973 631 973 c 0,23,24
 494 973 494 973 494 1080 c 0,11,12
185 1080 m 0,25,26
 185 1099 185 1099 192 1116.5 c 128,-1,27
 199 1134 199 1134 213.5 1150.5 c 128,-1,28
 228 1167 228 1167 256.5 1177 c 128,-1,29
 285 1187 285 1187 323 1187 c 0,30,31
 364 1187 364 1187 393.5 1177.5 c 128,-1,32
 423 1168 423 1168 438 1151.5 c 128,-1,33
 453 1135 453 1135 460 1118 c 128,-1,34
 467 1101 467 1101 467 1082 c 0,35,36
 467 973 467 973 322 973 c 0,37,38
 185 973 185 973 185 1080 c 0,25,26
EndSplineSet
Colour: ffff
EndChar

StartChar: igrave
Encoding: 236 236 128
Width: 741
VWidth: 0
Flags: HMW
LayerCount: 2
Fore
SplineSet
50 0 m 1,0,-1
 58 176 l 1,1,-1
 212 230 l 1,2,-1
 212 571 l 1,3,-1
 64 676 l 1,4,-1
 97 854 l 1,5,-1
 470 880 l 1,6,-1
 526 819 l 1,7,-1
 526 230 l 1,8,-1
 688 174 l 1,9,-1
 677 0 l 1,10,-1
 50 0 l 1,0,-1
139 1362 m 1,11,-1
 357 1402 l 1,12,-1
 507 1054 l 1,13,-1
 348 1023 l 1,14,-1
 139 1362 l 1,11,-1
EndSplineSet
Colour: ffff
EndChar

StartChar: j
Encoding: 106 106 129
Width: 708
VWidth: 0
Flags: HMW
LayerCount: 2
Fore
SplineSet
190 1133 m 0,0,1
 190 1204 190 1204 251.5 1250 c 128,-1,2
 313 1296 313 1296 425 1296 c 0,3,4
 540 1296 540 1296 602.5 1249 c 128,-1,5
 665 1202 665 1202 665 1132 c 0,6,7
 665 1059 665 1059 605 1010 c 128,-1,8
 545 961 545 961 423 961 c 0,9,10
 299 961 299 961 244.5 1009 c 128,-1,11
 190 1057 190 1057 190 1133 c 0,0,1
33 -213 m 1,12,13
 40 -208 40 -208 66 -189.5 c 128,-1,14
 92 -171 92 -171 101.5 -164 c 128,-1,15
 111 -157 111 -157 135 -137 c 128,-1,16
 159 -117 159 -117 170 -105 c 128,-1,17
 181 -93 181 -93 201 -70 c 128,-1,18
 221 -47 221 -47 230.5 -27.5 c 128,-1,19
 240 -8 240 -8 253.5 20.5 c 128,-1,20
 267 49 267 49 273 77.5 c 128,-1,21
 279 106 279 106 284 142 c 128,-1,22
 289 178 289 178 289 218 c 2,23,-1
 289 606 l 1,24,-1
 143 718 l 1,25,-1
 180 900 l 1,26,-1
 546 923 l 1,27,-1
 605 870 l 1,28,-1
 605 150 l 2,29,30
 605 79 605 79 590 17 c 128,-1,31
 575 -45 575 -45 551.5 -91 c 128,-1,32
 528 -137 528 -137 490.5 -177.5 c 128,-1,33
 453 -218 453 -218 417.5 -245.5 c 128,-1,34
 382 -273 382 -273 334 -298.5 c 128,-1,35
 286 -324 286 -324 249.5 -339 c 128,-1,36
 213 -354 213 -354 165 -371 c 1,37,-1
 114 -382 l 1,38,-1
 33 -213 l 1,12,13
EndSplineSet
Colour: ffff
EndChar

StartChar: k
Encoding: 107 107 130
Width: 1255
VWidth: 0
Flags: HMW
LayerCount: 2
Fore
SplineSet
554 402 m 1,0,-1
 564 447 l 1,1,-1
 749 760 l 1,2,-1
 614 817 l 1,3,-1
 636 975 l 1,4,-1
 1172 975 l 1,5,-1
 1143 824 l 1,6,-1
 996 761 l 1,7,-1
 830 503 l 1,8,-1
 843 483 l 2,9,10
 932 346 932 346 1005.5 269 c 128,-1,11
 1079 192 1079 192 1166 135 c 2,12,-1
 1207 108 l 1,13,-1
 1180 0 l 1,14,-1
 1151 -5 l 2,15,16
 1122 -10 1122 -10 1078 -14 c 128,-1,17
 1034 -18 1034 -18 987 -18 c 0,18,19
 879 -18 879 -18 796.5 56 c 128,-1,20
 714 130 714 130 626 280 c 2,21,-1
 554 402 l 1,0,-1
50 0 m 1,22,-1
 66 176 l 1,23,-1
 217 230 l 1,24,-1
 217 975 l 1,25,-1
 50 1077 l 1,26,-1
 84 1249 l 1,27,-1
 472 1277 l 1,28,-1
 532 1218 l 1,29,-1
 532 230 l 1,30,-1
 643 174 l 1,31,-1
 618 0 l 1,32,-1
 50 0 l 1,22,-1
EndSplineSet
Colour: ffff
EndChar

StartChar: l
Encoding: 108 108 131
Width: 739
VWidth: 0
Flags: HMW
LayerCount: 2
Fore
SplineSet
51 0 m 1,0,-1
 66 176 l 1,1,-1
 218 230 l 1,2,-1
 218 975 l 1,3,-1
 51 1077 l 1,4,-1
 85 1250 l 1,5,-1
 476 1275 l 1,6,-1
 533 1218 l 1,7,-1
 533 230 l 1,8,-1
 689 174 l 1,9,-1
 676 0 l 1,10,-1
 51 0 l 1,0,-1
EndSplineSet
Colour: ffff
EndChar

StartChar: less
Encoding: 60 60 132
Width: 877
VWidth: 0
Flags: MW
LayerCount: 2
Fore
SplineSet
793 36 m 1,0,-1
 647 -84 l 1,1,-1
 15 410 l 1,2,-1
 5 504 l 1,3,-1
 634 974 l 1,4,-1
 781 840 l 1,5,-1
 445 454 l 1,6,-1
 793 36 l 1,0,-1
EndSplineSet
Colour: ffff
EndChar

StartChar: logicalnot
Encoding: 172 172 133
Width: 934
VWidth: 0
Flags: HMW
LayerCount: 2
Fore
SplineSet
57 459 m 1,0,-1
 69 661 l 1,1,-1
 872 661 l 1,2,-1
 872 261 l 1,3,-1
 653 241 l 1,4,-1
 653 459 l 1,5,-1
 57 459 l 1,0,-1
EndSplineSet
Colour: ffff
EndChar

StartChar: m
Encoding: 109 109 134
Width: 1794
VWidth: 0
Flags: HMW
LayerCount: 2
Back
SplineSet
-116 0 m 1,0,-1
 -99 157 l 1,1,-1
 43 229 l 1,2,-1
 43 660 l 1,3,-1
 -99 721 l 1,4,-1
 -72 889 l 1,5,-1
 331 918 l 1,6,-1
 369 879 l 1,7,-1
 346 777 l 1,8,-1
 361 771 l 1,9,10
 436.469 849.75 436.469 849.75 503.821 889.183 c 0
 571.173 928.617 571.173 928.617 650.449 928.617 c 0,11,12
 765.883 928.617 765.883 928.617 830.942 859.476 c 0
 896 790.336 896 790.336 896 641 c 2,13,-1
 896 229 l 1,14,-1
 1044 165 l 1,15,-1
 1021 0 l 1,16,-1
 585 0 l 1,17,-1
 585 157 l 1,18,-1
 585 229 l 1,19,-1
 585 429 l 2,20,21
 585 522.379 585 522.379 561.633 562.203 c 0
 538.266 602.028 538.266 602.028 490.271 602.028 c 0,22,23
 417.976 602.028 417.976 602.028 361 552 c 1,24,-1
 361 229 l 1,25,-1
 484 166 l 1,26,-1
 456 0 l 1,27,-1
 -116 0 l 1,0,-1
EndSplineSet
Fore
SplineSet
47 0 m 1,0,-1
 64 157 l 1,1,-1
 206 229 l 1,2,-1
 206 640 l 1,3,-1
 64 721 l 1,4,-1
 91 889 l 1,5,-1
 494 918 l 1,6,-1
 532 879 l 1,7,-1
 509 777 l 1,8,-1
 524 771 l 1,9,10
 600 850 600 850 667 889.5 c 128,-1,11
 734 929 734 929 813 929 c 0,12,13
 993 929 993 929 1037 761 c 1,14,-1
 1051 756 l 1,15,16
 1130 837 1130 837 1202 883 c 128,-1,17
 1274 929 1274 929 1349 929 c 0,18,19
 1465 929 1465 929 1530 859.5 c 128,-1,20
 1595 790 1595 790 1595 641 c 2,21,-1
 1595 229 l 1,22,-1
 1743 165 l 1,23,-1
 1720 0 l 1,24,-1
 1284 0 l 1,25,-1
 1284 157 l 1,26,-1
 1284 229 l 1,27,-1
 1284 429 l 2,28,29
 1284 522 1284 522 1260.5 562 c 128,-1,30
 1237 602 1237 602 1189 602 c 0,31,32
 1113 602 1113 602 1059 555 c 1,33,-1
 1059 229 l 1,34,-1
 1190 165 l 1,35,-1
 1167 0 l 1,36,-1
 748 0 l 1,37,-1
 748 157 l 1,38,-1
 748 229 l 1,39,-1
 748 429 l 2,40,41
 748 522 748 522 724.5 562 c 128,-1,42
 701 602 701 602 653 602 c 0,43,44
 581 602 581 602 524 552 c 1,45,-1
 524 229 l 1,46,-1
 647 166 l 1,47,-1
 619 0 l 1,48,-1
 47 0 l 1,0,-1
EndSplineSet
Colour: ffff
EndChar

StartChar: macron
Encoding: 175 175 135
Width: 628
VWidth: 0
Flags: HMW
LayerCount: 2
Fore
SplineSet
77 1379 m 1,0,-1
 98 1574 l 1,1,-1
 551 1574 l 1,2,-1
 529 1379 l 1,3,-1
 77 1379 l 1,0,-1
EndSplineSet
Colour: ffff
EndChar

StartChar: multiply
Encoding: 215 215 136
Width: 659
VWidth: 0
Flags: HMW
LayerCount: 2
Fore
SplineSet
51 328 m 1,0,-1
 206 462 l 1,1,-1
 43 616 l 1,2,-1
 191 732 l 1,3,-1
 335 576 l 1,4,-1
 504 747 l 1,5,-1
 618 597 l 1,6,-1
 452 456 l 1,7,-1
 610 298 l 1,8,-1
 464 176 l 1,9,-1
 325 343 l 1,10,-1
 170 178 l 1,11,-1
 51 328 l 1,0,-1
EndSplineSet
Colour: ffff
EndChar

StartChar: n
Encoding: 110 110 137
Width: 1213
VWidth: 0
Flags: HMW
LayerCount: 2
Fore
SplineSet
47 0 m 1,0,-1
 64 157 l 1,1,-1
 206 229 l 1,2,-1
 206 640 l 1,3,-1
 64 721 l 1,4,-1
 91 889 l 1,5,-1
 494 918 l 1,6,-1
 532 879 l 1,7,-1
 509 777 l 1,8,-1
 524 771 l 1,9,10
 600 850 600 850 667 889.5 c 128,-1,11
 734 929 734 929 813 929 c 0,12,13
 929 929 929 929 994 859.5 c 128,-1,14
 1059 790 1059 790 1059 641 c 2,15,-1
 1059 229 l 1,16,-1
 1207 165 l 1,17,-1
 1184 0 l 1,18,-1
 748 0 l 1,19,-1
 748 157 l 1,20,-1
 748 229 l 1,21,-1
 748 429 l 2,22,23
 748 522 748 522 724.5 562 c 128,-1,24
 701 602 701 602 653 602 c 0,25,26
 581 602 581 602 524 552 c 1,27,-1
 524 229 l 1,28,-1
 647 166 l 1,29,-1
 619 0 l 1,30,-1
 47 0 l 1,0,-1
EndSplineSet
Colour: ffff
EndChar

StartChar: nine
Encoding: 57 57 139
Width: 1019
VWidth: 0
Flags: HMW
LayerCount: 2
Fore
SplineSet
409 866 m 0,0,1
 409 741 409 741 427.5 682 c 128,-1,2
 446 623 446 623 489 623 c 0,3,4
 536 623 536 623 578 659 c 1,5,6
 586 715 586 715 586 828 c 0,7,8
 586 1068 586 1068 488 1066 c 0,9,10
 445 1065 445 1065 427 1019 c 128,-1,11
 409 973 409 973 409 866 c 0,0,1
49 758 m 0,12,13
 49 868 49 868 86.5 957 c 128,-1,14
 124 1046 124 1046 188 1102 c 128,-1,15
 252 1158 252 1158 333.5 1187.5 c 128,-1,16
 415 1217 415 1217 506 1217 c 0,17,18
 741 1217 741 1217 854 1102.5 c 128,-1,19
 967 988 967 988 967 781 c 0,20,21
 967 573 967 573 880 395.5 c 128,-1,22
 793 218 793 218 634 105.5 c 128,-1,23
 475 -7 475 -7 274 -25 c 1,24,-1
 225 90 l 1,25,26
 369 147 369 147 462 244.5 c 128,-1,27
 555 342 555 342 576 467 c 1,28,-1
 568 476 l 1,29,30
 506 422 506 422 354 422 c 0,31,32
 301 422 301 422 248 443.5 c 128,-1,33
 195 465 195 465 150 505.5 c 128,-1,34
 105 546 105 546 77 612 c 128,-1,35
 49 678 49 678 49 758 c 0,12,13
EndSplineSet
Substitution2: "'onum' Oldstyle Figures lookup 1-1" nine.osf
Colour: ffff
EndChar

StartChar: nine.osf
Encoding: 65539 -1 140
Width: 1014
VWidth: 0
Flags: HMW
LayerCount: 2
Fore
SplineSet
411 676 m 0,0,1
 411 551 411 551 429.5 492 c 128,-1,2
 448 433 448 433 491 433 c 0,3,4
 538 433 538 433 580 469 c 1,5,6
 588 525 588 525 588 638 c 0,7,8
 588 878 588 878 490 876 c 0,9,10
 447 875 447 875 429 829 c 128,-1,11
 411 783 411 783 411 676 c 0,0,1
51 568 m 0,12,13
 51 678 51 678 88.5 767 c 128,-1,14
 126 856 126 856 190 912 c 128,-1,15
 254 968 254 968 335.5 997.5 c 128,-1,16
 417 1027 417 1027 508 1027 c 0,17,18
 626 1027 626 1027 714.5 992 c 128,-1,19
 803 957 803 957 855.5 893 c 128,-1,20
 908 829 908 829 933.5 746.5 c 128,-1,21
 959 664 959 664 959 561 c 0,22,23
 959 373 959 373 901 212.5 c 128,-1,24
 843 52 843 52 742.5 -60 c 128,-1,25
 642 -172 642 -172 507.5 -240 c 128,-1,26
 373 -308 373 -308 219 -322 c 1,27,-1
 170 -207 l 1,28,29
 323 -147 323 -147 435.5 -20 c 128,-1,30
 548 107 548 107 568 277 c 1,31,-1
 560 286 l 1,32,33
 498 232 498 232 356 232 c 0,34,35
 303 232 303 232 250 253.5 c 128,-1,36
 197 275 197 275 152 315.5 c 128,-1,37
 107 356 107 356 79 422 c 128,-1,38
 51 488 51 488 51 568 c 0,12,13
EndSplineSet
Colour: ffff
EndChar

StartChar: ntilde
Encoding: 241 241 141
Width: 1213
VWidth: 0
Flags: HMW
LayerCount: 2
Fore
SplineSet
333 1079 m 1,0,1
 328 1116 328 1116 332.5 1154 c 128,-1,2
 337 1192 337 1192 352 1228.5 c 128,-1,3
 367 1265 367 1265 394 1290 c 128,-1,4
 421 1315 421 1315 461 1326 c 128,-1,5
 501 1337 501 1337 556 1325 c 2,6,-1
 783 1276 l 2,7,8
 803 1272 803 1272 820.5 1285 c 128,-1,9
 838 1298 838 1298 846 1314 c 2,10,-1
 853 1329 l 1,11,-1
 968 1318 l 1,12,13
 967 1190 967 1190 902.5 1124.5 c 128,-1,14
 838 1059 838 1059 720 1087 c 2,15,-1
 511 1136 l 2,16,17
 487 1142 487 1142 472 1126 c 128,-1,18
 457 1110 457 1110 454 1092 c 2,19,-1
 451 1073 l 1,20,-1
 333 1079 l 1,0,1
47 0 m 1,21,-1
 64 157 l 1,22,-1
 206 229 l 1,23,-1
 206 640 l 1,24,-1
 64 721 l 1,25,-1
 91 889 l 1,26,-1
 494 918 l 1,27,-1
 532 879 l 1,28,-1
 509 777 l 1,29,-1
 524 771 l 1,30,31
 600 850 600 850 667 889.5 c 128,-1,32
 734 929 734 929 813 929 c 0,33,34
 929 929 929 929 994 859.5 c 128,-1,35
 1059 790 1059 790 1059 641 c 2,36,-1
 1059 229 l 1,37,-1
 1207 165 l 1,38,-1
 1184 0 l 1,39,-1
 748 0 l 1,40,-1
 748 157 l 1,41,-1
 748 229 l 1,42,-1
 748 429 l 2,43,44
 748 522 748 522 724.5 562 c 128,-1,45
 701 602 701 602 653 602 c 0,46,47
 581 602 581 602 524 552 c 1,48,-1
 524 229 l 1,49,-1
 647 166 l 1,50,-1
 619 0 l 1,51,-1
 47 0 l 1,21,-1
EndSplineSet
Colour: ffff
EndChar

StartChar: numbersign
Encoding: 35 35 142
Width: 1238
VWidth: 0
Flags: HMW
LayerCount: 2
Back
SplineSet
-285.096 896.475 m 1,0,-1
 -98.5312 1109.69 l 1,1,-1
 113.069 -665.491 l 1,2,-1
 96.1084 46.8428 l 1,3,-1
 -285.096 896.475 l 1,0,-1
838.325 -43.6123 m 1,4,-1
 1540.97 -180.91 l 1,5,-1
 58.1494 550.807 l 1,6,-1
 -654.185 688.105 l 1,7,-1
 838.325 -43.6123 l 1,4,-1
EndSplineSet
Fore
SplineSet
42 266 m 1,0,-1
 97 488 l 1,1,-1
 311 488 l 1,2,-1
 336 650 l 1,3,-1
 114 650 l 1,4,-1
 169 872 l 1,5,-1
 369 872 l 1,6,-1
 410 1146 l 1,7,-1
 623 1156 l 1,8,-1
 580 872 l 1,9,-1
 724 872 l 1,10,-1
 765 1146 l 1,11,-1
 979 1155 l 1,12,-1
 937 872 l 1,13,-1
 1196 872 l 1,14,-1
 1143 650 l 1,15,-1
 903 650 l 1,16,-1
 879 488 l 1,17,-1
 1122 488 l 1,18,-1
 1068 266 l 1,19,-1
 846 266 l 1,20,-1
 803 -19 l 1,21,-1
 589 -26 l 1,22,-1
 633 266 l 1,23,-1
 490 266 l 1,24,-1
 447 -19 l 1,25,-1
 234 -26 l 1,26,-1
 278 266 l 1,27,-1
 42 266 l 1,0,-1
666 488 m 1,28,-1
 691 650 l 1,29,-1
 547 650 l 1,30,-1
 523 488 l 1,31,-1
 666 488 l 1,28,-1
EndSplineSet
Colour: ffff
EndChar

StartChar: o
Encoding: 111 111 143
Width: 1050
VWidth: 0
Flags: HMW
LayerCount: 2
Fore
SplineSet
382 528 m 0,0,1
 382 344 382 344 422 256 c 128,-1,2
 462 168 462 168 553 168 c 0,3,4
 617 168 617 168 642.5 209 c 128,-1,5
 668 250 668 250 668 357 c 0,6,7
 668 422 668 422 665.5 468.5 c 128,-1,8
 663 515 663 515 653.5 570.5 c 128,-1,9
 644 626 644 626 627.5 661 c 128,-1,10
 611 696 611 696 579.5 719.5 c 128,-1,11
 548 743 548 743 505 743 c 0,12,13
 436 743 436 743 409 690 c 128,-1,14
 382 637 382 637 382 528 c 0,0,1
48 465 m 0,15,16
 48 575 48 575 94 669 c 128,-1,17
 140 763 140 763 212.5 823.5 c 128,-1,18
 285 884 285 884 371.5 917.5 c 128,-1,19
 458 951 458 951 543 951 c 0,20,21
 1006 951 1006 951 1006 490 c 0,22,23
 1006 254 1006 254 873.5 113.5 c 128,-1,24
 741 -27 741 -27 522 -27 c 0,25,26
 390 -27 390 -27 294 14 c 128,-1,27
 198 55 198 55 146 127 c 128,-1,28
 94 199 94 199 71 282 c 128,-1,29
 48 365 48 365 48 465 c 0,15,16
EndSplineSet
Colour: ffff
EndChar

StartChar: oacute
Encoding: 243 243 144
Width: 1050
VWidth: 0
Flags: HMW
LayerCount: 2
Fore
SplineSet
433 1084 m 1,0,-1
 588 1409 l 1,1,-1
 808 1395 l 1,2,-1
 577 1063 l 1,3,-1
 433 1084 l 1,0,-1
382 528 m 0,4,5
 382 344 382 344 422 256 c 128,-1,6
 462 168 462 168 553 168 c 0,7,8
 617 168 617 168 642.5 209 c 128,-1,9
 668 250 668 250 668 357 c 0,10,11
 668 422 668 422 665.5 468.5 c 128,-1,12
 663 515 663 515 653.5 570.5 c 128,-1,13
 644 626 644 626 627.5 661 c 128,-1,14
 611 696 611 696 579.5 719.5 c 128,-1,15
 548 743 548 743 505 743 c 0,16,17
 436 743 436 743 409 690 c 128,-1,18
 382 637 382 637 382 528 c 0,4,5
48 465 m 0,19,20
 48 575 48 575 94 669 c 128,-1,21
 140 763 140 763 212.5 823.5 c 128,-1,22
 285 884 285 884 371.5 917.5 c 128,-1,23
 458 951 458 951 543 951 c 0,24,25
 1006 951 1006 951 1006 490 c 0,26,27
 1006 254 1006 254 873.5 113.5 c 128,-1,28
 741 -27 741 -27 522 -27 c 0,29,30
 390 -27 390 -27 294 14 c 128,-1,31
 198 55 198 55 146 127 c 128,-1,32
 94 199 94 199 71 282 c 128,-1,33
 48 365 48 365 48 465 c 0,19,20
EndSplineSet
Colour: ffff
EndChar

StartChar: ocircumflex
Encoding: 244 244 145
Width: 1050
VWidth: 0
Flags: HMW
LayerCount: 2
Fore
SplineSet
364 1083 m 1,0,-1
 535 1278 l 1,1,-1
 712 1298 l 1,2,-1
 916 1093 l 1,3,-1
 765 1034 l 1,4,-1
 626 1135 l 1,5,-1
 612 1135 l 1,6,-1
 509 1033 l 1,7,-1
 364 1083 l 1,0,-1
382 528 m 0,8,9
 382 344 382 344 422 256 c 128,-1,10
 462 168 462 168 553 168 c 0,11,12
 617 168 617 168 642.5 209 c 128,-1,13
 668 250 668 250 668 357 c 0,14,15
 668 422 668 422 665.5 468.5 c 128,-1,16
 663 515 663 515 653.5 570.5 c 128,-1,17
 644 626 644 626 627.5 661 c 128,-1,18
 611 696 611 696 579.5 719.5 c 128,-1,19
 548 743 548 743 505 743 c 0,20,21
 436 743 436 743 409 690 c 128,-1,22
 382 637 382 637 382 528 c 0,8,9
48 465 m 0,23,24
 48 575 48 575 94 669 c 128,-1,25
 140 763 140 763 212.5 823.5 c 128,-1,26
 285 884 285 884 371.5 917.5 c 128,-1,27
 458 951 458 951 543 951 c 0,28,29
 1006 951 1006 951 1006 490 c 0,30,31
 1006 254 1006 254 873.5 113.5 c 128,-1,32
 741 -27 741 -27 522 -27 c 0,33,34
 390 -27 390 -27 294 14 c 128,-1,35
 198 55 198 55 146 127 c 128,-1,36
 94 199 94 199 71 282 c 128,-1,37
 48 365 48 365 48 465 c 0,23,24
EndSplineSet
Colour: ffff
EndChar

StartChar: odieresis
Encoding: 246 246 146
Width: 1050
VWidth: 0
Flags: HMW
LayerCount: 2
Fore
SplineSet
620 1180 m 0,0,1
 620 1199 620 1199 627 1216.5 c 128,-1,2
 634 1234 634 1234 648.5 1250.5 c 128,-1,3
 663 1267 663 1267 691.5 1277 c 128,-1,4
 720 1287 720 1287 758 1287 c 0,5,6
 799 1287 799 1287 828.5 1277.5 c 128,-1,7
 858 1268 858 1268 873 1251.5 c 128,-1,8
 888 1235 888 1235 895 1218 c 128,-1,9
 902 1201 902 1201 902 1182 c 0,10,11
 902 1073 902 1073 757 1073 c 0,12,13
 620 1073 620 1073 620 1180 c 0,0,1
311 1180 m 0,14,15
 311 1199 311 1199 318 1216.5 c 128,-1,16
 325 1234 325 1234 339.5 1250.5 c 128,-1,17
 354 1267 354 1267 382.5 1277 c 128,-1,18
 411 1287 411 1287 449 1287 c 0,19,20
 490 1287 490 1287 519.5 1277.5 c 128,-1,21
 549 1268 549 1268 564 1251.5 c 128,-1,22
 579 1235 579 1235 586 1218 c 128,-1,23
 593 1201 593 1201 593 1182 c 0,24,25
 593 1073 593 1073 448 1073 c 0,26,27
 311 1073 311 1073 311 1180 c 0,14,15
382 528 m 0,28,29
 382 344 382 344 422 256 c 128,-1,30
 462 168 462 168 553 168 c 0,31,32
 617 168 617 168 642.5 209 c 128,-1,33
 668 250 668 250 668 357 c 0,34,35
 668 422 668 422 665.5 468.5 c 128,-1,36
 663 515 663 515 653.5 570.5 c 128,-1,37
 644 626 644 626 627.5 661 c 128,-1,38
 611 696 611 696 579.5 719.5 c 128,-1,39
 548 743 548 743 505 743 c 0,40,41
 436 743 436 743 409 690 c 128,-1,42
 382 637 382 637 382 528 c 0,28,29
48 465 m 0,43,44
 48 575 48 575 94 669 c 128,-1,45
 140 763 140 763 212.5 823.5 c 128,-1,46
 285 884 285 884 371.5 917.5 c 128,-1,47
 458 951 458 951 543 951 c 0,48,49
 1006 951 1006 951 1006 490 c 0,50,51
 1006 254 1006 254 873.5 113.5 c 128,-1,52
 741 -27 741 -27 522 -27 c 0,53,54
 390 -27 390 -27 294 14 c 128,-1,55
 198 55 198 55 146 127 c 128,-1,56
 94 199 94 199 71 282 c 128,-1,57
 48 365 48 365 48 465 c 0,43,44
EndSplineSet
Colour: ffff
EndChar

StartChar: ograve
Encoding: 242 242 147
Width: 1050
VWidth: 0
Flags: HMW
LayerCount: 2
Fore
SplineSet
255 1412 m 1,0,-1
 473 1452 l 1,1,-1
 623 1104 l 1,2,-1
 464 1073 l 1,3,-1
 255 1412 l 1,0,-1
382 528 m 0,4,5
 382 344 382 344 422 256 c 128,-1,6
 462 168 462 168 553 168 c 0,7,8
 617 168 617 168 642.5 209 c 128,-1,9
 668 250 668 250 668 357 c 0,10,11
 668 422 668 422 665.5 468.5 c 128,-1,12
 663 515 663 515 653.5 570.5 c 128,-1,13
 644 626 644 626 627.5 661 c 128,-1,14
 611 696 611 696 579.5 719.5 c 128,-1,15
 548 743 548 743 505 743 c 0,16,17
 436 743 436 743 409 690 c 128,-1,18
 382 637 382 637 382 528 c 0,4,5
48 465 m 0,19,20
 48 575 48 575 94 669 c 128,-1,21
 140 763 140 763 212.5 823.5 c 128,-1,22
 285 884 285 884 371.5 917.5 c 128,-1,23
 458 951 458 951 543 951 c 0,24,25
 1006 951 1006 951 1006 490 c 0,26,27
 1006 254 1006 254 873.5 113.5 c 128,-1,28
 741 -27 741 -27 522 -27 c 0,29,30
 390 -27 390 -27 294 14 c 128,-1,31
 198 55 198 55 146 127 c 128,-1,32
 94 199 94 199 71 282 c 128,-1,33
 48 365 48 365 48 465 c 0,19,20
EndSplineSet
Colour: ffff
EndChar

StartChar: one
Encoding: 49 49 148
Width: 893
VWidth: 0
Flags: HMW
LayerCount: 2
Fore
SplineSet
43 -5 m 1,0,-1
 60 124 l 1,1,-1
 284 191 l 1,2,-1
 284 915 l 1,3,-1
 68 915 l 1,4,-1
 80 1082 l 1,5,-1
 576 1186 l 1,6,-1
 667 1186 l 1,7,-1
 667 178 l 1,8,-1
 904 132 l 1,9,-1
 891 -5 l 1,10,-1
 43 -5 l 1,0,-1
EndSplineSet
Substitution2: "'onum' Oldstyle Figures lookup 1-1" one.osf
Colour: ffff
EndChar

StartChar: one.osf
Encoding: 65540 -1 149
Width: 890
VWidth: 0
Flags: HMW
LayerCount: 2
Fore
SplineSet
45 -5 m 1,0,-1
 62 124 l 1,1,-1
 266 191 l 1,2,-1
 266 745 l 1,3,-1
 70 745 l 1,4,-1
 82 912 l 1,5,-1
 538 1016 l 1,6,-1
 629 1016 l 1,7,-1
 629 178 l 1,8,-1
 846 132 l 1,9,-1
 833 -5 l 1,10,-1
 45 -5 l 1,0,-1
EndSplineSet
Colour: ffff
EndChar

StartChar: onehalf
Encoding: 189 189 150
Width: 1928
VWidth: 0
Flags: HMW
LayerCount: 2
Fore
SplineSet
269 35 m 1,0,-1
 826 588 l 1,1,-1
 1369 1207 l 1,2,-1
 1671 1205 l 1,3,-1
 1671 1130 l 1,4,-1
 1130 591 l 1,5,-1
 637 -19 l 1,6,-1
 269 35 l 1,0,-1
45 528 m 1,7,-1
 60 658 l 1,8,-1
 188 693 l 1,9,-1
 188 1073 l 1,10,-1
 67 1073 l 1,11,-1
 78 1241 l 1,12,-1
 456 1274 l 1,13,-1
 525 1274 l 1,14,-1
 525 686 l 1,15,-1
 662 666 l 1,16,-1
 655 528 l 1,17,-1
 45 528 l 1,7,-1
1210 118 m 1,18,-1
 1326 201 l 2,19,20
 1422 270 1422 270 1471 339 c 128,-1,21
 1520 408 1520 408 1520 456 c 0,22,23
 1520 485 1520 485 1501 501.5 c 128,-1,24
 1482 518 1482 518 1448 518 c 0,25,26
 1430 518 1430 518 1401 507 c 1,27,-1
 1361 334 l 1,28,-1
 1252 344 l 1,29,-1
 1210 572 l 1,30,31
 1267 625 1267 625 1357.5 656.5 c 128,-1,32
 1448 688 1448 688 1553 688 c 0,33,34
 1629 688 1629 688 1689 669 c 128,-1,35
 1749 650 1749 650 1782.5 620.5 c 128,-1,36
 1816 591 1816 591 1833 559 c 128,-1,37
 1850 527 1850 527 1850 497 c 0,38,39
 1850 443 1850 443 1822 392.5 c 128,-1,40
 1794 342 1794 342 1748 304 c 128,-1,41
 1702 266 1702 266 1656 239 c 128,-1,42
 1610 212 1610 212 1560 192 c 2,43,-1
 1480 159 l 1,44,-1
 1681 139 l 1,45,-1
 1769 260 l 1,46,-1
 1880 254 l 1,47,-1
 1846 -60 l 1,48,-1
 1224 -60 l 1,49,-1
 1210 118 l 1,18,-1
EndSplineSet
Colour: ffff
EndChar

StartChar: onequarter
Encoding: 188 188 151
Width: 1865
VWidth: 0
Flags: HMW
LayerCount: 2
Fore
SplineSet
269 35 m 1,0,-1
 826 588 l 1,1,-1
 1369 1207 l 1,2,-1
 1671 1205 l 1,3,-1
 1671 1130 l 1,4,-1
 1130 591 l 1,5,-1
 637 -19 l 1,6,-1
 269 35 l 1,0,-1
45 528 m 1,7,-1
 60 658 l 1,8,-1
 188 693 l 1,9,-1
 188 1073 l 1,10,-1
 67 1073 l 1,11,-1
 78 1241 l 1,12,-1
 456 1274 l 1,13,-1
 525 1274 l 1,14,-1
 525 686 l 1,15,-1
 662 666 l 1,16,-1
 655 528 l 1,17,-1
 45 528 l 1,7,-1
1279 275 m 1,18,-1
 1404 275 l 1,19,-1
 1404 441 l 1,20,-1
 1279 275 l 1,18,-1
1076 295 m 1,21,-1
 1574 707 l 1,22,-1
 1685 681 l 1,23,24
 1674 553 1674 553 1674 425 c 2,25,-1
 1674 314 l 1,26,-1
 1822 314 l 1,27,-1
 1813 145 l 1,28,-1
 1674 145 l 1,29,-1
 1674 63 l 1,30,-1
 1773 35 l 1,31,-1
 1766 -60 l 1,32,-1
 1281 -60 l 1,33,-1
 1286 30 l 1,34,-1
 1385 62 l 1,35,-1
 1385 148 l 1,36,-1
 1091 148 l 1,37,-1
 1076 295 l 1,21,-1
EndSplineSet
Colour: ffff
EndChar

StartChar: one.superior
Encoding: 185 185 152
Width: 718
VWidth: 0
Flags: HMW
LayerCount: 2
Fore
SplineSet
50 528 m 1,0,-1
 65 658 l 1,1,-1
 193 693 l 1,2,-1
 193 1073 l 1,3,-1
 72 1073 l 1,4,-1
 83 1241 l 1,5,-1
 461 1274 l 1,6,-1
 530 1274 l 1,7,-1
 530 686 l 1,8,-1
 667 666 l 1,9,-1
 660 528 l 1,10,-1
 50 528 l 1,0,-1
EndSplineSet
Colour: ffff
EndChar

StartChar: ordfeminine
Encoding: 170 170 153
Width: 836
VWidth: 0
Flags: HMW
LayerCount: 2
Fore
SplineSet
310 749 m 0,0,1
 310 690 310 690 364 690 c 0,2,3
 388 690 388 690 420 713 c 1,4,-1
 420 834 l 1,5,6
 385 830 385 830 361.5 821 c 128,-1,7
 338 812 338 812 327.5 799.5 c 128,-1,8
 317 787 317 787 313.5 775.5 c 128,-1,9
 310 764 310 764 310 749 c 0,0,1
53 676 m 0,10,11
 53 788 53 788 151 862.5 c 128,-1,12
 249 937 249 937 420 936 c 1,13,-1
 420 1012 l 2,14,15
 420 1067 420 1067 395 1099.5 c 128,-1,16
 370 1132 370 1132 329 1132 c 0,17,18
 301 1132 301 1132 291 1101 c 128,-1,19
 281 1070 281 1070 273 968 c 1,20,21
 232 968 232 968 201.5 972 c 128,-1,22
 171 976 171 976 141.5 986 c 128,-1,23
 112 996 112 996 96 1018 c 128,-1,24
 80 1040 80 1040 80 1072 c 0,25,26
 80 1117 80 1117 136.5 1167 c 128,-1,27
 193 1217 193 1217 280 1251 c 128,-1,28
 367 1285 367 1285 448 1285 c 0,29,30
 495 1285 495 1285 535.5 1272 c 128,-1,31
 576 1259 576 1259 611 1231.5 c 128,-1,32
 646 1204 646 1204 666 1155 c 128,-1,33
 686 1106 686 1106 686 1039 c 2,34,-1
 686 825 l 2,35,36
 686 754 686 754 699.5 729.5 c 128,-1,37
 713 705 713 705 764 694 c 2,38,-1
 787 689 l 1,39,-1
 767 553 l 1,40,41
 689 507 689 507 598 507 c 0,42,43
 535 507 535 507 503.5 529 c 128,-1,44
 472 551 472 551 452 601 c 2,45,-1
 448 611 l 1,46,-1
 438 616 l 1,47,48
 421 570 421 570 358.5 539 c 128,-1,49
 296 508 296 508 230 508 c 0,50,51
 147 508 147 508 100 550 c 128,-1,52
 53 592 53 592 53 676 c 0,10,11
EndSplineSet
Colour: ffff
EndChar

StartChar: ordmasculine
Encoding: 186 186 154
Width: 889
VWidth: 0
Flags: HMW
LayerCount: 2
Fore
SplineSet
338 951 m 0,0,1
 338 800 338 800 366 731.5 c 128,-1,2
 394 663 394 663 465 663 c 0,3,4
 515 663 515 663 531 694 c 128,-1,5
 547 725 547 725 547 814 c 0,6,7
 547 846 547 846 547 863.5 c 128,-1,8
 547 881 547 881 546 911.5 c 128,-1,9
 545 942 545 942 542.5 959.5 c 128,-1,10
 540 977 540 977 536 1002.5 c 128,-1,11
 532 1028 532 1028 526 1043 c 128,-1,12
 520 1058 520 1058 511 1075 c 128,-1,13
 502 1092 502 1092 490 1101 c 128,-1,14
 478 1110 478 1110 462 1116.5 c 128,-1,15
 446 1123 446 1123 427 1123 c 0,16,17
 373 1123 373 1123 355.5 1082.5 c 128,-1,18
 338 1042 338 1042 338 951 c 0,0,1
51 900 m 0,19,20
 51 971 51 971 76 1034.5 c 128,-1,21
 101 1098 101 1098 142.5 1143.5 c 128,-1,22
 184 1189 184 1189 237 1222.5 c 128,-1,23
 290 1256 290 1256 346.5 1272.5 c 128,-1,24
 403 1289 403 1289 457 1289 c 0,25,26
 641 1289 641 1289 739 1196.5 c 128,-1,27
 837 1104 837 1104 837 920 c 0,28,29
 837 732 837 732 727 619.5 c 128,-1,30
 617 507 617 507 440 507 c 0,31,32
 354 507 354 507 286.5 529 c 128,-1,33
 219 551 219 551 175.5 588 c 128,-1,34
 132 625 132 625 103.5 676 c 128,-1,35
 75 727 75 727 63 782.5 c 128,-1,36
 51 838 51 838 51 900 c 0,19,20
EndSplineSet
Colour: ffff
EndChar

StartChar: oslash
Encoding: 248 248 155
Width: 1079
VWidth: 0
Flags: HMW
LayerCount: 2
Fore
SplineSet
61 465 m 0,0,1
 61 575 61 575 107 669 c 128,-1,2
 153 763 153 763 225.5 823.5 c 128,-1,3
 298 884 298 884 384.5 917.5 c 128,-1,4
 471 951 471 951 556 951 c 0,5,6
 695 951 695 951 793 909 c 1,7,-1
 834 956 l 1,8,-1
 1039 921 l 1,9,-1
 934 799 l 1,10,11
 1019 686 1019 686 1019 490 c 0,12,13
 1019 254 1019 254 886.5 113.5 c 128,-1,14
 754 -27 754 -27 535 -27 c 0,15,16
 389 -27 389 -27 286 24 c 1,17,-1
 249 -20 l 1,18,-1
 41 14 l 1,19,-1
 148 142 l 1,20,21
 61 265 61 265 61 465 c 0,0,1
437 252 m 1,22,23
 478 168 478 168 566 168 c 0,24,25
 630 168 630 168 655.5 209 c 128,-1,26
 681 250 681 250 681 357 c 0,27,28
 681 476 681 476 671 547 c 1,29,-1
 437 252 l 1,22,23
404 371 m 1,30,-1
 638 664 l 1,31,32
 598 743 598 743 518 743 c 0,33,34
 449 743 449 743 422 690 c 128,-1,35
 395 637 395 637 395 528 c 0,36,37
 395 437 395 437 404 371 c 1,30,-1
EndSplineSet
Colour: ffff
EndChar

StartChar: otilde
Encoding: 245 245 156
Width: 1050
VWidth: 0
Flags: HMW
LayerCount: 2
Fore
SplineSet
248 1079 m 1,0,1
 243 1116 243 1116 247.5 1154 c 128,-1,2
 252 1192 252 1192 267 1228.5 c 128,-1,3
 282 1265 282 1265 309 1290 c 128,-1,4
 336 1315 336 1315 376 1326 c 128,-1,5
 416 1337 416 1337 471 1325 c 2,6,-1
 698 1276 l 2,7,8
 718 1272 718 1272 735.5 1285 c 128,-1,9
 753 1298 753 1298 761 1314 c 2,10,-1
 768 1329 l 1,11,-1
 883 1318 l 1,12,13
 882 1190 882 1190 817.5 1124.5 c 128,-1,14
 753 1059 753 1059 635 1087 c 2,15,-1
 426 1136 l 2,16,17
 402 1142 402 1142 387 1126 c 128,-1,18
 372 1110 372 1110 369 1092 c 2,19,-1
 366 1073 l 1,20,-1
 248 1079 l 1,0,1
382 528 m 0,21,22
 382 344 382 344 422 256 c 128,-1,23
 462 168 462 168 553 168 c 0,24,25
 617 168 617 168 642.5 209 c 128,-1,26
 668 250 668 250 668 357 c 0,27,28
 668 422 668 422 665.5 468.5 c 128,-1,29
 663 515 663 515 653.5 570.5 c 128,-1,30
 644 626 644 626 627.5 661 c 128,-1,31
 611 696 611 696 579.5 719.5 c 128,-1,32
 548 743 548 743 505 743 c 0,33,34
 436 743 436 743 409 690 c 128,-1,35
 382 637 382 637 382 528 c 0,21,22
48 465 m 0,36,37
 48 575 48 575 94 669 c 128,-1,38
 140 763 140 763 212.5 823.5 c 128,-1,39
 285 884 285 884 371.5 917.5 c 128,-1,40
 458 951 458 951 543 951 c 0,41,42
 1006 951 1006 951 1006 490 c 0,43,44
 1006 254 1006 254 873.5 113.5 c 128,-1,45
 741 -27 741 -27 522 -27 c 0,46,47
 390 -27 390 -27 294 14 c 128,-1,48
 198 55 198 55 146 127 c 128,-1,49
 94 199 94 199 71 282 c 128,-1,50
 48 365 48 365 48 465 c 0,36,37
EndSplineSet
Colour: ffff
EndChar

StartChar: p
Encoding: 112 112 157
Width: 1179
VWidth: 0
Flags: HMW
LayerCount: 2
Back
SplineSet
-138 1043 m 5,0,-1
 -110 1208 l 1,1,-1
 266 1234 l 1,2,-1
 323 1180 l 1,3,-1
 323 878 l 1,4,-1
 308 777 l 1,5,-1
 323 771 l 1,6,7
 396 852 396 852 453.5 891 c 0
 511 930 511 930 587 930 c 0,8,9
 748 930 748 930 844 810 c 0
 940 690 940 690 940 497 c 0,10,11
 940 382 940 382 893 282.5 c 0
 846 183 846 183 770 117 c 0
 694 51 694 51 598 14 c 0
 502 -23 502 -23 404 -23 c 0,12,13
 318 -23 318 -23 194.5 -4 c 0
 71 15 71 15 7 51 c 1,14,-1
 7 943 l 1,15,-1
 -138 1043 l 5,0,-1
323 279 m 5,16,17
 386.767 221.946 386.767 221.946 448.382 221.946 c 0,18,19
 511.165 221.946 511.165 221.946 551.123 281.646 c 0
 591.082 341.347 591.082 341.347 591.082 447.165 c 0,20,21
 591.082 526.307 591.082 526.307 560.523 580.75 c 0
 529.964 635.194 529.964 635.194 470.821 635.194 c 0,22,23
 407.811 635.194 407.811 635.194 323 568 c 1,24,-1
 323 279 l 5,16,17
EndSplineSet
Fore
SplineSet
34 -370 m 1,0,-1
 52 -212 l 1,1,-1
 207 -142 l 1,2,-1
 207 645 l 1,3,-1
 55 726 l 1,4,-1
 82 894 l 1,5,-1
 498 923 l 1,6,-1
 536 884 l 1,7,-1
 513 802 l 1,8,-1
 528 796 l 1,9,10
 570 857 570 857 638.5 898.5 c 128,-1,11
 707 940 707 940 798 940 c 0,12,13
 865 940 865 940 923 915 c 128,-1,14
 981 890 981 890 1029.5 838.5 c 128,-1,15
 1078 787 1078 787 1106.5 697.5 c 128,-1,16
 1135 608 1135 608 1135 490 c 0,17,18
 1135 363 1135 363 1096.5 264 c 128,-1,19
 1058 165 1058 165 989.5 104 c 128,-1,20
 921 43 921 43 831.5 12 c 128,-1,21
 742 -19 742 -19 637 -19 c 0,22,23
 556 -19 556 -19 518 -13 c 1,24,-1
 518 -144 l 1,25,-1
 763 -210 l 1,26,-1
 741 -370 l 1,27,-1
 34 -370 l 1,0,-1
518 208 m 1,28,29
 583 180 583 180 640 180 c 0,30,31
 717 180 717 180 764 232.5 c 128,-1,32
 811 285 811 285 811 389 c 0,33,34
 811 505 811 505 778 574 c 128,-1,35
 745 643 745 643 678 643 c 0,36,37
 598 643 598 643 518 590 c 1,38,-1
 518 208 l 1,28,29
EndSplineSet
Colour: ffff
EndChar

StartChar: paragraph
Encoding: 182 182 158
Width: 1681
VWidth: 0
Flags: HMW
LayerCount: 2
Fore
SplineSet
1193 -2 m 1,0,-1
 1193 1245 l 1,1,-1
 1634 1245 l 1,2,-1
 1615 1089 l 1,3,-1
 1437 1022 l 1,4,-1
 1437 214 l 1,5,-1
 1627 148 l 1,6,-1
 1618 -2 l 1,7,-1
 1193 -2 l 1,0,-1
49 796 m 0,8,9
 49 1000 49 1000 182.5 1122.5 c 128,-1,10
 316 1245 316 1245 549 1245 c 2,11,-1
 1080 1245 l 1,12,-1
 1080 -2 l 1,13,-1
 536 -2 l 1,14,-1
 547 136 l 1,15,-1
 805 216 l 1,16,-1
 805 1068 l 1,17,18
 705 1088 705 1088 632 1088 c 0,19,20
 513 1088 513 1088 454 1033 c 128,-1,21
 395 978 395 978 395 859 c 0,22,23
 395 812 395 812 411.5 767.5 c 128,-1,24
 428 723 428 723 460.5 684 c 128,-1,25
 493 645 493 645 550 622 c 128,-1,26
 607 599 607 599 680 601 c 1,27,-1
 662 408 l 1,28,29
 377 383 377 383 213 488.5 c 128,-1,30
 49 594 49 594 49 796 c 0,8,9
EndSplineSet
Colour: ffff
EndChar

StartChar: parenleft
Encoding: 40 40 159
Width: 569
VWidth: 0
Flags: HMW
LayerCount: 2
Fore
SplineSet
485 1130 m 1,0,1
 448 1082 448 1082 423 1034.5 c 128,-1,2
 398 987 398 987 374 910.5 c 128,-1,3
 350 834 350 834 338 720.5 c 128,-1,4
 326 607 326 607 326 454 c 0,5,6
 326 258 326 258 350 110 c 128,-1,7
 374 -38 374 -38 407 -120 c 128,-1,8
 440 -202 440 -202 491 -278 c 1,9,-1
 360 -376 l 1,10,11
 359 -375 359 -375 339.5 -356 c 128,-1,12
 320 -337 320 -337 306 -323 c 128,-1,13
 292 -309 292 -309 265.5 -279 c 128,-1,14
 239 -249 239 -249 218.5 -221 c 128,-1,15
 198 -193 198 -193 171 -150 c 128,-1,16
 144 -107 144 -107 123.5 -64.5 c 128,-1,17
 103 -22 103 -22 82 35 c 128,-1,18
 61 92 61 92 47.5 150 c 128,-1,19
 34 208 34 208 25.5 279.5 c 128,-1,20
 17 351 17 351 17 426 c 0,21,22
 17 533 17 533 33 633.5 c 128,-1,23
 49 734 49 734 72.5 809.5 c 128,-1,24
 96 885 96 885 130 955 c 128,-1,25
 164 1025 164 1025 194.5 1071 c 128,-1,26
 225 1117 225 1117 260.5 1158.5 c 128,-1,27
 296 1200 296 1200 316 1219.5 c 128,-1,28
 336 1239 336 1239 355 1255 c 1,29,-1
 485 1130 l 1,0,1
EndSplineSet
Colour: ffff
EndChar

StartChar: parenright
Encoding: 41 41 160
Width: 568
VWidth: 0
Flags: HMW
LayerCount: 2
Fore
SplineSet
45 1130 m 1,0,-1
 175 1255 l 1,1,2
 194 1239 194 1239 214 1219.5 c 128,-1,3
 234 1200 234 1200 269.5 1158.5 c 128,-1,4
 305 1117 305 1117 335.5 1071 c 128,-1,5
 366 1025 366 1025 400 955 c 128,-1,6
 434 885 434 885 457.5 809.5 c 128,-1,7
 481 734 481 734 497 633.5 c 128,-1,8
 513 533 513 533 513 426 c 0,9,10
 513 351 513 351 504.5 279.5 c 128,-1,11
 496 208 496 208 482.5 150 c 128,-1,12
 469 92 469 92 448 35 c 128,-1,13
 427 -22 427 -22 406.5 -64.5 c 128,-1,14
 386 -107 386 -107 359 -150 c 128,-1,15
 332 -193 332 -193 311.5 -221 c 128,-1,16
 291 -249 291 -249 264.5 -279 c 128,-1,17
 238 -309 238 -309 224 -323 c 128,-1,18
 210 -337 210 -337 190.5 -356 c 128,-1,19
 171 -375 171 -375 170 -376 c 1,20,-1
 39 -278 l 1,21,22
 90 -202 90 -202 123 -120 c 128,-1,23
 156 -38 156 -38 180 110 c 128,-1,24
 204 258 204 258 204 454 c 0,25,26
 204 607 204 607 192 720.5 c 128,-1,27
 180 834 180 834 156 910.5 c 128,-1,28
 132 987 132 987 107 1034.5 c 128,-1,29
 82 1082 82 1082 45 1130 c 1,0,-1
EndSplineSet
Colour: ffff
EndChar

StartChar: percent
Encoding: 37 37 161
Width: 1686
VWidth: 0
Flags: HMW
LayerCount: 2
Back
SplineSet
-151 892 m 0,0,1
 -151 973 -151 973 -92.5 1047 c 0
 -34 1121 -34 1121 52.5 1163 c 0
 139 1205 139 1205 224 1205 c 0,2,3
 364 1205 364 1205 470 1112.5 c 0
 576 1020 576 1020 576 889 c 0,4,5
 576 808 576 808 522 735 c 0
 468 662 468 662 387.5 621 c 0
 307 580 307 580 226 580 c 0,6,7
 63 580 63 580 -44 666 c 0
 -151 752 -151 752 -151 892 c 0,0,1
159 882 m 0,8,9
 159 832 159 832 161 803.5 c 0
 163 775 163 775 169.5 749.5 c 0
 176 724 176 724 190 713.5 c 0
 204 703 204 703 226 703 c 0,10,11
 257 703 257 703 268.5 745.5 c 0
 280 788 280 788 280 885 c 0,12,13
 280 978 280 978 265.5 1034 c 0
 251 1090 251 1090 224 1090 c 0,14,15
 186 1090 186 1090 172.5 1036 c 0
 159 982 159 982 159 882 c 0,8,9
EndSplineSet
Fore
SplineSet
1223 266 m 0,0,1
 1223 216 1223 216 1225 187.5 c 128,-1,2
 1227 159 1227 159 1233.5 133.5 c 128,-1,3
 1240 108 1240 108 1254 97.5 c 128,-1,4
 1268 87 1268 87 1290 87 c 0,5,6
 1321 87 1321 87 1332.5 129.5 c 128,-1,7
 1344 172 1344 172 1344 269 c 0,8,9
 1344 362 1344 362 1329.5 418 c 128,-1,10
 1315 474 1315 474 1288 474 c 0,11,12
 1250 474 1250 474 1236.5 420 c 128,-1,13
 1223 366 1223 366 1223 266 c 0,0,1
913 276 m 0,14,15
 913 357 913 357 971.5 431 c 128,-1,16
 1030 505 1030 505 1116.5 547 c 128,-1,17
 1203 589 1203 589 1288 589 c 0,18,19
 1428 589 1428 589 1534 496.5 c 128,-1,20
 1640 404 1640 404 1640 273 c 0,21,22
 1640 192 1640 192 1586 119 c 128,-1,23
 1532 46 1532 46 1451.5 5 c 128,-1,24
 1371 -36 1371 -36 1290 -36 c 0,25,26
 1127 -36 1127 -36 1020 50 c 128,-1,27
 913 136 913 136 913 276 c 0,14,15
125 35 m 1,28,-1
 682 588 l 1,29,-1
 1152 1124 l 1,30,-1
 662 1105 l 1,31,32
 767 1024 767 1024 767 896 c 0,33,34
 767 811 767 811 713.5 736.5 c 128,-1,35
 660 662 660 662 579 620.5 c 128,-1,36
 498 579 498 579 414 578 c 0,37,38
 247 577 247 577 146 662.5 c 128,-1,39
 45 748 45 748 45 896 c 0,40,41
 45 963 45 963 96 1036 c 128,-1,42
 147 1109 147 1109 231 1158.5 c 128,-1,43
 315 1208 315 1208 400 1208 c 0,44,45
 409 1208 409 1208 422 1206 c 1,46,-1
 432 1087 l 1,47,48
 430 1087 430 1087 421.5 1088.5 c 128,-1,49
 413 1090 413 1090 412 1090 c 0,50,51
 351 1090 351 1090 351 896 c 2,52,53
 351 891 l 2,54,55
 351 836 351 836 352 810 c 128,-1,56
 353 784 353 784 358.5 752 c 128,-1,57
 364 720 364 720 377.5 707.5 c 128,-1,58
 391 695 391 695 414 695 c 0,59,60
 449 695 449 695 462 746 c 128,-1,61
 475 797 475 797 475 896 c 0,62,63
 475 1104 475 1104 466 1208 c 1,64,-1
 1225 1207 l 1,65,-1
 1527 1205 l 1,66,-1
 1527 1130 l 1,67,-1
 986 591 l 1,68,-1
 493 -19 l 1,69,-1
 125 35 l 1,28,-1
EndSplineSet
Colour: ffff
EndChar

StartChar: period
Encoding: 46 46 162
Width: 546
VWidth: 0
Flags: HMW
LayerCount: 2
Fore
SplineSet
60 127 m 0,0,1
 60 187 60 187 109.5 233.5 c 128,-1,2
 159 280 159 280 269 280 c 0,3,4
 386 280 386 280 436.5 234.5 c 128,-1,5
 487 189 487 189 487 130 c 0,6,7
 487 -26 487 -26 268 -26 c 0,8,9
 60 -26 60 -26 60 127 c 0,0,1
EndSplineSet
Colour: ffff
EndChar

StartChar: periodcentered
Encoding: 183 183 163
Width: 541
VWidth: 0
Flags: HMW
LayerCount: 2
Fore
SplineSet
117 505 m 0,0,1
 117 565 117 565 166.5 611.5 c 128,-1,2
 216 658 216 658 326 658 c 0,3,4
 443 658 443 658 493.5 612.5 c 128,-1,5
 544 567 544 567 544 508 c 0,6,7
 544 352 544 352 325 352 c 0,8,9
 117 352 117 352 117 505 c 0,0,1
EndSplineSet
Colour: ffff
EndChar

StartChar: plus
Encoding: 43 43 164
Width: 747
VWidth: 0
Flags: HMW
LayerCount: 2
Fore
SplineSet
53 376 m 1,0,-1
 61 541 l 1,1,-1
 280 541 l 1,2,-1
 280 786 l 1,3,-1
 468 774 l 1,4,-1
 468 541 l 1,5,-1
 694 541 l 1,6,-1
 681 376 l 1,7,-1
 468 376 l 1,8,-1
 468 142 l 1,9,-1
 280 146 l 1,10,-1
 280 376 l 1,11,-1
 53 376 l 1,0,-1
EndSplineSet
Colour: ffff
EndChar

StartChar: plusminus
Encoding: 177 177 165
Width: 743
VWidth: 0
Flags: HMW
LayerCount: 2
Fore
SplineSet
133 141 m 1,0,-1
 148 319 l 1,1,-1
 728 341 l 1,2,-1
 713 156 l 1,3,-1
 133 141 l 1,0,-1
104 610 m 1,4,-1
 112 775 l 1,5,-1
 331 775 l 1,6,-1
 331 1020 l 1,7,-1
 519 1008 l 1,8,-1
 519 775 l 1,9,-1
 745 775 l 1,10,-1
 732 610 l 1,11,-1
 519 610 l 1,12,-1
 519 376 l 1,13,-1
 331 380 l 1,14,-1
 331 610 l 1,15,-1
 104 610 l 1,4,-1
EndSplineSet
Colour: ffff
EndChar

StartChar: q
Encoding: 113 113 166
Width: 1143
VWidth: 0
Flags: HMW
LayerCount: 2
Back
SplineSet
421.879 911.228 m 0,0,1
 429.797 911.228 429.797 911.228 451.027 912.378 c 0
 472.257 913.528 472.257 913.528 487.442 912.756 c 0
 502.627 911.985 502.627 911.985 517 908 c 1,2,-1
 521 908 l 1,3,-1
 511 956 l 1,4,-1
 511 972 l 1,5,-1
 338 1073 l 1,6,-1
 363 1237 l 1,7,-1
 753 1264 l 1,8,-1
 813 1209 l 1,9,-1
 813 375 l 2,10,11
 813 300 813 300 840 270.5 c 0
 867 241 867 241 951 214 c 2,12,-1
 979 205 l 1,13,-1
 954 35 l 1,14,15
 890.48 5.2142 890.48 5.2142 838.283 -8.8314 c 0
 786.085 -22.877 786.085 -22.877 717.626 -22.877 c 0,16,17
 565.952 -22.877 565.952 -22.877 516 107 c 2,18,-1
 511 120 l 1,19,-1
 498 126 l 1,20,21
 449 58 449 58 390.5 19.5 c 0
 332 -19 332 -19 238 -19 c 0,22,23
 159.176 -19 159.176 -19 96.3523 12.4288 c 0
 33.529 43.8577 33.529 43.8577 -5.51368 97.8223 c 0
 -44.5564 151.787 -44.5564 151.787 -65.0106 220.558 c 0
 -85.4648 289.328 -85.4648 289.328 -85.4648 367.182 c 0,24,25
 -85.4648 446.037 -85.4648 446.037 -65.3337 523.167 c 0
 -45.2026 600.297 -45.2026 600.297 -3.13428 670.387 c 0
 38.934 740.477 38.934 740.477 97.8851 793.948 c 0
 156.836 847.42 156.836 847.42 240.639 879.193 c 0
 324.442 910.966 324.442 910.966 421.879 911.228 c 0,0,1
391.334 252.902 m 0,26,27
 441.647 252.902 441.647 252.902 507 291 c 1,28,-1
 507 590 l 1,29,30
 432.985 679.759 432.985 679.759 370.759 679.759 c 0,31,32
 316.221 679.759 316.221 679.759 283.843 616.201 c 0
 251.466 552.644 251.466 552.644 251.466 467.423 c 0,33,34
 251.466 411.329 251.466 411.329 265.783 364.077 c 0
 280.1 316.825 280.1 316.825 312.742 284.863 c 0
 345.385 252.902 345.385 252.902 391.334 252.902 c 0,26,27
EndSplineSet
Fore
SplineSet
47 386 m 0,0,1
 47 482 47 482 86 579.5 c 128,-1,2
 125 677 125 677 191 755.5 c 128,-1,3
 257 834 257 834 352.5 883.5 c 128,-1,4
 448 933 448 933 552 933 c 0,5,6
 641 933 641 933 727 897 c 1,7,-1
 897 936 l 1,8,-1
 948 931 l 1,9,-1
 948 -137 l 1,10,-1
 1107 -204 l 1,11,-1
 1088 -363 l 1,12,-1
 481 -363 l 1,13,-1
 499 -204 l 1,14,-1
 651 -137 l 1,15,-1
 651 82 l 1,16,17
 562 -19 562 -19 368 -19 c 0,18,19
 220 -19 220 -19 133.5 80.5 c 128,-1,20
 47 180 47 180 47 386 c 0,0,1
651 259 m 1,21,-1
 651 582 l 1,22,23
 632 628 632 628 588.5 656 c 128,-1,24
 545 684 545 684 511 684 c 0,25,26
 436 684 436 684 403 633 c 128,-1,27
 370 582 370 582 370 480 c 0,28,29
 370 363 370 363 412.5 296.5 c 128,-1,30
 455 230 455 230 515 230 c 0,31,32
 602 230 602 230 651 259 c 1,21,-1
EndSplineSet
Colour: ffff
EndChar

StartChar: question
Encoding: 63 63 167
Width: 751
VWidth: 0
Flags: HMW
LayerCount: 2
Back
SplineSet
85 127 m 0,0,1
 85 187 85 187 134.5 233.5 c 0
 184 280 184 280 294 280 c 0,2,3
 411 280 411 280 461.5 234.5 c 0
 512 189 512 189 512 130 c 0,4,5
 512 -26 512 -26 293 -26 c 0,6,7
 85 -26 85 -26 85 127 c 0,0,1
0 1133 m 0,8,9
 0 1202 0 1202 55 1246.5 c 0
 110 1291 110 1291 231 1291 c 0,10,11
 308 1291 308 1291 387.5 1245.5 c 0
 467 1200 467 1200 526.5 1130.5 c 0
 586 1061 586 1061 623.5 974 c 0
 661 887 661 887 661 806 c 0,12,13
 661 630 661 630 493 561 c 0,14,15
 464 549 464 549 447 540.5 c 0
 430 532 430 532 410.5 517.5 c 0
 391 503 391 503 382 483.5 c 0
 373 464 373 464 373 439 c 0,16,17
 373 422 373 422 377 406 c 1,18,-1
 216 374 l 1,19,20
 170 443 170 443 146 516.5 c 0
 122 590 122 590 122 635 c 0,21,22
 122 681 122 681 155.5 714 c 0
 189 747 189 747 237.5 765.5 c 0
 286 784 286 784 334 802 c 0
 382 820 382 820 415.5 847.5 c 0
 449 875 449 875 449 913 c 0,23,24
 449 979 449 979 350 979 c 0,25,26
 293 979 293 979 227.5 958 c 0
 162 937 162 937 142 916 c 1,27,28
 92 928 92 928 46 995.5 c 0
 0 1063 0 1063 0 1133 c 0,8,9
EndSplineSet
Fore
SplineSet
128 127 m 0,0,1
 128 187 128 187 177.5 233.5 c 128,-1,2
 227 280 227 280 337 280 c 0,3,4
 454 280 454 280 504.5 234.5 c 128,-1,5
 555 189 555 189 555 130 c 0,6,7
 555 -26 555 -26 336 -26 c 0,8,9
 128 -26 128 -26 128 127 c 0,0,1
43 1133 m 0,10,11
 43 1202 43 1202 98 1246.5 c 128,-1,12
 153 1291 153 1291 274 1291 c 0,13,14
 351 1291 351 1291 430.5 1245.5 c 128,-1,15
 510 1200 510 1200 569.5 1130.5 c 128,-1,16
 629 1061 629 1061 666.5 974 c 128,-1,17
 704 887 704 887 704 806 c 0,18,19
 704 749 704 749 688 705.5 c 128,-1,20
 672 662 672 662 646.5 636.5 c 128,-1,21
 621 611 621 611 590.5 592 c 128,-1,22
 560 573 560 573 529.5 558.5 c 128,-1,23
 499 544 499 544 473.5 529.5 c 128,-1,24
 448 515 448 515 432 492.5 c 128,-1,25
 416 470 416 470 416 439 c 0,26,27
 416 414 416 414 429 362 c 1,28,-1
 259 374 l 1,29,30
 213 443 213 443 189 516.5 c 128,-1,31
 165 590 165 590 165 635 c 0,32,33
 165 681 165 681 198.5 715.5 c 128,-1,34
 232 750 232 750 280 770 c 128,-1,35
 328 790 328 790 376.5 807.5 c 128,-1,36
 425 825 425 825 458.5 848 c 128,-1,37
 492 871 492 871 492 900 c 0,38,39
 492 934 492 934 453 954.5 c 128,-1,40
 414 975 414 975 368 975 c 0,41,42
 309 975 309 975 241 956 c 128,-1,43
 173 937 173 937 154 916 c 1,44,45
 114 937 114 937 78.5 1001 c 128,-1,46
 43 1065 43 1065 43 1133 c 0,10,11
EndSplineSet
Colour: ffff
EndChar

StartChar: questiondown
Encoding: 191 191 168
Width: 747
VWidth: 0
Flags: HMW
LayerCount: 2
Fore
SplineSet
580 775 m 0,0,1
 580 715 580 715 530.5 668.5 c 128,-1,2
 481 622 481 622 371 622 c 0,3,4
 254 622 254 622 203.5 667.5 c 128,-1,5
 153 713 153 713 153 772 c 0,6,7
 153 928 153 928 372 928 c 0,8,9
 580 928 580 928 580 775 c 0,0,1
665 -231 m 0,10,11
 665 -300 665 -300 610 -344.5 c 128,-1,12
 555 -389 555 -389 434 -389 c 0,13,14
 357 -389 357 -389 277.5 -343.5 c 128,-1,15
 198 -298 198 -298 138.5 -228.5 c 128,-1,16
 79 -159 79 -159 41.5 -72 c 128,-1,17
 4 15 4 15 4 96 c 0,18,19
 4 153 4 153 20 196.5 c 128,-1,20
 36 240 36 240 61.5 265.5 c 128,-1,21
 87 291 87 291 117.5 310 c 128,-1,22
 148 329 148 329 178.5 343.5 c 128,-1,23
 209 358 209 358 234.5 372.5 c 128,-1,24
 260 387 260 387 276 409.5 c 128,-1,25
 292 432 292 432 292 463 c 0,26,27
 292 488 292 488 279 540 c 1,28,-1
 449 528 l 1,29,30
 495 459 495 459 519 385.5 c 128,-1,31
 543 312 543 312 543 267 c 0,32,33
 543 221 543 221 509.5 186.5 c 128,-1,34
 476 152 476 152 428 132 c 128,-1,35
 380 112 380 112 331.5 94.5 c 128,-1,36
 283 77 283 77 249.5 54 c 128,-1,37
 216 31 216 31 216 2 c 0,38,39
 216 -32 216 -32 255 -52.5 c 128,-1,40
 294 -73 294 -73 340 -73 c 0,41,42
 399 -73 399 -73 467 -54 c 128,-1,43
 535 -35 535 -35 554 -14 c 1,44,45
 594 -35 594 -35 629.5 -99 c 128,-1,46
 665 -163 665 -163 665 -231 c 0,10,11
EndSplineSet
Colour: ffff
EndChar

StartChar: quotedbl
Encoding: 34 34 169
Width: 744
VWidth: 0
Flags: HMW
LayerCount: 2
Fore
SplineSet
430 1302 m 1,0,-1
 741 1278 l 1,1,-1
 680 920 l 1,2,-1
 505 894 l 1,3,-1
 430 1302 l 1,0,-1
100 1302 m 1,4,-1
 411 1278 l 1,5,-1
 350 920 l 1,6,-1
 175 894 l 1,7,-1
 100 1302 l 1,4,-1
EndSplineSet
Colour: ffff
EndChar

StartChar: quotesinglbase
Encoding: 8218 8218 170
Width: 564
VWidth: 0
Flags: HMW
LayerCount: 2
Fore
SplineSet
129 -259 m 1,0,1
 210 -232 210 -232 252 -181.5 c 128,-1,2
 294 -131 294 -131 294 -80 c 0,3,4
 294 -39 294 -39 269 -14.5 c 128,-1,5
 244 10 244 10 207 10 c 0,6,7
 179 10 179 10 153 -3 c 1,8,9
 122 49 122 49 122 96 c 0,10,11
 121 183 121 183 177.5 230.5 c 128,-1,12
 234 278 234 278 324 278 c 0,13,14
 567 278 567 278 567 12 c 0,15,16
 567 -52 567 -52 543.5 -113 c 128,-1,17
 520 -174 520 -174 473.5 -229 c 128,-1,18
 427 -284 427 -284 349.5 -323.5 c 128,-1,19
 272 -363 272 -363 173 -377 c 1,20,-1
 129 -259 l 1,0,1
EndSplineSet
Colour: ffff
EndChar

StartChar: quotesingle
Encoding: 39 39 171
Width: 414
VWidth: 0
Flags: HMW
LayerCount: 2
Fore
SplineSet
50 1302 m 1,0,-1
 361 1278 l 1,1,-1
 300 920 l 1,2,-1
 125 894 l 1,3,-1
 50 1302 l 1,0,-1
EndSplineSet
Colour: ffff
EndChar

StartChar: r
Encoding: 114 114 172
Width: 960
VWidth: 0
Flags: HMW
LayerCount: 2
Back
SplineSet
-105 0 m 1,0,-1
 -88 157 l 1,1,-1
 54 229 l 1,2,-1
 54 640 l 1,3,-1
 -88 721 l 1,4,-1
 -61 889 l 1,5,-1
 342 918 l 1,6,-1
 380 879 l 1,7,-1
 357 777 l 1,8,-1
 372 771 l 1,9,10
 447.469 849.75 447.469 849.75 514.821 889.183 c 0
 582.173 928.617 582.173 928.617 661.449 928.617 c 0,11,12
 776.883 928.617 776.883 928.617 841.942 859.476 c 0
 907 790.336 907 790.336 907 641 c 2,13,-1
 907 229 l 1,14,-1
 1055 165 l 1,15,-1
 1032 0 l 1,16,-1
 596 0 l 1,17,-1
 596 157 l 1,18,-1
 596 229 l 1,19,-1
 596 429 l 2,20,21
 596 522.379 596 522.379 572.633 562.203 c 0
 549.266 602.028 549.266 602.028 501.271 602.028 c 0,22,23
 428.976 602.028 428.976 602.028 372 552 c 1,24,-1
 372 229 l 1,25,-1
 495 166 l 1,26,-1
 467 0 l 1,27,-1
 -105 0 l 1,0,-1
EndSplineSet
Fore
SplineSet
45 2 m 1,0,-1
 67 161 l 1,1,-1
 213 229 l 1,2,-1
 213 643 l 1,3,-1
 73 721 l 1,4,-1
 100 889 l 1,5,-1
 465 918 l 1,6,-1
 503 879 l 1,7,-1
 485 738 l 1,8,-1
 504 728 l 1,9,10
 572 930 572 930 750 930 c 0,11,12
 827 930 827 930 871.5 885 c 128,-1,13
 916 840 916 840 916 770 c 0,14,15
 916 647 916 647 811 546 c 1,16,17
 728 586 728 586 669 586 c 0,18,19
 646 586 646 586 626 579 c 128,-1,20
 606 572 606 572 593.5 564 c 128,-1,21
 581 556 581 556 568.5 539.5 c 128,-1,22
 556 523 556 523 550.5 513.5 c 128,-1,23
 545 504 545 504 542.5 499 c 2,24,-1
 523 460 l 1,25,-1
 523 251 l 1,26,-1
 762 188 l 1,27,-1
 748 2 l 1,28,-1
 45 2 l 1,0,-1
EndSplineSet
Colour: ffff
EndChar

StartChar: registered
Encoding: 174 174 173
Width: 1227
VWidth: 0
Flags: HMW
LayerCount: 2
Fore
SplineSet
184 1036 m 0,0,1
 184 844 184 844 297 740 c 128,-1,2
 410 636 410 636 603 636 c 0,3,4
 809 636 809 636 925.5 738.5 c 128,-1,5
 1042 841 1042 841 1042 1016 c 0,6,7
 1042 1208 1042 1208 919 1317 c 128,-1,8
 796 1426 796 1426 605 1426 c 0,9,10
 184 1426 184 1426 184 1036 c 0,0,1
46 1022 m 0,11,12
 46 1128 46 1128 78.5 1216 c 128,-1,13
 111 1304 111 1304 165.5 1363.5 c 128,-1,14
 220 1423 220 1423 292.5 1464 c 128,-1,15
 365 1505 365 1505 443.5 1523.5 c 128,-1,16
 522 1542 522 1542 605 1542 c 0,17,18
 691 1542 691 1542 771 1525 c 128,-1,19
 851 1508 851 1508 926.5 1468.5 c 128,-1,20
 1002 1429 1002 1429 1057.5 1371 c 128,-1,21
 1113 1313 1113 1313 1146.5 1224.5 c 128,-1,22
 1180 1136 1180 1136 1180 1026 c 0,23,24
 1180 924 1180 924 1146 839 c 128,-1,25
 1112 754 1112 754 1055 696 c 128,-1,26
 998 638 998 638 922.5 597.5 c 128,-1,27
 847 557 847 557 764.5 538.5 c 128,-1,28
 682 520 682 520 595 520 c 0,29,30
 514 520 514 520 437 537.5 c 128,-1,31
 360 555 360 555 288.5 594 c 128,-1,32
 217 633 217 633 163.5 690 c 128,-1,33
 110 747 110 747 78 832.5 c 128,-1,34
 46 918 46 918 46 1022 c 0,11,12
562 1073 m 1,35,-1
 621 1073 l 1,36,37
 646 1087 646 1087 655 1106.5 c 128,-1,38
 664 1126 664 1126 664 1160 c 0,39,40
 664 1202 664 1202 641.5 1229 c 128,-1,41
 619 1256 619 1256 573 1256 c 2,42,-1
 562 1256 l 1,43,-1
 562 1073 l 1,35,-1
291 773 m 1,44,-1
 300 835 l 1,45,-1
 375 870 l 1,46,-1
 375 1221 l 1,47,-1
 299 1242 l 1,48,-1
 305 1314 l 1,49,50
 355 1322 355 1322 448.5 1329.5 c 128,-1,51
 542 1337 542 1337 591 1337 c 0,52,53
 726 1337 726 1337 795.5 1301 c 128,-1,54
 865 1265 865 1265 865 1181 c 0,55,56
 865 1126 865 1126 826.5 1091.5 c 128,-1,57
 788 1057 788 1057 738 1040 c 1,58,-1
 738 1039 l 1,59,-1
 777 977 l 1,60,61
 825 903 825 903 929 843 c 1,62,-1
 947 833 l 1,63,-1
 933 774 l 1,64,65
 892 761 892 761 835 761 c 0,66,67
 753 761 753 761 695.5 803 c 128,-1,68
 638 845 638 845 615 918 c 2,69,-1
 595 979 l 1,70,-1
 562 979 l 1,71,-1
 562 876 l 1,72,-1
 616 842 l 1,73,-1
 611 773 l 1,74,-1
 291 773 l 1,44,-1
EndSplineSet
Colour: ffff
EndChar

StartChar: ring
Encoding: 730 730 174
Width: 700
VWidth: 0
Flags: HMW
LayerCount: 2
Fore
SplineSet
267 1526 m 0,0,1
 267 1469 267 1469 345 1469 c 0,2,3
 375 1469 375 1469 398.5 1484 c 128,-1,4
 422 1499 422 1499 422 1526 c 128,-1,5
 422 1553 422 1553 397 1569 c 128,-1,6
 372 1585 372 1585 339 1585 c 0,7,8
 312 1585 312 1585 289.5 1568 c 128,-1,9
 267 1551 267 1551 267 1526 c 0,0,1
76 1525 m 0,10,11
 76 1601 76 1601 144 1649.5 c 128,-1,12
 212 1698 212 1698 350 1698 c 0,13,14
 625 1698 625 1698 625 1534 c 0,15,16
 625 1460 625 1460 553.5 1409.5 c 128,-1,17
 482 1359 482 1359 336 1359 c 0,18,19
 197 1359 197 1359 136.5 1401.5 c 128,-1,20
 76 1444 76 1444 76 1525 c 0,10,11
EndSplineSet
Colour: ffff
EndChar

StartChar: s
Encoding: 115 115 175
Width: 874
VWidth: 0
Flags: HMW
LayerCount: 2
Back
SplineSet
-70 141 m 4,0,1
 -70 193 -70 193 -34.5 230 c 0
 1 267 1 267 62 271 c 1,2,3
 93 168 93 168 142.5 116 c 0
 192 64 192 64 251 64 c 0,4,5
 309 64 309 64 346 88.5 c 0
 383 113 383 113 383 165 c 0,6,7
 383 202 383 202 351 235.5 c 0
 319 269 319 269 271.5 294.5 c 0
 224 320 224 320 168.5 353 c 0
 113 386 113 386 65.5 420 c 0
 18 454 18 454 -14 507.5 c 0
 -46 561 -46 561 -46 624 c 0,8,9
 -46 669 -46 669 -27 716 c 0
 -8 763 -8 763 27 805 c 0
 62 847 62 847 121 873.5 c 0
 180 900 180 900 252 900 c 0,10,11
 356 900 356 900 426.5 856.5 c 0
 497 813 497 813 497 734 c 0,12,13
 497 672 497 672 459.5 632.5 c 0
 422 593 422 593 357 589 c 1,14,-1
 350 632 l 1,15,16
 315 816 315 816 201 816 c 0,17,18
 150 816 150 816 119.5 781 c 0
 89 746 89 746 89 696 c 0,19,20
 89 658 89 658 113 625 c 0
 137 592 137 592 176 566 c 0
 215 540 215 540 261.5 514.5 c 0
 308 489 308 489 355 460 c 0
 402 431 402 431 441 398.5 c 0
 480 366 480 366 504 320 c 0
 528 274 528 274 528 220 c 0,21,22
 528 149 528 149 483 89.5 c 0
 438 30 438 30 367.5 -2 c 0
 297 -34 297 -34 220 -34 c 0,23,24
 91 -34 91 -34 10.5 18 c 0
 -70 70 -70 70 -70 141 c 4,0,1
EndSplineSet
Fore
SplineSet
49 167 m 0,0,1
 49 239 49 239 104.5 280.5 c 128,-1,2
 160 322 160 322 261 330 c 1,3,4
 286 231 286 231 329 178.5 c 128,-1,5
 372 126 372 126 424 126 c 0,6,7
 531 126 531 126 531 193 c 0,8,9
 531 215 531 215 506.5 237 c 128,-1,10
 482 259 482 259 442.5 278.5 c 128,-1,11
 403 298 403 298 355 320.5 c 128,-1,12
 307 343 307 343 259 373 c 128,-1,13
 211 403 211 403 171.5 438 c 128,-1,14
 132 473 132 473 107.5 523.5 c 128,-1,15
 83 574 83 574 83 634 c 0,16,17
 83 670 83 670 94.5 709.5 c 128,-1,18
 106 749 106 749 135.5 792.5 c 128,-1,19
 165 836 165 836 208 870 c 128,-1,20
 251 904 251 904 322 926 c 128,-1,21
 393 948 393 948 480 948 c 0,22,23
 632 948 632 948 722.5 899 c 128,-1,24
 813 850 813 850 813 763 c 0,25,26
 813 725 813 725 794.5 696 c 128,-1,27
 776 667 776 667 744 650.5 c 128,-1,28
 712 634 712 634 677 625 c 128,-1,29
 642 616 642 616 602 613 c 1,30,-1
 578 679 l 2,31,32
 555 743 555 743 516 772.5 c 128,-1,33
 477 802 477 802 437 802 c 0,34,35
 353 802 353 802 353 737 c 0,36,37
 353 713 353 713 379 689.5 c 128,-1,38
 405 666 405 666 447 645 c 128,-1,39
 489 624 489 624 539.5 600 c 128,-1,40
 590 576 590 576 641 545 c 128,-1,41
 692 514 692 514 734 477.5 c 128,-1,42
 776 441 776 441 802 388 c 128,-1,43
 828 335 828 335 828 272 c 0,44,45
 828 126 828 126 708 45 c 128,-1,46
 588 -36 588 -36 397 -36 c 0,47,48
 313 -36 313 -36 234 -12 c 128,-1,49
 155 12 155 12 102 59.5 c 128,-1,50
 49 107 49 107 49 167 c 0,0,1
EndSplineSet
Colour: ffff
EndChar

StartChar: section
Encoding: 167 167 176
Width: 1053
VWidth: 0
Flags: HMW
LayerCount: 2
Fore
SplineSet
73 909 m 0,0,1
 73 992 73 992 96.5 1054.5 c 128,-1,2
 120 1117 120 1117 160.5 1157 c 128,-1,3
 201 1197 201 1197 261.5 1221.5 c 128,-1,4
 322 1246 322 1246 390 1256 c 128,-1,5
 458 1266 458 1266 543 1266 c 0,6,7
 650 1266 650 1266 745.5 1244 c 128,-1,8
 841 1222 841 1222 887 1187 c 1,9,-1
 874 899 l 1,10,-1
 703 922 l 1,11,-1
 654 1068 l 1,12,13
 627 1087 627 1087 583.5 1102 c 128,-1,14
 540 1117 540 1117 501 1117 c 0,15,16
 391 1117 391 1117 391 995 c 0,17,18
 391 953 391 953 424.5 920 c 128,-1,19
 458 887 458 887 511 866.5 c 128,-1,20
 564 846 564 846 629.5 822 c 128,-1,21
 695 798 695 798 759 774.5 c 128,-1,22
 823 751 823 751 878.5 713 c 128,-1,23
 934 675 934 675 966.5 625 c 128,-1,24
 999 575 999 575 1002 498 c 128,-1,25
 1005 421 1005 421 965 320 c 1,26,-1
 446 545 l 2,27,28
 369 578 369 578 318 603.5 c 128,-1,29
 267 629 267 629 216.5 663 c 128,-1,30
 166 697 166 697 137 731 c 128,-1,31
 108 765 108 765 90.5 810 c 128,-1,32
 73 855 73 855 73 909 c 0,0,1
64 -231 m 1,33,-1
 85 80 l 1,34,-1
 270 46 l 1,35,-1
 318 -157 l 1,36,37
 337 -173 337 -173 396.5 -191.5 c 128,-1,38
 456 -210 456 -210 512 -210 c 0,39,40
 576 -210 576 -210 616 -180 c 128,-1,41
 656 -150 656 -150 656 -81 c 0,42,43
 656 -39 656 -39 624.5 -5 c 128,-1,44
 593 29 593 29 543.5 51.5 c 128,-1,45
 494 74 494 74 432 100 c 128,-1,46
 370 126 370 126 308.5 152 c 128,-1,47
 247 178 247 178 192 218 c 128,-1,48
 137 258 137 258 102 309.5 c 128,-1,49
 67 361 67 361 58 438 c 128,-1,50
 49 515 49 515 78 614 c 1,51,-1
 468 442 l 2,52,53
 506 425 506 425 576 395 c 0,54,55
 635 370 635 370 663 357.5 c 128,-1,56
 691 345 691 345 737 323.5 c 128,-1,57
 783 302 783 302 804 289.5 c 128,-1,58
 825 277 825 277 857.5 256 c 128,-1,59
 890 235 890 235 904.5 218 c 128,-1,60
 919 201 919 201 938 177.5 c 128,-1,61
 957 154 957 154 964.5 129.5 c 128,-1,62
 972 105 972 105 978 75 c 128,-1,63
 984 45 984 45 984 10 c 0,64,65
 984 -55 984 -55 964.5 -111 c 128,-1,66
 945 -167 945 -167 912.5 -207 c 128,-1,67
 880 -247 880 -247 836 -279.5 c 128,-1,68
 792 -312 792 -312 744 -333 c 128,-1,69
 696 -354 696 -354 644.5 -368 c 128,-1,70
 593 -382 593 -382 547 -387.5 c 128,-1,71
 501 -393 501 -393 459 -393 c 0,72,73
 353 -393 353 -393 233 -343 c 128,-1,74
 113 -293 113 -293 64 -231 c 1,33,-1
EndSplineSet
Colour: ffff
EndChar

StartChar: semicolon
Encoding: 59 59 177
Width: 532
VWidth: 0
Flags: HMW
LayerCount: 2
Fore
SplineSet
122 -238 m 1,0,1
 199 -214 199 -214 238.5 -168.5 c 128,-1,2
 278 -123 278 -123 278 -77 c 0,3,4
 278 -40 278 -40 254.5 -18 c 128,-1,5
 231 4 231 4 196 4 c 0,6,7
 169 4 169 4 144 -8 c 1,8,9
 115 39 115 39 115 81 c 0,10,11
 114 159 114 159 167.5 202 c 128,-1,12
 221 245 221 245 307 245 c 0,13,14
 538 245 538 245 538 6 c 0,15,16
 538 -51 538 -51 515.5 -106.5 c 128,-1,17
 493 -162 493 -162 449 -211 c 128,-1,18
 405 -260 405 -260 331 -296 c 128,-1,19
 257 -332 257 -332 163 -344 c 1,20,-1
 122 -238 l 1,0,1
121 759 m 0,21,22
 121 784 121 784 130 808 c 128,-1,23
 139 832 139 832 159.5 854.5 c 128,-1,24
 180 877 180 877 218.5 890.5 c 128,-1,25
 257 904 257 904 309 904 c 0,26,27
 364 904 364 904 404.5 890.5 c 128,-1,28
 445 877 445 877 466 855 c 128,-1,29
 487 833 487 833 496 810.5 c 128,-1,30
 505 788 505 788 505 762 c 0,31,32
 505 614 505 614 308 613 c 0,33,34
 121 614 121 614 121 759 c 0,21,22
EndSplineSet
Colour: ffff
EndChar

